<?xml version="1.0" encoding="UTF-8" standalone="no"?>
<!DOCTYPE svg PUBLIC "-//W3C//DTD SVG 1.1//EN" "http://www.w3.org/Graphics/SVG/1.1/DTD/svg11.dtd">
<svg width="100%" height="100%" viewBox="0 0 173 173" version="1.1" xmlns="http://www.w3.org/2000/svg" xmlns:xlink="http://www.w3.org/1999/xlink" xml:space="preserve" xmlns:serif="http://www.serif.com/" style="fill-rule:evenodd;clip-rule:evenodd;stroke-linejoin:round;stroke-miterlimit:2;">
    <g id="ArtBoard1" transform="matrix(0.573428,0,0,0.573428,0,0)">
        <rect x="0" y="0" width="300" height="300" style="fill:none;"/>
        <g transform="matrix(1.7439,0,0,1.7439,-111.585,-111.585)">
            <path d="M150,75C191.43,75 225,108.58 225,150C225,161.05 222.64,171.52 218.33,180.98C215.7,186.81 210.21,190.31 203.85,190.31L170.84,190.31L175.35,202.74C177.03,207.32 176.63,211.9 174.17,216.14C171.75,220.35 167.97,223.01 163.16,223.85C158.88,224.62 154.5,225 149.99,225C108.56,225 74.99,191.42 74.99,150C74.99,138.92 77.41,128.38 81.73,118.91C84.39,113.12 89.85,109.58 96.21,109.58L129.08,109.58L124.6,97.29C122.95,92.71 123.35,88.1 125.78,83.89C128.2,79.68 131.98,77.02 136.79,76.18C141.07,75.41 145.48,75 149.99,75L150,75ZM207.83,176.24C211.47,168.26 213.49,159.37 213.49,150C213.49,114.94 185.06,86.55 150.01,86.55C146.2,86.55 142.47,86.89 138.83,87.53C137.55,87.77 136.51,88.47 135.83,89.62C135.19,90.77 135.09,92.01 135.53,93.26L141.49,109.59L172.31,109.59C179.62,109.59 185.82,114.34 187.7,121.41C189.59,128.48 186.62,135.66 180.29,139.33L157.15,152.67L166.65,178.8L203.9,178.8C205.62,178.8 207.1,177.82 207.84,176.24L207.83,176.24ZM145.66,121.14L153.1,141.58L174.52,129.22C176.24,128.21 177.05,126.26 176.54,124.34C176.03,122.42 174.35,121.14 172.36,121.14L145.65,121.14L145.66,121.14ZM92.25,123.67C88.58,131.69 86.56,140.61 86.56,150.01C86.56,185.07 114.95,213.49 150.01,213.49C153.82,213.49 157.55,213.15 161.16,212.51C163.82,212.04 165.4,209.31 164.46,206.78L158.47,190.31L128.13,190.31C120.82,190.31 114.66,185.56 112.77,178.52C110.85,171.45 113.85,164.24 120.18,160.6L142.88,147.47L133.32,121.13L96.21,121.13C94.49,121.13 93.01,122.07 92.27,123.66L92.25,123.67ZM154.29,178.8L146.91,158.59L125.89,170.71C124.17,171.72 123.36,173.67 123.87,175.59C124.41,177.51 126.09,178.79 128.08,178.79L154.28,178.79L154.29,178.8Z" style="fill:url(#_Linear1);fill-rule:nonzero;"/>
        </g>
        <g transform="matrix(1.7439,0,0,1.7439,-111.585,-111.585)">
            <path d="M128.11,190.31L128.11,178.79L128.08,178.79C126.09,178.79 124.41,177.51 123.87,175.59C123.36,173.67 124.17,171.72 125.89,170.71L146.91,158.59L142.87,147.48L120.17,160.61C113.84,164.25 110.84,171.45 112.76,178.53C114.65,185.57 120.81,190.32 128.12,190.32L128.11,190.31Z" style="fill:url(#_Linear2);fill-rule:nonzero;"/>
        </g>
        <g transform="matrix(1.7439,0,0,1.7439,-111.585,-111.585)">
            <path d="M170.85,190.31L175.36,202.74C177.04,207.32 176.64,211.9 174.18,216.14C171.76,220.35 167.98,223.01 163.17,223.85L161.15,212.5C163.81,212.03 165.39,209.3 164.45,206.77L158.46,190.3L170.85,190.3L170.85,190.31Z" style="fill:url(#_Linear3);fill-rule:nonzero;"/>
        </g>
        <g transform="matrix(1.7439,0,0,1.7439,-111.585,-111.585)">
            <path d="M133.3,121.14L145.66,121.14L157.14,152.66L146.9,158.59L133.3,121.14Z" style="fill:url(#_Linear4);fill-rule:nonzero;"/>
        </g>
    </g>
    <defs>
        <linearGradient id="_Linear1" x1="0" y1="0" x2="1" y2="0" gradientUnits="userSpaceOnUse" gradientTransform="matrix(106.08,-106.08,106.08,106.08,96.96,203.04)"><stop offset="0" style="stop-color:rgb(255,138,140);stop-opacity:1"/><stop offset="1" style="stop-color:rgb(255,193,32);stop-opacity:1"/></linearGradient>
        <linearGradient id="_Linear2" x1="0" y1="0" x2="1" y2="0" gradientUnits="userSpaceOnUse" gradientTransform="matrix(-36.51,21.08,-21.08,-36.51,150.29,160.35)"><stop offset="0" style="stop-color:rgb(255,119,53);stop-opacity:1"/><stop offset="0.25" style="stop-color:rgb(255,119,53);stop-opacity:1"/><stop offset="0.7" style="stop-color:rgb(255,152,113);stop-opacity:0"/><stop offset="1" style="stop-color:rgb(255,152,113);stop-opacity:0"/></linearGradient>
        <linearGradient id="_Linear3" x1="0" y1="0" x2="1" y2="0" gradientUnits="userSpaceOnUse" gradientTransform="matrix(2.05435e-15,-33.55,33.55,2.05435e-15,167.42,223.86)"><stop offset="0" style="stop-color:rgb(255,152,113);stop-opacity:0"/><stop offset="0.3" style="stop-color:rgb(255,152,113);stop-opacity:0"/><stop offset="0.75" style="stop-color:rgb(255,119,53);stop-opacity:1"/><stop offset="1" style="stop-color:rgb(255,119,53);stop-opacity:1"/></linearGradient>
        <linearGradient id="_Linear4" x1="0" y1="0" x2="1" y2="0" gradientUnits="userSpaceOnUse" gradientTransform="matrix(2.29315e-15,-37.45,37.45,2.29315e-15,145.22,158.59)"><stop offset="0" style="stop-color:rgb(255,163,92);stop-opacity:0"/><stop offset="0.2" style="stop-color:rgb(255,163,92);stop-opacity:0"/><stop offset="0.75" style="stop-color:rgb(255,119,53);stop-opacity:1"/><stop offset="1" style="stop-color:rgb(255,119,53);stop-opacity:1"/></linearGradient>
    </defs>
</svg>
