<svg width="204" height="40" viewBox="0 0 204 40" fill="none" xmlns="http://www.w3.org/2000/svg">
<g filter="url(#filter0_d_806_88)">
<path d="M184.455 14.8098V9.06768H186.619V4.32422H193.734V9.06768H197.52V14.8098H193.734V23.0484C193.734 24.6573 194.656 25.4617 196.501 25.4617C196.973 25.4617 197.368 25.4479 197.687 25.4201V31.5159C197.063 31.6823 196.154 31.7656 194.961 31.7656C192.215 31.7656 190.135 31.0582 188.72 29.6435C187.319 28.2149 186.619 25.8986 186.619 22.6947V14.8098H184.455Z" fill="white"/>
</g>
<g filter="url(#filter1_d_806_88)">
<path d="M161.84 21.4699V9.07031H168.955V22.4061C168.955 23.4186 169.225 24.2022 169.766 24.757C170.307 25.3118 171.015 25.5892 171.888 25.5892C172.846 25.5892 173.594 25.291 174.135 24.6946C174.69 24.0982 174.968 23.3354 174.968 22.4061V9.07031H182.083V31.4353H175.134V29.126C174.635 29.8888 173.893 30.5615 172.908 31.1441C171.937 31.7127 170.807 31.997 169.517 31.997C168.546 31.997 167.672 31.8791 166.895 31.6434C166.119 31.4076 165.467 31.1024 164.94 30.728C164.413 30.3396 163.955 29.8542 163.567 29.2716C163.178 28.6891 162.873 28.1135 162.651 27.5448C162.443 26.9623 162.27 26.2966 162.131 25.5476C162.006 24.7848 161.923 24.1051 161.881 23.5087C161.854 22.8985 161.84 22.2189 161.84 21.4699Z" fill="white"/>
</g>
<g filter="url(#filter2_d_806_88)">
<path d="M127.533 16.4748C127.533 13.5899 128.171 10.9824 129.447 8.65229C130.737 6.32217 132.575 4.47749 134.96 3.11825C137.36 1.74515 140.099 1.05859 143.178 1.05859C146.257 1.05859 148.99 1.74515 151.375 3.11825C153.775 4.47749 155.613 6.32217 156.889 8.65229C158.178 10.9824 158.823 13.5899 158.823 16.4748C158.823 19.3875 158.178 22.0227 156.889 24.3806C155.613 26.7246 153.775 28.5832 151.375 29.9563C148.99 31.3155 146.257 31.9951 143.178 31.9951C140.099 31.9951 137.36 31.3155 134.96 29.9563C132.575 28.5832 130.737 26.7246 129.447 24.3806C128.171 22.0227 127.533 19.3875 127.533 16.4748ZM135.127 16.4748C135.127 18.9991 135.876 21.0796 137.374 22.7162C138.886 24.3529 140.82 25.1712 143.178 25.1712C145.536 25.1712 147.464 24.3529 148.962 22.7162C150.474 21.0796 151.23 18.9991 151.23 16.4748C151.23 13.9922 150.474 11.9394 148.962 10.3167C147.464 8.68003 145.536 7.86172 143.178 7.86172C140.82 7.86172 138.886 8.68003 137.374 10.3167C135.876 11.9394 135.127 13.9922 135.127 16.4748Z" fill="white"/>
</g>
<g filter="url(#filter3_d_806_88)">
<path d="M100.693 20.2646C100.693 16.7555 101.65 13.9192 103.564 11.7555C105.492 9.59181 108.058 8.50996 111.262 8.50996C112.732 8.50996 113.994 8.77349 115.049 9.30054C116.103 9.81372 116.831 10.3061 117.233 10.7777V0.625H124.348V31.4367H117.691V29.6891C117.219 30.2162 116.449 30.7363 115.381 31.2495C114.327 31.7488 113.079 31.9984 111.637 31.9984C108.419 31.9984 105.791 30.9027 103.752 28.7113C101.713 26.5199 100.693 23.7043 100.693 20.2646ZM109.119 16.3117C108.245 17.3242 107.809 18.6557 107.809 20.3062C107.809 21.9567 108.252 23.2813 109.14 24.2799C110.028 25.2785 111.186 25.7778 112.614 25.7778C114.098 25.7778 115.27 25.2577 116.13 24.2175C117.004 23.1634 117.441 21.8596 117.441 20.3062C117.441 18.5725 116.997 17.2202 116.11 16.2493C115.222 15.2645 114.057 14.7722 112.614 14.7722C111.172 14.7722 110.007 15.2853 109.119 16.3117Z" fill="white"/>
</g>
<g filter="url(#filter4_d_806_88)">
<path d="M76.9785 20.308C76.9785 18.1304 77.4293 16.147 78.3308 14.3578C79.2462 12.5686 80.543 11.147 82.2213 10.0929C83.9134 9.03877 85.8274 8.51172 87.9634 8.51172C91.5002 8.51172 94.2186 9.58663 96.1188 11.7364C98.019 13.8724 98.969 16.8613 98.969 20.7032C98.969 21.2858 98.9552 21.7504 98.9274 22.0972H84.2601C84.3434 23.1235 84.8288 24.0043 85.7165 24.7393C86.618 25.4606 87.7137 25.8212 89.0036 25.8212C90.1687 25.8212 91.1534 25.5577 91.9579 25.0306C92.7762 24.4897 93.3518 23.9557 93.6847 23.4287L98.3657 27.0487C98.1715 27.4509 97.8456 27.9017 97.3879 28.401C96.9441 28.8864 96.3407 29.4204 95.5779 30.0029C94.8289 30.5716 93.858 31.0501 92.6652 31.4384C91.4863 31.8129 90.2172 32.0002 88.858 32.0002C86.4585 32.0002 84.3503 31.487 82.5334 30.4606C80.7164 29.4204 79.3364 28.0195 78.3932 26.2581C77.4501 24.4966 76.9785 22.5132 76.9785 20.308ZM84.489 17.5825H91.729C91.6874 16.6533 91.3407 15.8696 90.6888 15.2316C90.0369 14.5936 89.177 14.2746 88.109 14.2746C87.0133 14.2746 86.1603 14.6075 85.55 15.2732C84.9398 15.9251 84.5861 16.6949 84.489 17.5825Z" fill="white"/>
</g>
<g filter="url(#filter5_d_806_88)">
<path d="M54.2793 31.4367V0.625H61.3945V18.0593L67.4486 9.07169H75.4168L68.2184 19.2868L76.0202 31.4367H67.6567L61.3945 20.9928V31.4367H54.2793Z" fill="white"/>
</g>
<g filter="url(#filter6_d_806_88)">
<path d="M30.1035 31.4384V9.07344H37.0523V11.362C37.5516 10.5991 38.2867 9.93337 39.2576 9.36471C40.2423 8.79605 41.3796 8.51172 42.6695 8.51172C43.6404 8.51172 44.5142 8.62961 45.2909 8.8654C46.0676 9.10118 46.7195 9.41325 47.2465 9.80161C47.7736 10.1761 48.2313 10.6546 48.6197 11.2371C49.008 11.8197 49.3062 12.4022 49.5143 12.9847C49.7362 13.5534 49.9095 14.2191 50.0344 14.982C50.1731 15.7309 50.2563 16.4106 50.284 17.0208C50.3256 17.6172 50.3464 18.2899 50.3464 19.0389V31.4384H43.2313V18.1027C43.2313 17.0902 42.9608 16.3065 42.4199 15.7517C41.8789 15.1831 41.1716 14.8987 40.2978 14.8987C39.3408 14.8987 38.5849 15.2039 38.0301 15.8142C37.4892 16.4106 37.2187 17.1734 37.2187 18.1027V31.4384H30.1035Z" fill="white"/>
</g>
<g filter="url(#filter7_d_806_88)">
<path d="M18.4531 3.86967C18.4531 2.74621 18.8276 1.82387 19.5766 1.10265C20.3255 0.367549 21.2687 0 22.406 0C23.5433 0 24.4934 0.367549 25.2562 1.10265C26.033 1.82387 26.4213 2.74621 26.4213 3.86967C26.4213 4.96538 26.033 5.88078 25.2562 6.61588C24.4934 7.33711 23.5433 7.69772 22.406 7.69772C21.2687 7.69772 20.3255 7.33711 19.5766 6.61588C18.8276 5.88078 18.4531 4.96538 18.4531 3.86967ZM18.9108 31.4358V9.07083H26.026V31.4358H18.9108Z" fill="white"/>
</g>
<g filter="url(#filter8_d_806_88)">
<path d="M0 31.4354V1.60156H7.28163V24.9236H16.2276V31.4354H0Z" fill="white"/>
</g>
<defs>
<filter id="filter0_d_806_88" x="184.455" y="4.32422" width="19.2324" height="35.4414" filterUnits="userSpaceOnUse" color-interpolation-filters="sRGB">
<feFlood flood-opacity="0" result="BackgroundImageFix"/>
<feColorMatrix in="SourceAlpha" type="matrix" values="0 0 0 0 0 0 0 0 0 0 0 0 0 0 0 0 0 0 127 0" result="hardAlpha"/>
<feOffset dx="4" dy="6"/>
<feGaussianBlur stdDeviation="1"/>
<feComposite in2="hardAlpha" operator="out"/>
<feColorMatrix type="matrix" values="0 0 0 0 0 0 0 0 0 0 0 0 0 0 0 0 0 0 0.2 0"/>
<feBlend mode="normal" in2="BackgroundImageFix" result="effect1_dropShadow_806_88"/>
<feBlend mode="normal" in="SourceGraphic" in2="effect1_dropShadow_806_88" result="shape"/>
</filter>
<filter id="filter1_d_806_88" x="161.84" y="9.07031" width="26.2422" height="30.9258" filterUnits="userSpaceOnUse" color-interpolation-filters="sRGB">
<feFlood flood-opacity="0" result="BackgroundImageFix"/>
<feColorMatrix in="SourceAlpha" type="matrix" values="0 0 0 0 0 0 0 0 0 0 0 0 0 0 0 0 0 0 127 0" result="hardAlpha"/>
<feOffset dx="4" dy="6"/>
<feGaussianBlur stdDeviation="1"/>
<feComposite in2="hardAlpha" operator="out"/>
<feColorMatrix type="matrix" values="0 0 0 0 0 0 0 0 0 0 0 0 0 0 0 0 0 0 0.2 0"/>
<feBlend mode="normal" in2="BackgroundImageFix" result="effect1_dropShadow_806_88"/>
<feBlend mode="normal" in="SourceGraphic" in2="effect1_dropShadow_806_88" result="shape"/>
</filter>
<filter id="filter2_d_806_88" x="127.533" y="1.05859" width="37.291" height="38.9375" filterUnits="userSpaceOnUse" color-interpolation-filters="sRGB">
<feFlood flood-opacity="0" result="BackgroundImageFix"/>
<feColorMatrix in="SourceAlpha" type="matrix" values="0 0 0 0 0 0 0 0 0 0 0 0 0 0 0 0 0 0 127 0" result="hardAlpha"/>
<feOffset dx="4" dy="6"/>
<feGaussianBlur stdDeviation="1"/>
<feComposite in2="hardAlpha" operator="out"/>
<feColorMatrix type="matrix" values="0 0 0 0 0 0 0 0 0 0 0 0 0 0 0 0 0 0 0.2 0"/>
<feBlend mode="normal" in2="BackgroundImageFix" result="effect1_dropShadow_806_88"/>
<feBlend mode="normal" in="SourceGraphic" in2="effect1_dropShadow_806_88" result="shape"/>
</filter>
<filter id="filter3_d_806_88" x="100.693" y="0.625" width="29.6543" height="39.375" filterUnits="userSpaceOnUse" color-interpolation-filters="sRGB">
<feFlood flood-opacity="0" result="BackgroundImageFix"/>
<feColorMatrix in="SourceAlpha" type="matrix" values="0 0 0 0 0 0 0 0 0 0 0 0 0 0 0 0 0 0 127 0" result="hardAlpha"/>
<feOffset dx="4" dy="6"/>
<feGaussianBlur stdDeviation="1"/>
<feComposite in2="hardAlpha" operator="out"/>
<feColorMatrix type="matrix" values="0 0 0 0 0 0 0 0 0 0 0 0 0 0 0 0 0 0 0.2 0"/>
<feBlend mode="normal" in2="BackgroundImageFix" result="effect1_dropShadow_806_88"/>
<feBlend mode="normal" in="SourceGraphic" in2="effect1_dropShadow_806_88" result="shape"/>
</filter>
<filter id="filter4_d_806_88" x="76.9785" y="8.51172" width="27.9902" height="31.4883" filterUnits="userSpaceOnUse" color-interpolation-filters="sRGB">
<feFlood flood-opacity="0" result="BackgroundImageFix"/>
<feColorMatrix in="SourceAlpha" type="matrix" values="0 0 0 0 0 0 0 0 0 0 0 0 0 0 0 0 0 0 127 0" result="hardAlpha"/>
<feOffset dx="4" dy="6"/>
<feGaussianBlur stdDeviation="1"/>
<feComposite in2="hardAlpha" operator="out"/>
<feColorMatrix type="matrix" values="0 0 0 0 0 0 0 0 0 0 0 0 0 0 0 0 0 0 0.2 0"/>
<feBlend mode="normal" in2="BackgroundImageFix" result="effect1_dropShadow_806_88"/>
<feBlend mode="normal" in="SourceGraphic" in2="effect1_dropShadow_806_88" result="shape"/>
</filter>
<filter id="filter5_d_806_88" x="54.2793" y="0.625" width="27.7402" height="38.8125" filterUnits="userSpaceOnUse" color-interpolation-filters="sRGB">
<feFlood flood-opacity="0" result="BackgroundImageFix"/>
<feColorMatrix in="SourceAlpha" type="matrix" values="0 0 0 0 0 0 0 0 0 0 0 0 0 0 0 0 0 0 127 0" result="hardAlpha"/>
<feOffset dx="4" dy="6"/>
<feGaussianBlur stdDeviation="1"/>
<feComposite in2="hardAlpha" operator="out"/>
<feColorMatrix type="matrix" values="0 0 0 0 0 0 0 0 0 0 0 0 0 0 0 0 0 0 0.2 0"/>
<feBlend mode="normal" in2="BackgroundImageFix" result="effect1_dropShadow_806_88"/>
<feBlend mode="normal" in="SourceGraphic" in2="effect1_dropShadow_806_88" result="shape"/>
</filter>
<filter id="filter6_d_806_88" x="30.1035" y="8.51172" width="26.2422" height="30.9258" filterUnits="userSpaceOnUse" color-interpolation-filters="sRGB">
<feFlood flood-opacity="0" result="BackgroundImageFix"/>
<feColorMatrix in="SourceAlpha" type="matrix" values="0 0 0 0 0 0 0 0 0 0 0 0 0 0 0 0 0 0 127 0" result="hardAlpha"/>
<feOffset dx="4" dy="6"/>
<feGaussianBlur stdDeviation="1"/>
<feComposite in2="hardAlpha" operator="out"/>
<feColorMatrix type="matrix" values="0 0 0 0 0 0 0 0 0 0 0 0 0 0 0 0 0 0 0.2 0"/>
<feBlend mode="normal" in2="BackgroundImageFix" result="effect1_dropShadow_806_88"/>
<feBlend mode="normal" in="SourceGraphic" in2="effect1_dropShadow_806_88" result="shape"/>
</filter>
<filter id="filter7_d_806_88" x="18.4531" y="0" width="13.9688" height="39.4375" filterUnits="userSpaceOnUse" color-interpolation-filters="sRGB">
<feFlood flood-opacity="0" result="BackgroundImageFix"/>
<feColorMatrix in="SourceAlpha" type="matrix" values="0 0 0 0 0 0 0 0 0 0 0 0 0 0 0 0 0 0 127 0" result="hardAlpha"/>
<feOffset dx="4" dy="6"/>
<feGaussianBlur stdDeviation="1"/>
<feComposite in2="hardAlpha" operator="out"/>
<feColorMatrix type="matrix" values="0 0 0 0 0 0 0 0 0 0 0 0 0 0 0 0 0 0 0.2 0"/>
<feBlend mode="normal" in2="BackgroundImageFix" result="effect1_dropShadow_806_88"/>
<feBlend mode="normal" in="SourceGraphic" in2="effect1_dropShadow_806_88" result="shape"/>
</filter>
<filter id="filter8_d_806_88" x="0" y="1.60156" width="22.2285" height="37.832" filterUnits="userSpaceOnUse" color-interpolation-filters="sRGB">
<feFlood flood-opacity="0" result="BackgroundImageFix"/>
<feColorMatrix in="SourceAlpha" type="matrix" values="0 0 0 0 0 0 0 0 0 0 0 0 0 0 0 0 0 0 127 0" result="hardAlpha"/>
<feOffset dx="4" dy="6"/>
<feGaussianBlur stdDeviation="1"/>
<feComposite in2="hardAlpha" operator="out"/>
<feColorMatrix type="matrix" values="0 0 0 0 0 0 0 0 0 0 0 0 0 0 0 0 0 0 0.2 0"/>
<feBlend mode="normal" in2="BackgroundImageFix" result="effect1_dropShadow_806_88"/>
<feBlend mode="normal" in="SourceGraphic" in2="effect1_dropShadow_806_88" result="shape"/>
</filter>
</defs>
</svg>