<?xml version="1.0" encoding="UTF-8"?>
<!-- Generated by Pixelmator Pro 3.1.1 -->
<svg width="256" height="256" viewBox="0 0 256 256" xmlns="http://www.w3.org/2000/svg" xmlns:xlink="http://www.w3.org/1999/xlink">
    <path id="Path-copy" fill="#ff6600" stroke="none" d="M 239.203888 108.70636 L 159.469269 108.70636 C 156.81459 108.723099 154.263794 107.675934 152.386612 105.798752 C 150.50943 103.92157 149.462265 101.370789 149.479019 98.71611 L 149.479019 18.981476 C 149.47908 16.337585 148.424545 13.802902 146.549194 11.939285 C 144.673843 10.075653 142.132599 9.037033 139.488785 9.053665 L 109.642921 9.053665 C 106.999107 9.037033 104.457855 10.075653 102.582504 11.939285 C 100.707153 13.802902 99.652634 16.337585 99.652679 18.981476 L 99.652679 98.71611 C 99.669441 101.370789 98.622276 103.92157 96.745102 105.798752 C 94.86792 107.675934 92.317123 108.723099 89.662445 108.70636 L 59.816586 108.70636 C 57.161911 108.723099 54.611107 107.675934 52.733932 105.798752 C 50.856754 103.92157 49.809589 101.370789 49.82634 98.71611 L 49.82634 18.981476 C 49.843094 16.326797 48.795933 13.775986 46.918751 11.898819 C 45.041573 10.021622 42.490772 8.974472 39.836094 8.991211 L 9.927805 8.991211 C 7.283933 8.991165 4.749248 10.045715 2.885619 11.921036 C 1.021989 13.796402 -0.016628 16.337646 0 18.981476 L 0 248.257568 C -0.01675 250.912247 1.030412 253.463028 2.907589 255.340225 C 4.784766 257.217377 7.335567 258.264557 9.990244 258.247803 L 239.203888 258.247803 C 241.858566 258.264557 244.409363 257.217377 246.28656 255.340225 C 248.163727 253.463028 249.210892 250.912247 249.194153 248.257568 L 249.194153 118.883911 C 249.26181 116.197021 248.237183 113.597504 246.354401 111.679413 C 244.471603 109.761322 241.891571 108.688599 239.203888 108.70636 Z M 199.118042 193.373657 C 199.134644 197.34227 197.569748 201.154022 194.769363 203.966156 C 191.968964 206.778259 188.163757 208.359055 184.195129 208.359039 L 164.21463 208.359039 C 160.245987 208.359055 156.440781 206.778259 153.640381 203.966156 C 150.839996 201.154022 149.275085 197.34227 149.291702 193.373657 L 149.291702 173.455597 C 149.275085 169.487 150.839996 165.675232 153.640381 162.863129 C 156.440781 160.051025 160.245987 158.470215 164.21463 158.470245 L 184.195129 158.470245 C 188.163757 158.470215 191.968964 160.051025 194.769363 162.863129 C 197.569748 165.675232 199.134644 169.487 199.118042 173.455597 L 199.118042 193.373657 Z"/>
</svg>
