<svg width="256" height="257" viewBox="0 0 256 257" fill="none" xmlns="http://www.w3.org/2000/svg">
<circle cx="128" cy="128.361" r="120" fill="#7497F7"/>
<path d="M189.782 149.567C182.27 149.741 175.372 149.249 168.989 148.236C176.183 141.753 180.414 132.833 179.89 123.192C179.394 114.087 174.741 106.039 167.601 100.332C177.172 96.2579 188.258 89.8986 193.987 80.8266C200.635 70.2999 196.562 61.4249 193.306 56.8495C192.004 55.0205 188.943 54.8516 187.053 56.5147L146.91 91.8429C144.786 91.5869 142.609 91.4856 140.395 91.5419C147.126 83.5842 153.746 73.1109 155.537 61.3405C157.869 46.0189 149.847 38.5621 144.518 35.3711C142.389 34.0965 139.158 35.6356 137.922 38.5311L106.206 110.839C103.505 115.722 102.119 121.226 102.434 126.986C103.446 145.498 121.605 159.655 142.992 158.608C146.721 158.425 150.301 157.792 153.67 156.773C148.326 158.841 142.487 159.981 136.37 159.981C110.865 159.981 90.1876 140.197 90.1876 115.792C90.1876 112.08 90.6693 108.476 91.5706 105.032C80.0139 97.3666 68.1388 92.7997 52.7035 96.1623C16.9404 103.951 30.466 132.222 49.2165 121.096C56.3821 116.844 70.0457 113.738 73.0736 124.763C77.0197 139.127 59.6015 135.962 44.814 163.811C73.7947 153.256 97.6293 153.506 125.802 161.796C184.633 179.107 220.858 170.601 220.793 158.476C220.731 147.316 205.721 149.201 189.788 149.573L189.782 149.567Z" fill="white"/>
<path d="M125.17 116.586C125.17 121.651 129.28 125.753 134.347 125.753C139.417 125.753 143.524 121.651 143.524 116.586C143.524 111.521 139.417 107.418 134.347 107.418C129.277 107.418 125.17 111.521 125.17 116.586Z" fill="#FF8B8B"/>
<path fill-rule="evenodd" clip-rule="evenodd" d="M35.0948 204.318C30.2075 198.347 25.8844 191.897 22.2069 185.048C38.9979 180.074 61.6844 175.446 86.3341 175.446C104.976 175.446 119.071 178.919 132.79 182.313L133.051 182.377C146.588 185.725 160.031 189.05 178.833 189.886C199.758 190.815 219.479 186.247 235.592 181.561C230.682 191.473 224.442 200.61 217.105 208.738C205.008 211.036 191.664 212.502 177.855 211.888C156.86 210.955 141.658 207.195 128.063 203.831L127.503 203.693C113.859 200.318 102.052 197.471 86.3341 197.471C67.0435 197.471 49.1392 200.648 35.0948 204.318Z" fill="white"/>
</svg>
