<svg xmlns="http://www.w3.org/2000/svg" xmlns:xlink="http://www.w3.org/1999/xlink" xml:space="preserve" style="enable-background:new 0 0 2500 2500" viewBox="0 0 2500 2500"><defs><circle id="a" cx="1250" cy="1250" r="1000"/></defs><clipPath id="b"><use xlink:href="#a" style="overflow:visible"/></clipPath><path d="M1678.1 812.5H312.5c-34.4 0-62.5-28.1-62.5-62.5V312.5c0-34.4 28.1-62.5 62.5-62.5h1781.3c34.4 0 62.5 28.1 62.5 62.5v21.9c-3.2 262.5-215.7 478.1-478.2 478.1z" style="clip-path:url(#b);fill:#f0bf1a"/><defs><circle id="c" cx="1250" cy="1250" r="1000"/></defs><clipPath id="d"><use xlink:href="#c" style="overflow:visible"/></clipPath><path d="M2159.4 2250H256.3v-562.5h1428.1c262.5 0 475 212.5 475 475v87.5z" style="clip-path:url(#d);fill:#3ebeb0"/><defs><circle id="e" cx="1250" cy="1250" r="1000"/></defs><clipPath id="f"><use xlink:href="#e" style="overflow:visible"/></clipPath><path d="M1565.6 1531.3H150V968.8h1415.6c156.3 0 281.3 125 281.3 281.3s-128.1 281.2-281.3 281.2z" style="clip-path:url(#f);fill:#07a5de"/><defs><circle id="g" cx="1250" cy="1250" r="1000"/></defs><clipPath id="h"><use xlink:href="#g" style="overflow:visible"/></clipPath><path d="M1125 968.8H200v562.5h925c21.9-84.4 34.4-178.1 34.4-281.3s-12.5-196.9-34.4-281.2z" style="clip-path:url(#h);fill:#231f20"/><path d="M746.9 384.4c-168.8 100-309.4 250-396.9 428.1h737.5c-75-171.9-193.8-315.6-340.6-428.1z" style="fill:#d7a229"/><path d="M778.1 2131.3c143.8-115.6 259.4-268.8 331.3-443.8H350c93.8 187.5 243.8 343.8 428.1 443.8z" style="fill:#019b8f"/><path d="M0 0h2500v2500H0V0z" style="fill:none"/></svg>