<?xml version="1.0" encoding="UTF-8" standalone="no"?>
<!-- Created with Inkscape (http://www.inkscape.org/) -->

<svg
   version="1.1"
   id="svg2"
   width="300"
   height="300"
   viewBox="0 0 300 300"
   xmlns="http://www.w3.org/2000/svg"
   xmlns:svg="http://www.w3.org/2000/svg">
  <defs
     id="defs6" />
  <g
     id="g8">
    <path
       style="fill:#192d45;stroke:none;stroke-width:1.33333"
       d="m 86.166553,13.283141 c 7.992,12.6732 20.086137,22.829467 30.666667,33.3252 4.37227,4.3372 9.5296,10.838267 16,11.839867 8.74267,1.353467 20.47067,-6.0636 29.33334,-7.556667 23.3,-3.9252 48.12666,3.504 65.10133,20.066134 17.372,16.9504 25.28667,42.468795 21.28933,66.325455 -1.47866,8.81867 -9.08133,20.672 -7.65333,29.33334 1.06533,6.456 7.596,11.624 11.93733,16 10.49734,10.58 20.652,22.67466 33.32534,30.66666 C 315.76389,135.94447 289.12522,45.797675 208.83322,12.053221 191.48389,4.7615547 172.92789,1.1121813 154.16656,0.15126503 130.78656,-1.046226 107.78922,5.0081947 86.166553,13.283141 m -29.333334,20.5968 c -11.0588,1.287067 -21.953866,17.909067 -28.022,26.069867 C 5.7021172,91.028341 -3.0145828,129.84687 0.90565716,167.9498 9.8872335,255.24713 94.945619,313.10847 179.49989,296.84313 c 25.54533,-4.91333 49.64,-16.688 69.32933,-33.65066 5.68534,-4.89867 17.15734,-13.43467 16.796,-21.90934 -0.45866,-10.796 -19.03333,-23.57466 -26.12533,-30.66666 -5.97867,-5.97867 -12.248,-14.29067 -20,-18.00667 -9.54933,-4.57733 -24.604,5.476 -34.66667,6.74933 -23.69733,3 -48.39466,-4.82933 -64.984,-22.23066 -16.3968,-17.2 -23.144001,-41.84667 -19.38866,-65.17867 1.4152,-8.79212 9.32213,-20.677725 7.33773,-29.333325 -2.14,-9.333867 -13.843204,-17.544534 -20.298404,-24 C 80.839219,51.955541 67.419619,32.647941 56.833219,33.879941 M 167.49989,80.738608 c -58.54293,8.615867 -42.56107,97.141862 16,87.859192 56.164,-8.90267 40.00267,-96.101192 -16,-87.859192 z"
       id="path170" />
  </g>
</svg>
