<svg width="101" height="86" fill="none" xmlns="http://www.w3.org/2000/svg"><path d="M100.184 43.023c0-5.031-1.505-9.854-4.474-14.339-2.666-4.025-6.401-7.588-11.1-10.591-9.074-5.796-21-8.989-33.579-8.989-4.202 0-8.344.355-12.361 1.059a40.9 40.9 0 0 0-8.497-6.091C13.679-3.922.001 3.884.001 3.884S12.718 14.331 10.65 23.488c-5.689 5.644-8.773 12.45-8.773 19.535l.001.068-.001.068c0 7.085 3.083 13.891 8.773 19.534C12.718 71.851.001 82.298.001 82.298s13.678 7.805 30.172-.188a40.962 40.962 0 0 0 8.497-6.091 71.772 71.772 0 0 0 12.361 1.058c12.58 0 24.505-3.191 33.579-8.987 4.699-3.003 8.434-6.565 11.1-10.592 2.969-4.484 4.474-9.309 4.474-14.338l-.001-.068.001-.069Z" fill="#C1272D"/><path d="M51.031 16.217c23.293 0 42.177 12.062 42.177 26.941 0 14.878-18.884 26.941-42.177 26.941-5.187 0-10.154-.6-14.743-1.693-4.664 5.61-14.924 13.411-24.891 10.89 3.242-3.482 8.045-9.366 7.017-19.058-5.974-4.648-9.56-10.597-9.56-17.08-.001-14.88 18.883-26.941 42.177-26.941Z" fill="#fff"/><path d="M51.031 49.628a5.603 5.603 0 1 0 0-11.206 5.603 5.603 0 0 0 0 11.206ZM70.511 49.628a5.603 5.603 0 1 0 0-11.206 5.603 5.603 0 0 0 0 11.206ZM31.55 49.627a5.602 5.602 0 1 0 0-11.204 5.602 5.602 0 0 0 0 11.204Z" fill="#C1272D"/><path d="M51.031 66.554c-5.187 0-10.154-.52-14.743-1.468-4.118 4.294-12.6 10.066-21.39 9.854-1.158 1.755-2.417 3.19-3.501 4.355 9.967 2.52 20.227-5.28 24.891-10.89 4.589 1.094 9.557 1.693 14.743 1.693 23.106 0 41.87-11.871 42.169-26.585-.299 12.754-19.063 23.04-42.169 23.04Z" fill="#CCC"/></svg>