<svg version="1.1" id="Layer_1" xmlns="http://www.w3.org/2000/svg" xmlns:xlink="http://www.w3.org/1999/xlink" x="0px" y="0px"
	 width="100%" viewBox="0 0 377 397" enable-background="new 0 0 377 397" xml:space="preserve">
<path fill="#101B30" opacity="1.000000" stroke="none" 
	d="
M378.000000,9.000000 
	C378.000000,138.618240 378.000000,268.236481 378.000000,397.927368 
	C252.428741,397.927368 126.857437,397.927368 1.000000,397.927368 
	C1.000000,267.977509 1.000000,137.954788 1.405239,7.468035 
	C9.168208,6.333762 16.525293,5.087899 23.883768,5.079633 
	C134.738754,4.955100 245.593933,5.017789 356.449005,4.939060 
	C363.959503,4.933726 371.354858,4.767845 378.000000,9.000000 
M295.387695,328.327667 
	C295.917755,327.920624 296.447815,327.513580 297.741974,327.068420 
	C306.360718,324.486298 311.199707,318.528992 313.696503,309.562744 
	C314.041504,307.646515 314.668823,305.732697 314.685181,303.813660 
	C314.781708,292.490967 314.790680,281.166718 314.706879,269.843872 
	C314.680023,266.214355 314.281403,262.587585 314.384155,258.359650 
	C314.305206,257.921204 314.226227,257.482727 314.535980,256.182526 
	C314.575378,204.283157 314.683838,152.383545 314.500702,100.484970 
	C314.488342,96.978012 312.278076,93.478813 311.049103,89.263832 
	C306.216034,80.351852 298.707275,76.462311 288.605316,76.476646 
	C221.167221,76.572357 153.728928,76.517357 86.290733,76.568771 
	C84.194046,76.570374 82.097824,77.197586 79.309593,77.480911 
	C67.077614,82.272331 61.576511,90.252235 61.554546,104.469193 
	C61.452240,170.678680 61.482609,236.888412 61.545399,303.097961 
	C61.546967,304.749451 62.473885,306.400116 62.916428,308.741760 
	C63.013256,309.191711 63.110081,309.641663 62.899765,310.560516 
	C63.602943,312.016174 64.306122,313.471863 65.073502,315.615082 
	C66.744934,317.662292 68.416367,319.709503 70.329559,322.303986 
	C70.663986,322.508850 70.998413,322.713684 71.398849,323.443359 
	C71.935432,323.738617 72.472023,324.033875 73.583282,324.824554 
	C77.112457,326.142426 80.617325,328.514069 84.174995,328.596069 
	C99.758743,328.955353 115.357773,328.651520 131.867981,328.839722 
	C142.347900,329.028137 152.827621,329.363831 163.307785,329.379028 
	C204.420822,329.438721 245.534042,329.408234 286.647095,329.356110 
	C288.406799,329.353882 290.165802,328.804626 292.697998,328.661621 
	C293.435272,328.451233 294.172516,328.240845 295.387695,328.327667 
z"/>
<path fill="#273249" opacity="1.000000" stroke="none" 
	d="
M378.000000,8.505266 
	C371.354858,4.767845 363.959503,4.933726 356.449005,4.939060 
	C245.593933,5.017789 134.738754,4.955100 23.883768,5.079633 
	C16.525293,5.087899 9.168208,6.333762 1.405239,7.001994 
	C1.000000,5.002507 1.000000,3.005014 1.000000,1.008588 
	C126.666664,1.009655 252.333328,1.009655 378.000000,1.014483 
	C378.000000,3.349719 378.000000,5.680126 378.000000,8.505266 
z"/>
<path fill="#4F63ED" opacity="1.000000" stroke="none" 
	d="
M313.061157,309.912872 
	C311.199707,318.528992 306.360718,324.486298 297.044128,327.021149 
	C295.914490,326.946289 295.482697,326.918732 294.818481,326.702637 
	C293.699524,326.925629 292.813019,327.337158 291.464844,327.795349 
	C278.343933,327.854980 265.684692,327.867981 253.032272,327.530518 
	C253.968582,325.676147 254.896683,324.171448 255.827789,322.668579 
	C262.732758,311.523468 275.250458,303.085052 272.825378,287.434509 
	C272.803375,287.292572 272.935333,287.126740 273.439941,286.889526 
	C276.589233,286.855927 279.294006,286.904877 282.216095,287.181427 
	C283.264343,286.890137 284.095276,286.371277 285.116699,285.614319 
	C286.211609,284.580475 287.115997,283.784729 288.287415,282.953308 
	C288.710815,282.287292 288.867218,281.656921 288.987213,280.608429 
	C289.052673,278.798096 289.154602,277.405853 289.606720,275.997742 
	C295.853241,271.261383 301.730927,266.517303 307.660004,261.838348 
	C309.012726,260.770813 310.542938,259.928284 312.215210,258.996216 
	C312.438965,259.010254 312.886139,259.042938 312.903503,259.508545 
	C312.967651,276.620361 313.014404,293.266632 313.061157,309.912872 
z"/>
<path fill="#118FA6" opacity="1.000000" stroke="none" 
	d="
M62.969223,308.051147 
	C62.473885,306.400116 61.546967,304.749451 61.545399,303.097961 
	C61.482609,236.888412 61.452240,170.678680 61.554546,104.469193 
	C61.576511,90.252235 67.077614,82.272331 79.672623,77.682892 
	C80.035652,77.884880 80.082375,78.238365 79.866196,78.487900 
	C68.201393,84.175018 63.609264,92.854179 63.772697,105.847511 
	C64.342346,151.135284 63.992733,196.434631 63.993538,241.729568 
	C63.993565,243.061722 63.963470,244.395599 64.018669,245.725708 
	C64.166473,249.287262 66.364571,250.095520 68.455910,247.786148 
	C72.235703,243.612274 76.236290,239.796097 76.182388,232.955048 
	C75.851791,190.993225 75.985458,149.027420 76.079811,107.063202 
	C76.087173,103.789772 76.496391,100.346893 77.589294,97.294434 
	C78.670067,94.275871 80.396698,90.915497 84.602203,92.828125 
	C79.101364,95.010979 78.660530,99.248398 78.666588,104.056343 
	C78.748672,169.215118 78.739586,234.374008 78.737198,299.532867 
	C78.737122,301.693329 78.570000,303.853760 78.156296,305.826691 
	C77.381531,298.652679 76.931229,291.666199 76.402336,283.460388 
	C73.217010,286.855225 71.239227,290.263733 68.285515,291.820129 
	C63.286915,294.454071 62.712330,298.329254 63.026840,303.056885 
	C63.137020,304.713043 62.995697,306.385895 62.969223,308.051147 
z"/>
<path fill="#2D6FBA" opacity="1.000000" stroke="none" 
	d="
M311.090027,89.976013 
	C312.278076,93.478813 314.488342,96.978012 314.500702,100.484970 
	C314.683838,152.383545 314.575378,204.283157 314.140961,256.623779 
	C313.472931,257.044434 313.200073,257.021820 312.939819,256.528290 
	C312.643890,239.021713 312.335571,221.984085 312.029358,204.483368 
	C312.031433,185.871292 312.031433,167.722275 312.031433,148.551056 
	C308.600281,151.509918 306.668793,154.119125 304.101501,155.159576 
	C300.593689,156.581192 299.903931,158.688080 299.925964,162.030243 
	C300.038086,179.018265 299.983276,196.007401 299.911438,213.406982 
	C299.566071,221.820648 299.380066,229.827866 298.960815,237.822845 
	C298.868530,239.582687 297.948303,241.299133 297.312347,242.573578 
	C297.193695,193.400940 297.172058,144.690277 297.535339,95.974663 
	C302.404327,95.369682 306.621216,94.267014 309.477478,89.999268 
	C310.229950,89.992378 310.660004,89.984192 311.090027,89.976013 
z"/>
<path fill="#1D8CBE" opacity="1.000000" stroke="none" 
	d="
M130.951263,328.588226 
	C115.357773,328.651520 99.758743,328.955353 84.174995,328.596069 
	C80.617325,328.514069 77.112457,326.142426 73.210678,324.367371 
	C72.336327,323.579651 71.834587,323.249084 71.332840,322.918549 
	C70.998413,322.713684 70.663986,322.508850 70.302994,321.711365 
	C71.400162,320.510956 72.464233,319.566956 73.658234,319.355072 
	C78.206383,318.547974 80.990829,315.993225 82.553040,311.635132 
	C85.738831,312.059601 88.507561,312.708191 91.280304,312.725739 
	C105.493134,312.815704 119.706985,312.743256 134.051849,312.979980 
	C134.458939,313.486389 134.734650,313.740417 135.058609,314.350403 
	C134.066055,318.482239 133.025253,322.258118 131.778824,326.233643 
	C131.365875,327.151611 131.158569,327.869904 130.951263,328.588226 
z"/>
<path fill="#1485A4" opacity="1.000000" stroke="none" 
	d="
M311.069580,89.619919 
	C310.660004,89.984192 310.229950,89.992378 309.300385,89.700165 
	C305.603729,86.363518 302.914276,81.888885 299.118378,80.549171 
	C285.375153,75.698723 271.012390,78.226089 256.858185,78.650574 
	C256.806152,78.652130 256.762970,78.949127 256.365967,80.283485 
	C260.243378,80.755516 263.975464,81.209854 268.152649,81.718376 
	C267.462494,83.149704 267.128571,83.871536 266.769592,84.580704 
	C265.998383,86.104279 265.214264,87.621315 264.435455,89.141037 
	C266.230103,89.763756 268.004761,90.844002 269.823151,90.923485 
	C275.293945,91.162621 280.786377,90.887711 286.260162,91.090141 
	C287.869019,91.149643 289.443787,92.131035 290.573090,92.789078 
	C270.520691,92.897812 250.929260,92.952667 231.338120,92.899384 
	C220.225525,92.869164 209.113419,92.661713 198.055206,92.303833 
	C198.410294,91.712135 198.711258,91.350700 199.480103,90.987450 
	C212.193512,90.670532 224.438309,90.322533 236.684814,90.052246 
	C244.506821,89.879601 247.331100,87.284485 248.607285,78.059067 
	C233.338181,78.059067 218.177521,78.059067 202.547333,78.045097 
	C179.668701,78.021469 157.259552,77.978645 134.850494,78.012550 
	C116.594383,78.040176 98.338409,78.159630 80.082375,78.238365 
	C80.082375,78.238365 80.035652,77.884880 80.018524,77.709000 
	C82.097824,77.197586 84.194046,76.570374 86.290733,76.568771 
	C153.728928,76.517357 221.167221,76.572357 288.605316,76.476646 
	C298.707275,76.462311 306.216034,80.351852 311.069580,89.619919 
z"/>
<path fill="#1793B9" opacity="1.000000" stroke="none" 
	d="
M82.137825,311.568237 
	C80.990829,315.993225 78.206383,318.547974 73.658234,319.355072 
	C72.464233,319.566956 71.400162,320.510956 70.182114,321.437744 
	C68.416367,319.709503 66.744934,317.662292 65.002625,314.942810 
	C64.356796,312.877533 63.781853,311.484589 63.206909,310.091614 
	C63.110081,309.641663 63.013256,309.191711 62.942825,308.396454 
	C62.995697,306.385895 63.137020,304.713043 63.026840,303.056885 
	C62.712330,298.329254 63.286915,294.454071 68.285515,291.820129 
	C71.239227,290.263733 73.217010,286.855225 76.402336,283.460388 
	C76.931229,291.666199 77.381531,298.652679 78.282333,306.157288 
	C79.867821,308.306335 81.002823,309.937286 82.137825,311.568237 
z"/>
<path fill="#2D6FBA" opacity="1.000000" stroke="none" 
	d="
M131.409622,328.713989 
	C131.158569,327.869904 131.365875,327.151611 132.213470,326.233215 
	C144.562454,326.365387 156.271149,326.697632 168.318192,327.268463 
	C178.765640,327.635559 188.874771,327.764038 199.453171,327.910217 
	C217.623459,327.912231 235.324448,327.896637 253.025452,327.881012 
	C265.684692,327.867981 278.343933,327.854980 291.484375,327.986725 
	C291.965546,328.131470 291.925110,328.510193 291.925110,328.510193 
	C290.165802,328.804626 288.406799,329.353882 286.647095,329.356110 
	C245.534042,329.408234 204.420822,329.438721 163.307785,329.379028 
	C152.827621,329.363831 142.347900,329.028137 131.409622,328.713989 
z"/>
<path fill="#2D6FBA" opacity="1.000000" stroke="none" 
	d="
M313.378845,309.737793 
	C313.014404,293.266632 312.967651,276.620361 313.099915,259.479767 
	C313.278961,258.985413 313.664948,258.942749 313.664948,258.942749 
	C313.664948,258.942749 314.052917,258.959564 314.052917,258.959564 
	C314.281403,262.587585 314.680023,266.214355 314.706879,269.843872 
	C314.790680,281.166718 314.781708,292.490967 314.685181,303.813660 
	C314.668823,305.732697 314.041504,307.646515 313.378845,309.737793 
z"/>
<path fill="#446ADB" opacity="1.000000" stroke="none" 
	d="
M292.311554,328.585907 
	C291.925110,328.510193 291.965546,328.131470 291.946045,327.940094 
	C292.813019,327.337158 293.699524,326.925629 294.786713,326.894531 
	C294.939697,327.524567 294.913818,327.776398 294.909790,328.030457 
	C294.172516,328.240845 293.435272,328.451233 292.311554,328.585907 
z"/>
<path fill="#118FA6" opacity="1.000000" stroke="none" 
	d="
M63.053337,310.326050 
	C63.781853,311.484589 64.356796,312.877533 64.970520,314.598999 
	C64.306122,313.471863 63.602943,312.016174 63.053337,310.326050 
z"/>
<path fill="#446ADB" opacity="1.000000" stroke="none" 
	d="
M314.218536,258.659607 
	C314.052917,258.959564 313.664948,258.942749 313.664948,258.942749 
	C313.664948,258.942749 313.278961,258.985413 313.082550,259.014160 
	C312.886139,259.042938 312.438965,259.010254 312.255676,258.715454 
	C312.357391,257.946198 312.642395,257.471710 312.927399,256.997223 
	C313.200073,257.021820 313.472931,257.044434 313.946594,257.054688 
	C314.226227,257.482727 314.305206,257.921204 314.218536,258.659607 
z"/>
<path fill="#118FA6" opacity="1.000000" stroke="none" 
	d="
M71.365845,323.180969 
	C71.834587,323.249084 72.336327,323.579651 72.923340,324.119659 
	C72.472023,324.033875 71.935432,323.738617 71.365845,323.180969 
z"/>
<path fill="#2D6FBA" opacity="1.000000" stroke="none" 
	d="
M295.148743,328.179077 
	C294.913818,327.776398 294.939697,327.524567 295.019165,327.083069 
	C295.482697,326.918732 295.914490,326.946289 296.662048,327.040222 
	C296.447815,327.513580 295.917755,327.920624 295.148743,328.179077 
z"/>
<path fill="#17243C" opacity="1.000000" stroke="none" 
	d="
M281.998749,286.953827 
	C279.294006,286.904877 276.589233,286.855927 273.137878,286.671051 
	C266.960419,286.050659 262.469055,286.336029 259.206421,292.292908 
	C255.221680,299.568207 248.118591,302.664520 239.650711,303.156006 
	C232.150314,303.591339 226.715164,299.711578 220.922028,295.642761 
	C219.626282,293.525055 218.606735,291.596039 217.226990,289.973267 
	C216.180496,288.742401 214.740112,287.154541 213.361252,287.034760 
	C209.940872,286.737518 206.455353,287.190033 202.539581,287.231964 
	C196.940125,287.065948 191.790894,287.145477 186.655807,286.912964 
	C181.897766,286.697540 178.889847,283.178223 178.975052,278.362274 
	C179.062042,273.445251 181.539139,271.045349 186.917206,270.980011 
	C194.384186,270.889313 201.861298,270.736389 209.317825,271.026947 
	C213.605011,271.194000 216.343201,269.963440 217.512573,265.431274 
	C219.094070,263.967346 220.321701,262.612946 221.612610,261.321777 
	C233.863342,249.068481 253.648102,252.332672 261.461029,267.830963 
	C261.999390,268.898895 263.162964,269.651611 264.485474,270.678955 
	C269.566833,270.851440 274.218994,271.185181 278.824524,270.859467 
	C283.487579,270.529633 286.855713,272.114014 289.256500,276.013611 
	C289.154602,277.405853 289.052673,278.798096 288.755859,280.784180 
	C288.380768,281.915009 288.200592,282.451996 288.020386,282.988953 
	C287.115997,283.784729 286.211609,284.580475 284.790070,285.608429 
	C283.514862,286.211700 282.756805,286.582764 281.998749,286.953827 
M227.809448,267.308716 
	C223.509689,272.508179 221.546448,278.084137 224.489578,284.735870 
	C227.163284,290.778717 231.771347,294.139496 238.192520,294.744354 
	C245.194366,295.403870 252.096146,290.703674 254.504288,284.097931 
	C256.870453,277.607300 254.215408,269.700256 248.607880,265.419312 
	C243.996964,261.899170 233.182983,261.404388 227.809448,267.308716 
z"/>
<path fill="#446ADB" opacity="1.000000" stroke="none" 
	d="
M221.043396,295.963104 
	C226.715164,299.711578 232.150314,303.591339 239.650711,303.156006 
	C248.118591,302.664520 255.221680,299.568207 259.206421,292.292908 
	C262.469055,286.336029 266.960419,286.050659 272.693359,286.753601 
	C272.935333,287.126740 272.803375,287.292572 272.825378,287.434509 
	C275.250458,303.085052 262.732758,311.523468 255.827789,322.668579 
	C254.896683,324.171448 253.968582,325.676147 253.032272,327.530518 
	C235.324448,327.896637 217.623459,327.912231 199.471893,327.559265 
	C199.721039,325.922729 200.246994,324.512085 201.150894,323.411926 
	C204.822464,318.943359 208.880875,314.767365 212.277069,310.105011 
	C215.533493,305.634583 218.147232,300.695984 221.043396,295.963104 
z"/>
<path fill="#456EE2" opacity="1.000000" stroke="none" 
	d="
M289.606720,275.997742 
	C286.855713,272.114014 283.487579,270.529633 278.824524,270.859467 
	C274.218994,271.185181 269.566833,270.851440 264.485168,270.330566 
	C264.680786,268.390472 265.261475,266.893951 265.983063,265.468781 
	C269.247894,259.020538 273.307495,252.856384 273.497040,245.144592 
	C279.950653,245.413864 285.968079,245.931030 291.982819,245.901062 
	C293.709259,245.892456 295.427856,244.303543 297.176147,243.313416 
	C297.202271,243.187607 297.409363,243.035553 297.409363,243.035553 
	C297.948303,241.299133 298.868530,239.582687 298.960815,237.822845 
	C299.380066,229.827866 299.566071,221.820648 300.257141,213.352966 
	C304.461273,210.240875 308.244263,207.593658 312.027252,204.946442 
	C312.335571,221.984085 312.643890,239.021713 312.939819,256.528290 
	C312.642395,257.471710 312.357391,257.946198 312.031921,258.701447 
	C310.542938,259.928284 309.012726,260.770813 307.660004,261.838348 
	C301.730927,266.517303 295.853241,271.261383 289.606720,275.997742 
z"/>
<path fill="#446ADB" opacity="1.000000" stroke="none" 
	d="
M282.216095,287.181427 
	C282.756805,286.582764 283.514862,286.211700 284.599548,285.846497 
	C284.095276,286.371277 283.264343,286.890137 282.216095,287.181427 
z"/>
<path fill="#446ADB" opacity="1.000000" stroke="none" 
	d="
M288.287415,282.953339 
	C288.200592,282.451996 288.380768,281.915009 288.792297,281.202271 
	C288.867218,281.656921 288.710815,282.287292 288.287415,282.953339 
z"/>
<path fill="#112035" opacity="1.000000" stroke="none" 
	d="
M82.553040,311.635132 
	C81.002823,309.937286 79.867821,308.306335 78.606781,306.344788 
	C78.570000,303.853760 78.737122,301.693329 78.737198,299.532867 
	C78.739586,234.374008 78.748672,169.215118 78.666588,104.056343 
	C78.660530,99.248398 79.101364,95.010979 85.078308,92.887070 
	C89.822754,92.743668 93.798187,92.773071 97.773216,92.744926 
	C113.166801,92.635963 128.560272,92.508659 144.379578,92.555695 
	C147.218216,92.615204 149.631073,92.507217 152.495667,92.510742 
	C167.259644,92.523865 181.571915,92.425484 196.217148,92.488907 
	C197.033783,92.611839 197.517426,92.572968 198.001083,92.534088 
	C209.113419,92.661713 220.225525,92.869164 231.338120,92.899384 
	C250.929260,92.952667 270.520691,92.897812 290.898254,92.885269 
	C292.134064,92.895279 292.583618,92.908257 293.217834,93.147255 
	C293.939453,93.560966 294.476440,93.748657 295.166016,94.191711 
	C295.929260,94.957916 296.539856,95.468765 297.150452,95.979614 
	C297.172058,144.690277 297.193695,193.400940 297.312347,242.573578 
	C297.409363,243.035553 297.202271,243.187607 296.698608,243.253326 
	C260.701813,243.332062 225.208435,243.296890 189.715729,243.432404 
	C186.149902,243.446014 182.588013,244.493744 178.689209,245.045776 
	C177.920624,245.132401 177.487152,245.234787 176.703339,245.260696 
	C173.969376,246.806046 171.585754,248.427887 168.985382,250.218521 
	C168.530243,250.664368 168.291855,250.941406 167.739105,251.316666 
	C166.093521,253.965118 164.762299,256.515350 163.317947,259.384033 
	C163.181122,260.150421 163.157410,260.598267 162.884338,261.373566 
	C162.432968,263.834076 162.064972,265.966492 162.056335,268.100372 
	C162.005936,280.557281 162.056046,293.014587 162.038376,305.471710 
	C162.029221,311.930420 161.853561,311.998993 155.227341,312.116119 
	C148.123672,312.241669 141.022659,312.517395 133.920486,312.727570 
	C119.706985,312.743256 105.493134,312.815704 91.280304,312.725739 
	C88.507561,312.708191 85.738831,312.059601 82.553040,311.635132 
M137.127304,244.052032 
	C125.870010,244.204895 114.609062,244.234146 103.357056,244.566147 
	C98.232613,244.717377 95.160614,248.015015 95.092018,253.296967 
	C94.945595,264.571198 94.969025,275.849762 95.130142,287.123566 
	C95.153557,288.762146 96.319016,290.384399 97.096390,292.732208 
	C99.066422,293.781769 101.010902,295.680450 103.010696,295.740631 
	C114.498566,296.086243 126.005768,296.241211 137.493484,295.950378 
	C143.259430,295.804413 146.753967,292.093842 146.823639,286.850159 
	C146.969742,275.852356 146.973328,264.849365 146.804672,253.852036 
	C146.717010,248.136276 143.923904,245.379486 137.127304,244.052032 
M239.728073,160.779053 
	C250.667313,160.843033 261.607086,160.998138 272.545532,160.931091 
	C277.717682,160.899399 281.006500,157.462952 281.077362,152.018936 
	C281.221954,140.912247 281.110168,129.802444 281.189941,118.694542 
	C281.214752,115.240105 280.159149,112.540604 276.522766,110.320213 
	C274.975769,109.920807 273.431854,109.189659 271.881317,109.175453 
	C261.254303,109.078140 250.625626,109.085136 239.998093,109.153610 
	C234.014206,109.192154 229.598236,112.834755 229.415970,118.769554 
	C229.079742,129.717728 229.037903,140.695129 229.453262,151.638336 
	C229.688202,157.828186 233.536331,160.893829 239.728073,160.779053 
M231.048859,223.715851 
	C233.887466,225.417480 236.653824,228.424774 239.577667,228.586609 
	C250.210449,229.175186 260.899445,228.975433 271.560181,228.745331 
	C277.915710,228.608139 281.105835,225.030121 281.167633,218.486664 
	C281.263672,208.321762 281.247406,198.154785 281.169647,187.989532 
	C281.103180,179.298767 277.862823,176.518219 268.088196,177.098022 
	C259.132660,177.065353 250.177109,177.008499 241.221573,177.007065 
	C232.889923,177.005737 229.388290,180.365570 229.298294,188.669144 
	C229.195847,198.122162 229.170792,207.578979 229.348053,217.029724 
	C229.385574,219.030334 230.443756,221.011810 231.048859,223.715851 
M165.440826,111.526398 
	C164.756042,112.689255 164.071259,113.852119 163.122650,115.658485 
	C163.104736,116.118492 163.086838,116.578506 162.570633,117.692688 
	C162.414566,128.045166 162.210785,138.397354 162.149170,148.750397 
	C162.138855,150.484863 162.744904,152.222992 163.022903,154.702820 
	C163.823410,158.988968 166.976196,160.628677 170.765671,160.855087 
	C175.150360,161.117065 179.570419,160.787369 184.895004,160.932541 
	C191.037857,160.966293 197.221008,160.570129 203.313492,161.141190 
	C211.167587,161.877365 214.571396,156.415558 214.691467,149.965225 
	C214.870697,140.337387 214.904892,130.699860 214.645874,121.076012 
	C214.585037,118.815849 213.104614,116.593895 212.302399,113.775337 
	C211.823044,113.190857 211.343704,112.606377 210.588303,111.366234 
	C207.721481,110.712082 204.854645,110.057930 201.130096,109.202972 
	C199.087952,109.288452 197.045807,109.373932 194.096954,109.204781 
	C186.861038,109.168007 179.623001,109.027634 172.390823,109.174576 
	C170.783325,109.207230 169.196411,110.252197 167.030533,110.867897 
	C166.700211,111.048904 166.369873,111.229904 165.440826,111.526398 
M213.457977,221.524094 
	C213.519180,220.687622 213.580383,219.851151 213.918777,218.111862 
	C213.817474,207.403549 213.716187,196.695236 213.848373,185.371765 
	C213.529388,184.599655 213.210388,183.827560 212.913849,182.333771 
	C210.535156,180.589035 208.363464,177.906265 205.728104,177.324722 
	C202.001007,176.502289 197.931519,177.231567 193.090103,177.085831 
	C185.782043,177.059143 178.473984,177.031631 171.165924,177.006073 
	C166.482040,176.989685 163.246658,179.420105 162.883270,183.882248 
	C162.198486,192.291061 162.127213,200.759933 162.073914,209.205582 
	C162.049133,213.134659 162.662903,217.067780 162.874939,221.737320 
	C164.730804,223.550827 166.586670,225.364334 168.925308,227.860809 
	C169.668915,228.173264 170.410736,228.753067 171.156403,228.758041 
	C182.190277,228.831711 193.225128,228.876419 204.258286,228.772614 
	C205.380585,228.762070 206.493439,227.750076 208.298080,227.300659 
	C209.862595,225.530579 211.427109,223.760498 213.457977,221.524094 
M113.532471,109.139252 
	C110.868828,109.142441 108.203552,109.086769 105.541847,109.160278 
	C98.641739,109.350868 95.078766,112.862450 95.033722,119.671234 
	C94.964348,130.158905 94.952522,140.647690 95.022774,151.135284 
	C95.066299,157.631882 98.348625,160.917633 104.817413,160.962982 
	C115.138557,161.035355 125.460640,161.014740 135.782150,160.979965 
	C143.366837,160.954422 146.773926,157.653915 146.845993,150.083649 
	C146.941071,140.095856 146.939560,130.106033 146.860764,120.118019 
	C146.807312,113.345253 142.743881,109.264519 135.997528,109.171707 
	C128.840271,109.073242 121.680710,109.143166 113.532471,109.139252 
M96.684013,224.557144 
	C99.364738,225.981796 101.995674,228.512207 104.734993,228.635559 
	C115.363495,229.114166 126.029434,228.976212 136.675385,228.764236 
	C142.233185,228.653549 146.651917,224.695343 146.762970,219.597244 
	C147.005737,208.453339 147.021820,197.295898 146.754700,186.153000 
	C146.614792,180.317291 142.892014,177.083084 137.032089,177.042053 
	C126.049492,176.965164 115.065292,176.957199 104.083038,177.058578 
	C98.868294,177.106720 95.178345,180.543030 95.105545,185.700226 
	C94.943489,197.179993 95.030617,208.664078 95.124725,220.145508 
	C95.134979,221.396637 95.855362,222.641953 96.684013,224.557144 
z"/>
<path fill="#0DABAF" opacity="1.000000" stroke="none" 
	d="
M195.884171,92.327103 
	C181.571915,92.425484 167.259644,92.523865 152.314758,92.226242 
	C149.106018,92.016228 146.529907,92.202209 143.953781,92.388191 
	C128.560272,92.508659 113.166801,92.635963 97.773216,92.744926 
	C93.798187,92.773071 89.822754,92.743668 85.371391,92.681747 
	C80.396698,90.915497 78.670067,94.275871 77.589294,97.294434 
	C76.496391,100.346893 76.087173,103.789772 76.079811,107.063202 
	C75.985458,149.027420 75.851791,190.993225 76.182388,232.955048 
	C76.236290,239.796097 72.235703,243.612274 68.455910,247.786148 
	C66.364571,250.095520 64.166473,249.287262 64.018669,245.725708 
	C63.963470,244.395599 63.993565,243.061722 63.993538,241.729568 
	C63.992733,196.434631 64.342346,151.135284 63.772697,105.847511 
	C63.609264,92.854179 68.201393,84.175018 79.866196,78.487900 
	C98.338409,78.159630 116.594383,78.040176 134.850494,78.012550 
	C157.259552,77.978645 179.668701,78.021469 202.474762,78.397728 
	C201.576355,82.516045 200.281006,86.267769 198.659424,90.031174 
	C197.516846,90.804268 196.700516,91.565689 195.884171,92.327103 
z"/>
<path fill="#3A7AD8" opacity="1.000000" stroke="none" 
	d="
M312.029358,204.483368 
	C308.244263,207.593658 304.461273,210.240875 300.332581,212.942108 
	C299.983276,196.007401 300.038086,179.018265 299.925964,162.030243 
	C299.903931,158.688080 300.593689,156.581192 304.101501,155.159576 
	C306.668793,154.119125 308.600281,151.509918 312.031433,148.551056 
	C312.031433,167.722275 312.031433,185.871292 312.029358,204.483368 
z"/>
<path fill="#1E93C6" opacity="1.000000" stroke="none" 
	d="
M297.535339,95.974655 
	C296.539856,95.468765 295.929260,94.957916 295.133423,93.927185 
	C294.309814,93.245277 293.671478,93.083252 293.033142,92.921234 
	C292.583618,92.908257 292.134064,92.895279 291.359375,92.786118 
	C289.443787,92.131035 287.869019,91.149643 286.260162,91.090141 
	C280.786377,90.887711 275.293945,91.162621 269.823151,90.923485 
	C268.004761,90.844002 266.230103,89.763756 264.435455,89.141037 
	C265.214264,87.621315 265.998383,86.104279 266.769592,84.580704 
	C267.128571,83.871536 267.462494,83.149704 268.152649,81.718376 
	C263.975464,81.209854 260.243378,80.755516 256.365967,80.283485 
	C256.762970,78.949127 256.806152,78.652130 256.858185,78.650574 
	C271.012390,78.226089 285.375153,75.698723 299.118378,80.549171 
	C302.914276,81.888885 305.603729,86.363518 308.977966,89.698868 
	C306.621216,94.267014 302.404327,95.369682 297.535339,95.974655 
z"/>
<path fill="#2E83D2" opacity="1.000000" stroke="none" 
	d="
M168.053452,251.218445 
	C168.291855,250.941406 168.530243,250.664368 169.337814,250.201752 
	C172.289230,248.456512 174.671463,246.896851 177.053680,245.337189 
	C177.487152,245.234787 177.920624,245.132401 179.018173,245.292465 
	C194.792557,245.699005 209.902878,245.843094 224.954376,246.332092 
	C221.230637,252.527695 216.379822,257.894623 217.188080,265.570160 
	C216.343201,269.963440 213.605011,271.194000 209.317825,271.026947 
	C201.861298,270.736389 194.384186,270.889313 186.917206,270.980011 
	C181.539139,271.045349 179.062042,273.445251 178.975052,278.362274 
	C178.889847,283.178223 181.897766,286.697540 186.655807,286.912964 
	C191.790894,287.145477 196.940125,287.065948 202.536377,287.584778 
	C202.574158,289.265228 202.505341,290.825714 201.691162,291.650085 
	C190.242020,303.242584 182.640564,318.509155 167.979858,327.029877 
	C156.271149,326.697632 144.562454,326.365387 132.419098,326.033569 
	C133.025253,322.258118 134.066055,318.482239 135.526077,314.350739 
	C143.251678,313.994995 150.564240,313.813385 157.862091,314.062683 
	C162.254318,314.212738 164.156494,312.925842 164.077545,308.171814 
	C163.840500,293.895172 164.018143,279.611908 163.957138,265.331543 
	C163.951035,263.901947 163.420731,262.474548 163.133698,261.046143 
	C163.157410,260.598267 163.181122,260.150421 163.628082,259.289978 
	C165.385391,256.324402 166.719421,253.771423 168.053452,251.218445 
z"/>
<path fill="#2D6FBA" opacity="1.000000" stroke="none" 
	d="
M162.884338,261.373566 
	C163.420731,262.474548 163.951035,263.901947 163.957138,265.331543 
	C164.018143,279.611908 163.840500,293.895172 164.077545,308.171814 
	C164.156494,312.925842 162.254318,314.212738 157.862091,314.062683 
	C150.564240,313.813385 143.251678,313.994995 135.477844,313.994751 
	C134.734650,313.740417 134.458939,313.486389 134.051849,312.979980 
	C141.022659,312.517395 148.123672,312.241669 155.227341,312.116119 
	C161.853561,311.998993 162.029221,311.930420 162.038376,305.471710 
	C162.056046,293.014587 162.005936,280.557281 162.056335,268.100372 
	C162.064972,265.966492 162.432968,263.834076 162.884338,261.373566 
z"/>
<path fill="#11A1BA" opacity="1.000000" stroke="none" 
	d="
M198.985657,90.019493 
	C200.281006,86.267769 201.576355,82.516045 202.944275,78.411697 
	C218.177521,78.059067 233.338181,78.059067 248.607285,78.059067 
	C247.331100,87.284485 244.506821,89.879601 236.684814,90.052246 
	C224.438309,90.322533 212.193512,90.670532 199.472778,90.745094 
	C198.997574,90.504562 198.985672,90.019493 198.985657,90.019493 
z"/>
<path fill="#118FA6" opacity="1.000000" stroke="none" 
	d="
M198.659424,90.031174 
	C198.985672,90.019493 198.997574,90.504562 199.004883,90.746918 
	C198.711258,91.350700 198.410294,91.712135 198.055206,92.303833 
	C197.517426,92.572968 197.033783,92.611839 196.217148,92.488907 
	C196.700516,91.565689 197.516846,90.804268 198.659424,90.031174 
z"/>
<path fill="#3976D2" opacity="1.000000" stroke="none" 
	d="
M168.318192,327.268463 
	C182.640564,318.509155 190.242020,303.242584 201.691162,291.650085 
	C202.505341,290.825714 202.574158,289.265228 202.992783,287.694214 
	C206.455353,287.190033 209.940872,286.737518 213.361252,287.034760 
	C214.740112,287.154541 216.180496,288.742401 217.226990,289.973267 
	C218.606735,291.596039 219.626282,293.525055 220.922043,295.642761 
	C218.147232,300.695984 215.533493,305.634583 212.277069,310.105011 
	C208.880875,314.767365 204.822464,318.943359 201.150894,323.411926 
	C200.246994,324.512085 199.721039,325.922729 199.002609,327.541595 
	C188.874771,327.764038 178.765640,327.635559 168.318192,327.268463 
z"/>
<path fill="#F3F3F4" opacity="1.000000" stroke="none" 
	d="
M228.096558,267.078613 
	C233.182983,261.404388 243.996964,261.899170 248.607880,265.419312 
	C254.215408,269.700256 256.870453,277.607300 254.504288,284.097931 
	C252.096146,290.703674 245.194366,295.403870 238.192520,294.744354 
	C231.771347,294.139496 227.163284,290.778717 224.489578,284.735870 
	C221.546448,278.084137 223.509689,272.508179 228.096558,267.078613 
z"/>
<path fill="#3875D0" opacity="1.000000" stroke="none" 
	d="
M217.512573,265.431274 
	C216.379822,257.894623 221.230637,252.527695 225.373383,246.309662 
	C227.645355,245.646698 229.438965,245.099228 231.233749,245.095444 
	C245.175659,245.066055 259.117798,245.141464 273.059845,245.184479 
	C273.307495,252.856384 269.247894,259.020538 265.983063,265.468781 
	C265.261475,266.893951 264.680786,268.390472 264.035522,270.202515 
	C263.162964,269.651611 261.999390,268.898895 261.461029,267.830963 
	C253.648102,252.332672 233.863342,249.068481 221.612610,261.321777 
	C220.321701,262.612946 219.094070,263.967346 217.512573,265.431274 
z"/>
<path fill="#2D6FBA" opacity="1.000000" stroke="none" 
	d="
M273.497040,245.144592 
	C259.117798,245.141464 245.175659,245.066055 231.233749,245.095444 
	C229.438965,245.099228 227.645355,245.646698 225.432205,245.964752 
	C209.902878,245.843094 194.792557,245.699005 179.353271,245.308228 
	C182.588013,244.493744 186.149902,243.446014 189.715729,243.432404 
	C225.208435,243.296890 260.701813,243.332062 296.672516,243.379120 
	C295.427856,244.303543 293.709259,245.892456 291.982819,245.901062 
	C285.968079,245.931030 279.950653,245.413864 273.497040,245.144592 
z"/>
<path fill="#0DAAAD" opacity="1.000000" stroke="none" 
	d="
M114.027313,109.139397 
	C121.680710,109.143166 128.840271,109.073242 135.997528,109.171707 
	C142.743881,109.264519 146.807312,113.345253 146.860764,120.118019 
	C146.939560,130.106033 146.941071,140.095856 146.845993,150.083649 
	C146.773926,157.653915 143.366837,160.954422 135.782150,160.979965 
	C125.460640,161.014740 115.138557,161.035355 104.817413,160.962982 
	C98.348625,160.917633 95.066299,157.631882 95.022774,151.135284 
	C94.952522,140.647690 94.964348,130.158905 95.033722,119.671234 
	C95.078766,112.862450 98.641739,109.350868 105.541847,109.160278 
	C108.203552,109.086769 110.868828,109.142441 114.027313,109.139397 
z"/>
<path fill="#119EB7" opacity="1.000000" stroke="none" 
	d="
M96.465195,224.223541 
	C95.855362,222.641953 95.134979,221.396637 95.124725,220.145508 
	C95.030617,208.664078 94.943489,197.179993 95.105545,185.700226 
	C95.178345,180.543030 98.868294,177.106720 104.083038,177.058578 
	C115.065292,176.957199 126.049492,176.965164 137.032089,177.042053 
	C142.892014,177.083084 146.614792,180.317291 146.754700,186.153000 
	C147.021820,197.295898 147.005737,208.453339 146.762970,219.597244 
	C146.651917,224.695343 142.233185,228.653549 136.675385,228.764236 
	C126.029434,228.976212 115.363495,229.114166 104.734993,228.635559 
	C101.995674,228.512207 99.364738,225.981796 96.465195,224.223541 
z"/>
<path fill="#1E91C3" opacity="1.000000" stroke="none" 
	d="
M213.614883,185.986923 
	C213.716187,196.695236 213.817474,207.403549 213.515442,218.651810 
	C213.071930,220.124649 213.031769,221.057526 212.991608,221.990417 
	C211.427109,223.760498 209.862595,225.530579 207.435211,227.198517 
	C193.862411,227.123535 181.152466,227.150681 168.442535,227.177826 
	C166.586670,225.364334 164.730804,223.550827 163.186081,221.048203 
	C163.238876,213.668564 164.633728,207.792130 171.093933,204.216019 
	C171.867355,203.787888 172.146637,202.544357 172.795181,201.801147 
	C177.875397,195.979309 183.006699,190.202057 188.085388,184.378922 
	C190.107620,182.060257 192.036819,179.660461 194.008392,177.297607 
	C197.931519,177.231567 202.001007,176.502289 205.728104,177.324722 
	C208.363464,177.906265 210.535156,180.589035 212.710419,182.902756 
	C212.876297,184.310135 213.245590,185.148529 213.614883,185.986923 
z"/>
<path fill="#11A0B9" opacity="1.000000" stroke="none" 
	d="
M195.003662,109.459412 
	C197.045807,109.373932 199.087952,109.288452 201.713165,109.611343 
	C205.152283,110.687111 208.008316,111.354507 210.864349,112.021896 
	C211.343704,112.606377 211.823044,113.190857 212.215363,114.579071 
	C212.087158,118.213943 211.810425,121.066261 212.062607,123.871017 
	C212.401138,127.635956 210.890030,130.302170 207.970337,132.380753 
	C197.564880,139.788635 191.964645,151.262756 183.975113,160.714554 
	C179.570419,160.787369 175.150360,161.117065 170.765671,160.855087 
	C166.976196,160.628677 163.823410,158.988968 163.288696,154.002472 
	C163.703171,142.950531 163.897934,132.599182 163.955414,122.247055 
	C163.965042,120.512566 163.379486,118.774773 163.068939,117.038513 
	C163.086838,116.578506 163.104736,116.118492 163.551239,115.260887 
	C164.666382,113.712494 165.352966,112.561699 166.039536,111.410904 
	C166.369873,111.229904 166.700211,111.048904 167.817780,110.900757 
	C175.975204,110.955040 183.346786,111.057915 190.714279,110.927765 
	C192.152267,110.902367 193.574280,109.972244 195.003662,109.459412 
z"/>
<path fill="#3978D4" opacity="1.000000" stroke="none" 
	d="
M269.005676,177.310867 
	C277.862823,176.518219 281.103180,179.298767 281.169647,187.989532 
	C281.247406,198.154785 281.263672,208.321762 281.167633,218.486664 
	C281.105835,225.030121 277.915710,228.608139 271.560181,228.745331 
	C260.899445,228.975433 250.210449,229.175186 239.577667,228.586609 
	C236.653824,228.424774 233.887466,225.417480 231.381897,223.300842 
	C233.983673,221.241608 236.694366,219.969986 238.447266,217.890854 
	C247.729172,206.881485 256.851196,195.733490 265.818634,184.466400 
	C267.392792,182.488556 267.968750,179.716263 269.005676,177.310867 
z"/>
<path fill="#1E8FC2" opacity="1.000000" stroke="none" 
	d="
M238.937744,160.540558 
	C233.536331,160.893829 229.688202,157.828186 229.453262,151.638336 
	C229.037903,140.695129 229.079742,129.717728 229.415970,118.769554 
	C229.598236,112.834755 234.014206,109.192154 239.998093,109.153610 
	C250.625626,109.085136 261.254303,109.078140 271.881317,109.175453 
	C273.431854,109.189659 274.975769,109.920807 276.372681,110.726479 
	C275.425171,111.699104 274.368164,112.095787 273.870026,112.857819 
	C268.257996,121.442947 262.657471,130.037582 257.206360,138.725327 
	C252.954575,145.501602 248.627197,152.135483 241.826462,156.756668 
	C240.581390,157.602707 239.886566,159.258530 238.937744,160.540558 
z"/>
<path fill="#1797BF" opacity="1.000000" stroke="none" 
	d="
M96.956009,292.014221 
	C96.319016,290.384399 95.153557,288.762146 95.130142,287.123566 
	C94.969025,275.849762 94.945595,264.571198 95.092018,253.296967 
	C95.160614,248.015015 98.232613,244.717377 103.357056,244.566147 
	C114.609062,244.234146 125.870010,244.204895 137.674988,244.502014 
	C141.608582,248.758347 138.430191,251.454239 136.378586,253.982437 
	C133.459305,257.579865 129.852829,260.620178 126.938622,264.221100 
	C120.477547,272.204773 114.311211,280.426208 107.929176,288.474945 
	C105.118576,292.019531 102.131142,295.554321 96.956009,292.014221 
z"/>
<path fill="#1D8FC1" opacity="1.000000" stroke="none" 
	d="
M97.026199,292.373230 
	C102.131142,295.554321 105.118576,292.019531 107.929176,288.474945 
	C114.311211,280.426208 120.477547,272.204773 126.938622,264.221100 
	C129.852829,260.620178 133.459305,257.579865 136.378586,253.982437 
	C138.430191,251.454239 141.608582,248.758347 138.119492,244.658997 
	C143.923904,245.379486 146.717010,248.136276 146.804672,253.852036 
	C146.973328,264.849365 146.969742,275.852356 146.823639,286.850159 
	C146.753967,292.093842 143.259430,295.804413 137.493484,295.950378 
	C126.005768,296.241211 114.498566,296.086243 103.010696,295.740631 
	C101.010902,295.680450 99.066422,293.781769 97.026199,292.373230 
z"/>
<path fill="#2D82D0" opacity="1.000000" stroke="none" 
	d="
M239.332916,160.659790 
	C239.886566,159.258530 240.581390,157.602707 241.826462,156.756668 
	C248.627197,152.135483 252.954575,145.501602 257.206360,138.725327 
	C262.657471,130.037582 268.257996,121.442947 273.870026,112.857819 
	C274.368164,112.095787 275.425171,111.699104 276.558899,111.063881 
	C280.159149,112.540604 281.214752,115.240105 281.189941,118.694542 
	C281.110168,129.802444 281.221954,140.912247 281.077362,152.018936 
	C281.006500,157.462952 277.717682,160.899399 272.545532,160.931091 
	C261.607086,160.998138 250.667313,160.843033 239.332916,160.659790 
z"/>
<path fill="#2D80CE" opacity="1.000000" stroke="none" 
	d="
M268.546936,177.204437 
	C267.968750,179.716263 267.392792,182.488556 265.818634,184.466400 
	C256.851196,195.733490 247.729172,206.881485 238.447266,217.890854 
	C236.694366,219.969986 233.983673,221.241608 231.373291,222.943970 
	C230.443756,221.011810 229.385574,219.030334 229.348053,217.029724 
	C229.170792,207.578979 229.195847,198.122162 229.298294,188.669144 
	C229.388290,180.365570 232.889923,177.005737 241.221573,177.007065 
	C250.177109,177.008499 259.132660,177.065353 268.546936,177.204437 
z"/>
<path fill="#168FB5" opacity="1.000000" stroke="none" 
	d="
M184.435059,160.823547 
	C191.964645,151.262756 197.564880,139.788635 207.970337,132.380753 
	C210.890030,130.302170 212.401138,127.635956 212.062607,123.871017 
	C211.810425,121.066261 212.087158,118.213943 212.202789,114.868591 
	C213.104614,116.593895 214.585037,118.815849 214.645874,121.076012 
	C214.904892,130.699860 214.870697,140.337387 214.691467,149.965225 
	C214.571396,156.415558 211.167587,161.877365 203.313492,161.141190 
	C197.221008,160.570129 191.037857,160.966293 184.435059,160.823547 
z"/>
<path fill="#1792BA" opacity="1.000000" stroke="none" 
	d="
M193.549255,177.191711 
	C192.036819,179.660461 190.107620,182.060257 188.085388,184.378922 
	C183.006699,190.202057 177.875397,195.979309 172.795181,201.801147 
	C172.146637,202.544357 171.867355,203.787888 171.093933,204.216019 
	C164.633728,207.792130 163.238876,213.668564 163.242218,220.679077 
	C162.662903,217.067780 162.049133,213.134659 162.073914,209.205582 
	C162.127213,200.759933 162.198486,192.291061 162.883270,183.882248 
	C163.246658,179.420105 166.482040,176.989685 171.165924,177.006073 
	C178.473984,177.031631 185.782043,177.059143 193.549255,177.191711 
z"/>
<path fill="#1792BA" opacity="1.000000" stroke="none" 
	d="
M168.683929,227.519318 
	C181.152466,227.150681 193.862411,227.123535 207.091507,227.149597 
	C206.493439,227.750076 205.380585,228.762070 204.258286,228.772614 
	C193.225128,228.876419 182.190277,228.831711 171.156403,228.758041 
	C170.410736,228.753067 169.668915,228.173264 168.683929,227.519318 
z"/>
<path fill="#168FB5" opacity="1.000000" stroke="none" 
	d="
M162.819794,117.365601 
	C163.379486,118.774773 163.965042,120.512566 163.955414,122.247055 
	C163.897934,132.599182 163.703171,142.950531 163.310303,153.630783 
	C162.744904,152.222992 162.138855,150.484863 162.149170,148.750397 
	C162.210785,138.397354 162.414566,128.045166 162.819794,117.365601 
z"/>
<path fill="#168FB5" opacity="1.000000" stroke="none" 
	d="
M194.550308,109.332092 
	C193.574280,109.972244 192.152267,110.902367 190.714279,110.927765 
	C183.346786,111.057915 175.975204,110.955040 168.102539,110.882339 
	C169.196411,110.252197 170.783325,109.207230 172.390823,109.174576 
	C179.623001,109.027634 186.861038,109.168007 194.550308,109.332092 
z"/>
<path fill="#2D6FBA" opacity="1.000000" stroke="none" 
	d="
M176.703339,245.260712 
	C174.671463,246.896851 172.289230,248.456512 169.554565,250.032959 
	C171.585754,248.427887 173.969376,246.806046 176.703339,245.260712 
z"/>
<path fill="#168FB5" opacity="1.000000" stroke="none" 
	d="
M210.726318,111.694061 
	C208.008316,111.354507 205.152283,110.687111 202.142029,109.711746 
	C204.854645,110.057930 207.721481,110.712082 210.726318,111.694061 
z"/>
<path fill="#2D6FBA" opacity="1.000000" stroke="none" 
	d="
M167.739105,251.316666 
	C166.719421,253.771423 165.385391,256.324402 163.741211,258.971466 
	C164.762299,256.515350 166.093521,253.965118 167.739105,251.316666 
z"/>
<path fill="#118FA6" opacity="1.000000" stroke="none" 
	d="
M144.379578,92.555695 
	C146.529907,92.202209 149.106018,92.016228 151.863037,92.114738 
	C149.631073,92.507217 147.218216,92.615204 144.379578,92.555695 
z"/>
<path fill="#168FB5" opacity="1.000000" stroke="none" 
	d="
M165.740173,111.468651 
	C165.352966,112.561699 164.666382,113.712494 163.683136,114.939133 
	C164.071259,113.852119 164.756042,112.689255 165.740173,111.468651 
z"/>
<path fill="#1792BA" opacity="1.000000" stroke="none" 
	d="
M213.731628,185.679352 
	C213.245590,185.148529 212.876297,184.310135 212.699203,183.263596 
	C213.210388,183.827560 213.529388,184.599655 213.731628,185.679352 
z"/>
<path fill="#1792BA" opacity="1.000000" stroke="none" 
	d="
M213.224792,221.757263 
	C213.031769,221.057526 213.071930,220.124649 213.376831,219.103210 
	C213.580383,219.851151 213.519180,220.687622 213.224792,221.757263 
z"/>
<path fill="#1485A4" opacity="1.000000" stroke="none" 
	d="
M293.217834,93.147247 
	C293.671478,93.083252 294.309814,93.245277 294.980774,93.671822 
	C294.476440,93.748657 293.939453,93.560966 293.217834,93.147247 
z"/>
</svg>