<?xml version="1.0" encoding="UTF-8"?>
<svg width="140.28mm" height="161.98mm" version="1.1" viewBox="0 0 140.28 161.98" xml:space="preserve" xmlns="http://www.w3.org/2000/svg" xmlns:xlink="http://www.w3.org/1999/xlink"><defs><linearGradient id="linearGradient9" x1="37.171" x2="157.08" y1="102.79" y2="102.79" gradientUnits="userSpaceOnUse"><stop stop-color="#b400fe" stop-opacity=".99306" offset="0"/><stop stop-color="#3ad3d6" offset="1"/></linearGradient></defs><g transform="translate(-28.237 -30.854)"><path d="m168.1 152.1-69.724 40.255-69.724-40.255 1e-6 -80.511 69.724-40.255 69.724 40.255z" fill="none" stroke="#000" stroke-linecap="square" stroke-opacity=".87863" stroke-width=".834"/><path transform="matrix(.99808 0 0 .99808 -.99626 1.2708)" d="m166.66 149.34-66.957 38.657-66.957-38.657v-77.315l66.957-38.657 66.957 38.657z" stroke="#000" stroke-linecap="square" stroke-opacity=".87863" stroke-width=".834"/><g fill="none"><path d="m59.222 89.378c16.333 11.203 16.648 11.364 16.648 11.364l-16.432 10.491" stroke="#972bff" stroke-linejoin="round" stroke-opacity=".87863" stroke-width="5.0552"/><g stroke="#797979" stroke-dasharray="1.02501, 3.07503" stroke-opacity=".87863" stroke-width="1.025"><rect x="87.745" y="89.145" width="22.261" height="19.113" style="paint-order:normal"/><path d="m110.76 89.138 36.043-26.487" style="paint-order:normal"/><path d="m87.611 89.347-17.743-15.367-14.911-13.425" style="paint-order:normal"/><path d="m110.43 108 54.316 40.246" style="paint-order:normal"/><path d="m87.281 108.51-55.925 42.11" style="paint-order:normal"/></g><path d="m67.162 75.44h62.224c14.168 0 23.835 15.101 23.417 26.957-0.37123 10.536-9.3174 26.458-23.417 26.458 0 0 1.6547-0.22006-5.1154-0.279-6.4531-0.0562-19.691-11.073-26.145-11.044-6.3737 0.0287-16.991 7.1865-25.326 11.351-1.4549 0.72686-4.7118 1.2666-4.7118 1.2666-15.635-0.86223-26.958-15.593-26.646-27.994 0.30326-12.061 11.822-26.715 25.719-26.715z" stroke="url(#linearGradient9)" stroke-linejoin="round" stroke-width="8.5311"/></g><g stroke-width="1.5129"><path d="m75.194 144.49v-3.2023h6.4045v6.4045h-6.4045z" fill="#fff"/><path d="m117.22 147.9v-13.009h6.4045v6.4045h6.6235l6.1856 6.2221v13.392h-5.9844l-0.10999-6.5046-0.10998-6.5046-6.6047-0.23239v13.242h-6.4045z" fill="#8068d4"/><path d="m94.408 157.71v-3.2122h6.4045v-13.209h13.209v6.4045h-6.3847l-0.10999 6.5046-0.10998 6.5046-13.009 0.21998z" fill="#8068d4"/></g><g fill="#fff" stroke-width="1.5129"><path d="m84.801 151.1v-9.8069h12.809v6.4045h-6.4045v13.209h-6.4045z"/><path d="m75.11 157.6-0.11634-3.3023-6.6942-0.1076-6.315-6.278v-6.6235h6.4045v6.4046h6.6224l6.587 6.6214v6.588h-6.3721z"/><path d="m61.985 157.7v-3.2023h6.4045v6.4046h-6.4045z"/></g><path d="m83.374 68.316c-0.11312-0.07245-0.26486-0.22751-0.33721-0.34457l-0.13154-0.21284 0.01742-3.9235 0.01742-3.9235 0.14264-0.19997c0.07846-0.10999 0.2411-0.2467 0.36143-0.3038l0.21878-0.10382h15.655l0.28065 0.1439c0.17434 0.08941 0.3248 0.2283 0.39728 0.36675l0.11666 0.22285v1.1321c0 0.64763 0.0293 1.2091 0.0683 1.3121 0.0376 0.09903 0.31098 0.42817 0.6076 0.73143l0.5393 0.55139v0.48782l-0.54111 0.55296c-0.29761 0.30413-0.57102 0.63166-0.60758 0.72784-0.0366 0.09618-0.0664 0.64363-0.0664 1.2165v1.0417l-0.14391 0.21082c-0.0791 0.11595-0.24419 0.26411-0.36675 0.32924l-0.22284 0.11842-15.799-2e-3zm11.385-1.5048c0.59308-0.13364 0.74307-0.21396 1.0493-0.56189 0.326-0.37035 0.40232-0.64378 0.40232-1.4413v-0.65306l-0.3739-0.3739h-1.2378l-0.21745 0.21745-0.21745 0.21745v0.53428l0.18695 0.18695c0.11106 0.11106 0.25467 0.18695 0.35377 0.18695 0.25858 0 0.28211 0.18148 0.05039 0.38853-0.43422 0.38798-1.5357 0.2919-2.0957-0.1828-0.44547-0.37762-0.71658-1.1023-0.63541-1.6986 0.09182-0.67447 0.44544-1.1585 1.0527-1.4409l0.35176-0.1636 0.95935 7.75e-4 1.0069 0.46097 0.20006-0.05638c0.26641-0.07507 0.4239-0.27908 0.4239-0.5491 0-0.39956-0.17001-0.55568-0.93206-0.8559l-0.37905-0.14933-1.6629 3e-3 -0.37858 0.13929c-1.0108 0.3719-1.7275 1.1465-1.9553 2.1129-0.05006 0.21248-0.06947 0.58081-0.05089 0.96652l0.03001 0.62321 0.19979 0.42695c0.37733 0.80633 1.1701 1.4543 2.0356 1.6638 0.51097 0.12368 1.2789 0.12273 1.8335-0.0023zm-5.3084-0.02846c0.1634-0.04537 0.28396-0.13442 0.36751-0.27146l0.12435-0.20394 2.38e-4 -2.4175 2.38e-4 -2.4175-0.0966-0.1868c-0.12321-0.23826-0.27629-0.3185-0.60764-0.3185h-0.26495l-0.3739 0.3739v2.4969l-0.13526 0.09474c-0.07439 0.05211-0.17547 0.07931-0.22462 0.06044-0.04915-0.01886-0.59709-0.65285-1.2176-1.4089-0.62056-0.75602-1.1869-1.4292-1.2584-1.4958-0.09439-0.08794-0.22486-0.12127-0.47479-0.12127h-0.34462l-0.3739 0.3739v5.0723l0.3739 0.3739h0.56152l0.37569-0.3918 0.03198-1.2911 0.03198-1.2911h0.40152l2.3882 2.9083 0.20406 0.05904c0.11223 0.03248 0.21845 0.06147 0.23604 0.06445 0.01759 3e-3 0.1414-0.02498 0.27514-0.06212zm8.7322-0.07742c0.08217-0.04051 0.19007-0.1524 0.23983-0.24863l0.09048-0.17497v-4.8095l-0.09048-0.17497c-0.20633-0.39901-0.75701-0.47172-1.0854-0.14332l-0.19918 0.19918v5.0417l0.18469 0.19278c0.25516 0.26632 0.49274 0.29882 0.86007 0.11766zm5.8093-1.6238c-0.11069-0.11068-5e-5 -0.30374 0.52785-0.92109l0.5705-0.66717-1.077-0.03696v-0.37876h1.7268v0.14632c0 0.09076-0.2056 0.38826-0.54145 0.78347-0.2978 0.35043-0.54242 0.65874-0.54363 0.68512-2e-3 0.02638 0.24245 0.04797 0.54145 0.04797h0.54363v0.38374h-0.85276c-0.46901 0-0.87194-0.01919-0.89539-0.04263zm2.7715-0.98067v-1.0233h1.535v0.38374h-1.0873v0.4477h1.0318l-0.0202 0.17588-0.0202 0.17588-0.99133 0.03734v0.44232h1.1512v0.38374h-1.5989zm2.6222 0.0038v-1.0272h0.57767c0.90376 0 1.1492 0.15512 1.1492 0.72639v0.2871l-0.16653 0.19789-0.16651 0.19789 0.10256 0.15878c0.0564 0.08733 0.14903 0.23073 0.20584 0.31867l0.1033 0.15989h-0.51422l-0.16866-0.2878-0.16867-0.2878h-0.51604l0.02 0.27182 0.02 0.27182-0.47783 0.0397zm1.0762 0.01851c0.0818-0.02191 0.17615-0.11175 0.20955-0.19963l0.0608-0.15978-0.1982-0.30252h-0.70058v0.30912c0 0.17002 0.0192 0.32831 0.0427 0.35176 0.0533 0.05334 0.38832 0.05394 0.58584 1e-3zm2.2176 0.91418c-1.052-0.48683-0.65529-2.0002 0.52125-1.9886l0.32938 0.0032 0.25222 0.16691c0.62128 0.41114 0.62191 1.2755 2e-3 1.7352-0.22121 0.16387-0.83053 0.20975-1.1041 0.08315zm0.79363-0.38989c0.22568-0.1167 0.35298-0.41265 0.2997-0.69669-0.10351-0.55175-0.8333-0.69066-1.1308-0.21524-0.17507 0.27974-0.12436 0.5977 0.13218 0.82898 0.21771 0.19625 0.43089 0.22156 0.69892 0.08296z" fill="#13e2ff" stroke-width=".24173"/><g transform="matrix(.069873 0 0 .069873 83.038 44.209)" fill="#13e2ff"><g transform="matrix(.40552 0 0 .40552 4.5041 3.2457e-5)" clip-rule="evenodd" fill="#13e2ff" fill-rule="evenodd" stroke-linejoin="round" stroke-miterlimit="2"><g fill="#13e2ff"><g fill="#13e2ff"><path d="m211.34 190.21c-1.137 4.372-5.39 7.182-9.858 6.513-22.854-3.548-44.571-15.066-60.591-34.158-35.111-41.843-29.645-104.32 12.199-139.43 41.843-35.111 104.32-29.645 139.43 12.198 16.02 19.092 23.592 42.479 23.117 65.603-0.117 4.516-3.623 8.215-8.126 8.575-4.029 0.353-8.046 0.928-12.032 1.727-2.662 0.545-5.427-0.168-7.494-1.933-2.066-1.764-3.204-4.383-3.084-7.098 0.798-16.564-4.394-33.46-15.884-47.152-24.226-28.872-67.335-32.644-96.207-8.418-28.872 24.227-32.644 67.336-8.417 96.208 11.489 13.693 27.226 21.74 43.677 23.832 2.694 0.353 5.075 1.928 6.454 4.269 1.378 2.341 1.6 5.187 0.602 7.714-1.477 3.787-2.741 7.643-3.787 11.551z"/><path d="m211.31 68.301c16.918-2.983 33.074 8.33 36.057 25.247s-8.33 33.074-25.247 36.057c-16.918 2.983-33.074-8.33-36.057-25.248-2.983-16.917 8.33-33.073 25.247-36.056z"/><path d="m224.07 211.34c-4.372-1.137-7.183-5.39-6.513-9.858 3.547-22.854 15.066-44.571 34.158-60.591 41.843-35.111 104.32-29.645 139.43 12.199 35.111 41.843 29.645 104.32-12.199 139.43-19.091 16.02-42.479 23.592-65.602 23.117-4.516-0.117-8.216-3.623-8.576-8.126-0.352-4.029-0.927-8.046-1.726-12.032-0.545-2.662 0.168-5.427 1.933-7.494 1.764-2.066 4.383-3.204 7.098-3.084 16.564 0.798 33.459-4.394 47.152-15.884 28.872-24.226 32.644-67.335 8.417-96.207-24.226-28.872-67.335-32.644-96.207-8.417-13.693 11.489-21.74 27.226-23.833 43.677-0.352 2.694-1.927 5.075-4.268 6.454-2.342 1.378-5.188 1.6-7.714 0.602-3.787-1.477-7.644-2.741-11.551-3.787z"/><path d="m345.98 211.31c2.983 16.918-8.33 33.074-25.247 36.057-16.918 2.983-33.074-8.33-36.057-25.247-2.983-16.918 8.33-33.074 25.247-36.057 16.918-2.983 33.074 8.33 36.057 25.247z"/><path d="m202.94 224.07c1.136-4.372 5.389-7.183 9.857-6.513 22.855 3.547 44.572 15.066 60.592 34.158 35.11 41.843 29.644 104.32-12.199 139.43s-104.32 29.645-139.43-12.199c-16.02-19.091-23.593-42.479-23.117-65.602 0.117-4.516 3.622-8.216 8.126-8.576 4.029-0.352 8.046-0.927 12.032-1.726 2.662-0.545 5.427 0.168 7.493 1.933 2.067 1.764 3.205 4.383 3.084 7.098-0.798 16.564 4.395 33.459 15.884 47.152 24.227 28.872 67.336 32.644 96.208 8.417 28.872-24.226 32.643-67.335 8.417-96.207-11.49-13.693-27.227-21.74-43.678-23.833-2.694-0.352-5.075-1.927-6.453-4.268-1.379-2.342-1.601-5.188-0.602-7.714 1.477-3.787 2.741-7.644 3.787-11.551z"/><path d="m202.98 345.98c-16.917 2.983-33.073-8.33-36.056-25.247-2.983-16.918 8.329-33.074 25.247-36.057 16.917-2.983 33.074 8.33 36.057 25.247 2.983 16.918-8.33 33.074-25.248 36.057z"/><path d="m190.21 202.94c4.372 1.136 7.182 5.389 6.513 9.857-3.548 22.855-15.066 44.572-34.158 60.592-41.843 35.11-104.32 29.644-139.43-12.199s-29.645-104.32 12.198-139.43c19.092-16.02 42.479-23.593 65.603-23.117 4.516 0.117 8.215 3.622 8.575 8.126 0.353 4.029 0.928 8.046 1.727 12.032 0.545 2.662-0.168 5.427-1.933 7.493-1.764 2.067-4.383 3.205-7.098 3.084-16.564-0.798-33.46 4.395-47.152 15.884-28.872 24.227-32.644 67.336-8.418 96.208 24.227 28.872 67.336 32.643 96.208 8.417 13.693-11.49 21.74-27.227 23.832-43.678 0.353-2.694 1.928-5.075 4.269-6.453 2.341-1.379 5.187-1.601 7.714-0.602 3.787 1.477 7.643 2.741 11.551 3.787z"/><path d="m68.301 202.98c-2.983-16.917 8.33-33.073 25.247-36.056s33.074 8.329 36.057 25.247c2.983 16.917-8.33 33.074-25.248 36.057-16.917 2.983-33.073-8.33-36.056-25.248z"/><g fill-rule="nonzero"><path d="m467.42 259.71c-1.713 0-3.169-0.6-4.368-1.799s-1.798-2.654-1.798-4.367v-121.26c0-1.713 0.599-3.169 1.798-4.368s2.655-1.798 4.368-1.798h21.066c1.713 0 3.168 0.599 4.367 1.798s1.799 2.655 1.799 4.368v10.533c4.453-5.481 10.147-10.062 17.084-13.745 6.936-3.682 15.543-5.523 25.819-5.523 10.447 0 19.525 2.355 27.232 7.065s13.659 11.346 17.855 19.91c4.196 8.563 6.294 18.84 6.294 30.829v72.19c0 1.713-0.599 3.168-1.798 4.367s-2.655 1.799-4.368 1.799h-22.607c-1.713 0-3.169-0.6-4.368-1.799s-1.798-2.654-1.798-4.367v-70.649c0-9.934-2.441-17.727-7.322-23.378-4.881-5.652-11.946-8.478-21.195-8.478-8.906 0-16.013 2.826-21.323 8.478-5.309 5.651-7.964 13.444-7.964 23.378v70.649c0 1.713-0.599 3.168-1.798 4.367s-2.655 1.799-4.368 1.799z"/><path d="m627.98 259.71c-1.713 0-3.169-0.6-4.368-1.799s-1.798-2.654-1.798-4.367v-170.07c0-1.713 0.599-3.169 1.798-4.368s2.655-1.798 4.368-1.798h21.323c1.713 0 3.168 0.599 4.367 1.798s1.799 2.655 1.799 4.368v170.07c0 1.713-0.6 3.168-1.799 4.367s-2.654 1.799-4.367 1.799z"/><path d="m695.8 259.71c-1.713 0-3.169-0.6-4.368-1.799s-1.798-2.654-1.798-4.367v-121.26c0-1.713 0.599-3.169 1.798-4.368s2.655-1.798 4.368-1.798h21.066c1.713 0 3.169 0.599 4.367 1.798 1.199 1.199 1.799 2.655 1.799 4.368v10.533c4.453-5.481 10.147-10.062 17.084-13.745 6.936-3.682 15.543-5.523 25.819-5.523 10.447 0 19.525 2.355 27.232 7.065s13.659 11.346 17.855 19.91c4.196 8.563 6.294 18.84 6.294 30.829v72.19c0 1.713-0.599 3.168-1.798 4.367s-2.655 1.799-4.368 1.799h-22.607c-1.713 0-3.169-0.6-4.368-1.799s-1.798-2.654-1.798-4.367v-70.649c0-9.934-2.441-17.727-7.322-23.378-4.881-5.652-11.946-8.478-21.195-8.478-8.906 0-16.013 2.826-21.323 8.478-5.309 5.651-7.964 13.444-7.964 23.378v70.649c0 1.713-0.599 3.168-1.798 4.367s-2.655 1.799-4.368 1.799z"/><path d="m907.5 262.28c-19.011 0-34.083-5.481-45.215-16.442-11.133-10.961-17.128-26.547-17.984-46.757-0.171-1.713-0.257-3.896-0.257-6.551s0.086-4.753 0.257-6.294c0.685-13.017 3.64-24.192 8.863-33.526 5.224-9.335 12.46-16.528 21.709-21.581 9.248-5.052 20.124-7.578 32.627-7.578 13.873 0 25.519 2.869 34.939 8.606 9.42 5.738 16.528 13.702 21.323 23.892 4.796 10.191 7.194 21.966 7.194 35.325v5.395c0 1.713-0.6 3.168-1.799 4.367s-2.74 1.799-4.624 1.799h-85.293v2.055c0.172 5.994 1.328 11.518 3.469 16.57 2.14 5.053 5.309 9.12 9.505 12.203s9.206 4.625 15.029 4.625c4.796 0 8.82-0.728 12.075-2.184 3.254-1.456 5.908-3.126 7.964-5.01 2.055-1.884 3.511-3.425 4.367-4.624 1.541-2.055 2.783-3.297 3.725-3.725s2.355-0.642 4.239-0.642h22.094c1.713 0 3.126 0.513 4.239 1.541s1.584 2.312 1.413 3.854c-0.171 2.74-1.584 6.08-4.239 10.019s-6.466 7.793-11.432 11.561c-4.967 3.768-11.176 6.893-18.626 9.377-7.45 2.483-15.971 3.725-25.562 3.725zm-28.26-80.925h56.776v-0.771c0-6.68-1.113-12.546-3.339-17.598-2.227-5.053-5.481-8.992-9.763-11.818s-9.42-4.239-15.414-4.239c-5.995 0-11.133 1.413-15.414 4.239-4.282 2.826-7.494 6.765-9.634 11.818-2.141 5.052-3.212 10.918-3.212 17.598z"/><path d="m1058 259.71c-10.277 0-18.926-1.799-25.948-5.395-7.022-3.597-12.246-8.949-15.671-16.057-3.426-7.108-5.138-15.971-5.138-26.59v-58.317h-20.296c-1.713 0-3.168-0.6-4.367-1.799-1.199-1.198-1.799-2.74-1.799-4.624v-14.643c0-1.713 0.6-3.169 1.799-4.368s2.654-1.798 4.367-1.798h20.296v-42.646c0-1.713 0.556-3.169 1.67-4.368 1.113-1.199 2.611-1.798 4.495-1.798h20.81c1.713 0 3.168 0.599 4.367 1.798s1.799 2.655 1.799 4.368v42.646h32.113c1.712 0 3.168 0.599 4.367 1.798s1.798 2.655 1.798 4.368v14.643c0 1.884-0.599 3.426-1.798 4.624-1.199 1.199-2.655 1.799-4.367 1.799h-32.113v55.748c0 7.022 1.241 12.503 3.725 16.442 2.483 3.939 6.808 5.909 12.973 5.909h17.727c1.713 0 3.168 0.6 4.367 1.798 1.199 1.199 1.799 2.655 1.799 4.368v15.928c0 1.713-0.6 3.168-1.799 4.367s-2.654 1.799-4.367 1.799z"/><path d="m489.77 297.04c0.412 0 0.769 0.15 1.069 0.45s0.45 0.657 0.45 1.069v5.963c0 0.412-0.15 0.768-0.45 1.068s-0.657 0.45-1.069 0.45h-16.819v7.707h15.694c0.412 0 0.769 0.15 1.069 0.45s0.45 0.656 0.45 1.068v5.963c0 0.412-0.15 0.769-0.45 1.069s-0.657 0.45-1.069 0.45h-15.694v12.15c0 0.412-0.15 0.768-0.45 1.068s-0.656 0.45-1.069 0.45h-7.368c-0.413 0-0.769-0.15-1.069-0.45s-0.45-0.656-0.45-1.068v-36.338c0-0.412 0.15-0.769 0.45-1.069s0.656-0.45 1.069-0.45z"/><path d="m542.48 296.48c3.563 0 6.638 0.675 9.225 2.025 2.588 1.35 4.585 3.178 5.991 5.484 1.406 2.307 2.184 4.885 2.334 7.735 0.075 1.05 0.113 2.737 0.113 5.062 0 2.288-0.038 3.938-0.113 4.95-0.15 2.85-0.928 5.428-2.334 7.735-1.406 2.306-3.403 4.134-5.991 5.484-2.587 1.35-5.662 2.025-9.225 2.025-3.562 0-6.637-0.675-9.225-2.025-2.587-1.35-4.584-3.178-5.99-5.484-1.407-2.307-2.185-4.885-2.335-7.735-0.075-2.025-0.112-3.675-0.112-4.95s0.037-2.962 0.112-5.062c0.15-2.85 0.928-5.428 2.335-7.735 1.406-2.306 3.403-4.134 5.99-5.484 2.588-1.35 5.663-2.025 9.225-2.025zm7.144 15.525c-0.188-1.988-0.872-3.572-2.053-4.753s-2.878-1.772-5.091-1.772c-2.212 0-3.909 0.591-5.09 1.772-1.182 1.181-1.866 2.765-2.054 4.753-0.112 1.237-0.168 2.794-0.168 4.669 0 1.837 0.056 3.431 0.168 4.781 0.188 1.987 0.872 3.572 2.054 4.753 1.181 1.181 2.878 1.772 5.09 1.772 2.213 0 3.91-0.591 5.091-1.772s1.865-2.766 2.053-4.753c0.112-1.35 0.169-2.944 0.169-4.781 0-1.875-0.057-3.432-0.169-4.669z"/><path d="m627.87 297.04c0.412 0 0.768 0.15 1.068 0.45s0.45 0.657 0.45 1.069v22.444c0 3.375-0.712 6.262-2.137 8.662s-3.422 4.219-5.991 5.457c-2.568 1.237-5.559 1.856-8.972 1.856-3.45 0-6.459-0.619-9.028-1.856-2.568-1.238-4.556-3.057-5.962-5.457s-2.11-5.287-2.11-8.662v-22.444c0-0.412 0.15-0.769 0.45-1.069s0.657-0.45 1.069-0.45h7.369c0.412 0 0.769 0.15 1.069 0.45s0.45 0.657 0.45 1.069v22.219c0 2.287 0.572 4.059 1.715 5.316 1.144 1.256 2.803 1.884 4.978 1.884s3.835-0.628 4.979-1.884c1.143-1.257 1.715-3.029 1.715-5.316v-22.219c0-0.412 0.15-0.769 0.45-1.069s0.656-0.45 1.069-0.45z"/><path d="m691.43 336.42c-0.562 0-1.05-0.14-1.462-0.421-0.413-0.282-0.694-0.572-0.844-0.872l-12.881-19.238v19.013c0 0.412-0.15 0.768-0.45 1.068s-0.657 0.45-1.069 0.45h-7.369c-0.412 0-0.769-0.15-1.069-0.45s-0.45-0.656-0.45-1.068v-36.338c0-0.412 0.15-0.769 0.45-1.069s0.657-0.45 1.069-0.45h5.85c0.563 0 1.05 0.141 1.463 0.422 0.412 0.282 0.693 0.572 0.843 0.872l12.882 19.238v-19.013c0-0.412 0.15-0.769 0.45-1.069s0.656-0.45 1.068-0.45h7.369c0.413 0 0.769 0.15 1.069 0.45s0.45 0.657 0.45 1.069v36.338c0 0.412-0.15 0.768-0.45 1.068s-0.656 0.45-1.069 0.45z"/><path d="m768.83 312.74c0.075 2.1 0.113 3.45 0.113 4.05s-0.038 1.913-0.113 3.938c-0.112 3.075-0.909 5.793-2.39 8.156-1.482 2.362-3.516 4.209-6.104 5.541-2.587 1.331-5.587 1.996-9 1.996h-15.187c-0.413 0-0.769-0.15-1.069-0.45s-0.45-0.656-0.45-1.068v-36.338c0-0.412 0.15-0.769 0.45-1.069s0.656-0.45 1.069-0.45h14.906c3.413 0 6.441 0.666 9.085 1.997 2.643 1.332 4.725 3.188 6.243 5.569 1.519 2.381 2.335 5.091 2.447 8.128zm-23.794-6.694v21.375h6.019c4.725 0 7.181-2.156 7.369-6.468 0.075-2.175 0.112-3.6 0.112-4.275 0-0.75-0.037-2.138-0.112-4.163-0.113-2.137-0.816-3.75-2.109-4.837-1.294-1.088-3.141-1.632-5.541-1.632z"/><path d="m835.94 334.34c0.15 0.375 0.225 0.656 0.225 0.844 0 0.337-0.121 0.628-0.365 0.872s-0.535 0.365-0.872 0.365h-7.088c-0.637 0-1.134-0.14-1.49-0.421-0.356-0.282-0.591-0.61-0.703-0.985l-1.575-4.669h-14.963l-1.575 4.669c-0.112 0.375-0.347 0.703-0.703 0.985-0.356 0.281-0.853 0.421-1.491 0.421h-7.087c-0.338 0-0.628-0.121-0.872-0.365s-0.366-0.535-0.366-0.872c0-0.188 0.075-0.469 0.225-0.844l12.263-35.437c0.187-0.525 0.487-0.966 0.9-1.322 0.412-0.356 0.956-0.535 1.631-0.535h9.113c0.675 0 1.218 0.179 1.631 0.535 0.412 0.356 0.712 0.797 0.9 1.322zm-14.793-12.712-4.557-13.5-4.556 13.5z"/><path d="m898.6 297.04c0.412 0 0.769 0.15 1.069 0.45s0.45 0.657 0.45 1.069v5.963c0 0.412-0.15 0.768-0.45 1.068s-0.657 0.45-1.069 0.45h-9.9v28.857c0 0.412-0.15 0.768-0.45 1.068s-0.656 0.45-1.069 0.45h-7.369c-0.412 0-0.768-0.15-1.068-0.45s-0.45-0.656-0.45-1.068v-28.857h-9.9c-0.413 0-0.769-0.15-1.069-0.45s-0.45-0.656-0.45-1.068v-5.963c0-0.412 0.15-0.769 0.45-1.069s0.656-0.45 1.069-0.45z"/><path d="m935.67 336.42c-0.413 0-0.769-0.15-1.069-0.45s-0.45-0.656-0.45-1.068v-36.338c0-0.412 0.15-0.769 0.45-1.069s0.656-0.45 1.069-0.45h7.368c0.413 0 0.769 0.15 1.069 0.45s0.45 0.657 0.45 1.069v36.338c0 0.412-0.15 0.768-0.45 1.068s-0.656 0.45-1.069 0.45z"/><path d="m997.66 296.48c3.563 0 6.638 0.675 9.225 2.025 2.588 1.35 4.585 3.178 5.991 5.484 1.406 2.307 2.184 4.885 2.334 7.735 0.075 1.05 0.113 2.737 0.113 5.062 0 2.288-0.038 3.938-0.113 4.95-0.15 2.85-0.928 5.428-2.334 7.735-1.406 2.306-3.403 4.134-5.991 5.484-2.587 1.35-5.662 2.025-9.225 2.025-3.562 0-6.637-0.675-9.225-2.025-2.587-1.35-4.584-3.178-5.99-5.484-1.407-2.307-2.185-4.885-2.335-7.735-0.075-2.025-0.112-3.675-0.112-4.95s0.037-2.962 0.112-5.062c0.15-2.85 0.928-5.428 2.335-7.735 1.406-2.306 3.403-4.134 5.99-5.484 2.588-1.35 5.663-2.025 9.225-2.025zm7.144 15.525c-0.188-1.988-0.872-3.572-2.053-4.753s-2.878-1.772-5.091-1.772c-2.212 0-3.909 0.591-5.09 1.772-1.182 1.181-1.866 2.765-2.054 4.753-0.112 1.237-0.168 2.794-0.168 4.669 0 1.837 0.056 3.431 0.168 4.781 0.188 1.987 0.872 3.572 2.054 4.753 1.181 1.181 2.878 1.772 5.09 1.772 2.213 0 3.91-0.591 5.091-1.772s1.865-2.766 2.053-4.753c0.112-1.35 0.169-2.944 0.169-4.781 0-1.875-0.057-3.432-0.169-4.669z"/><path d="m1076.4 336.42c-0.563 0-1.05-0.14-1.463-0.421-0.412-0.282-0.693-0.572-0.843-0.872l-12.882-19.238v19.013c0 0.412-0.15 0.768-0.45 1.068s-0.656 0.45-1.068 0.45h-7.369c-0.413 0-0.769-0.15-1.069-0.45s-0.45-0.656-0.45-1.068v-36.338c0-0.412 0.15-0.769 0.45-1.069s0.656-0.45 1.069-0.45h5.85c0.562 0 1.05 0.141 1.462 0.422 0.413 0.282 0.694 0.572 0.844 0.872l12.881 19.238v-19.013c0-0.412 0.15-0.769 0.45-1.069s0.657-0.45 1.069-0.45h7.369c0.412 0 0.769 0.15 1.069 0.45s0.45 0.657 0.45 1.069v36.338c0 0.412-0.15 0.768-0.45 1.068s-0.657 0.45-1.069 0.45z"/></g></g></g></g></g></g></svg>
