<svg xmlns="http://www.w3.org/2000/svg" viewBox="0 -7 70 70" fill="#8438ff">
  <path d="M30.98.27a7.76 7.76 0 0 0-2.44 1.13L1.15 20.47c-.93.65-1.35 1.81-1.05 2.9s1.23 1.88 2.36 1.99l6.86.58a18.38 18.38 0 0 0-.22 10.3l.81 3.04c.82 3.07.5 6.55-.07 9.38-.33 1.59-.76 3.19-1.34 4.72a1.79 1.79 0 0 0 1.7 2.47l7.38-.12c.49 0 .95-.22 1.28-.58s.5-.84.47-1.33c-.31-4.88-1.89-8.9-3.38-11.69-.76-1.44-1.64-2.89-2.68-4.15l-.71-2.66c-.87-3.26-.6-6.64.66-9.62.95-2.05 2.39-3.88 4.28-5.28L32.68 9.2a1.8 1.8 0 0 1 2.5.37 1.79 1.79 0 0 1-.37 2.5L19.63 23.29a10.37 10.37 0 0 0-2.86 3.27l18.92 1.6c.9.07 1.81 0 2.68-.24a8.1 8.1 0 0 0 2.44-1.13L68.22 7.74c.93-.64 1.35-1.81 1.05-2.9s-1.23-1.88-2.36-1.99L33.66.03c-.9-.07-1.81 0-2.68.24zm-9.83 46.2c1.02 3.82 11.38 5.29 22.84 2.22s19.69-9.53 18.67-13.34l-5.87-15.27-13.88 9.67a11.44 11.44 0 0 1-3.56 1.65 11.42 11.42 0 0 1-3.9.35l-16.86-1.44 2.56 16.16z"/>
</svg>
