<?xml version="1.0" encoding="utf-8"?>
<!-- Generator: Adobe Illustrator 25.4.1, SVG Export Plug-In . SVG Version: 6.00 Build 0)  -->
<svg version="1.1" id="Layer_1" xmlns="http://www.w3.org/2000/svg" xmlns:xlink="http://www.w3.org/1999/xlink" x="0px" y="0px"
	 viewBox="0 0 100 100" style="enable-background:new 0 0 100 100;" xml:space="preserve">
<style type="text/css">
	.st0{fill:#FFFFFF;}
</style>
<g>
	<path class="st0" d="M78.8,47.5c-1.3-1.4-2.8-2.5-4.6-3.4c-1.8-0.8-3.8-1.3-5.9-1.3c-3.6,0-6.7,1.3-9.1,3.9V25.4H48.9v24.9
		c-0.6-1-1.2-1.9-1.9-2.8c-1.3-1.4-2.8-2.5-4.6-3.4c-1.8-0.8-3.8-1.3-5.9-1.3c-3.6,0-6.7,1.3-9.1,3.9V25.4H17.1v48.4h10.3v-3.3
		c2.2,2.8,5.2,4.3,9,4.3c2.1,0,4-0.4,5.8-1.3c1.8-0.8,3.4-2,4.7-3.4c0.8-0.9,1.5-1.9,2-2.9v6.7h10.3v-3.3c2.2,2.8,5.2,4.3,9,4.3
		c2.1,0,4-0.4,5.8-1.3c1.8-0.8,3.4-2,4.7-3.4c1.3-1.4,2.4-3.1,3.1-5.1c0.7-1.9,1.1-4,1.1-6.2c0-2.2-0.4-4.2-1.1-6.1
		C81.1,50.6,80.1,48.9,78.8,47.5z"/>
	<path d="M91.1,0.7H8.9c-4.5,0-8.2,3.7-8.2,8.2v82.2c0,4.5,3.7,8.2,8.2,8.2h82.2c4.5,0,8.2-3.7,8.2-8.2V8.9
		C99.3,4.4,95.6,0.7,91.1,0.7z M81.8,64.9C81,66.9,80,68.6,78.7,70c-1.3,1.4-2.9,2.6-4.7,3.4c-1.8,0.8-3.7,1.3-5.8,1.3
		c-3.8,0-6.8-1.4-9-4.3v3.3H48.9v-6.7c-0.6,1.1-1.2,2.1-2,2.9c-1.3,1.4-2.9,2.6-4.7,3.4c-1.8,0.8-3.7,1.3-5.8,1.3
		c-3.8,0-6.8-1.4-9-4.3v3.3H17.1V25.4h10.3v21.4c2.4-2.6,5.4-3.9,9.1-3.9c2.2,0,4.1,0.4,5.9,1.3c1.8,0.8,3.3,2,4.6,3.4
		c0.7,0.8,1.4,1.8,1.9,2.8V25.4h10.3v21.4c2.4-2.6,5.4-3.9,9.1-3.9c2.2,0,4.1,0.4,5.9,1.3c1.8,0.8,3.3,2,4.6,3.4
		c1.3,1.4,2.3,3.1,3,5c0.7,1.9,1.1,4,1.1,6.1C82.9,60.9,82.5,63,81.8,64.9z"/>
	<path d="M70.2,54c-0.6-0.6-1.3-1.1-2.1-1.5c-0.8-0.4-1.7-0.6-2.6-0.6c-0.9,0-1.8,0.2-2.6,0.5c-0.8,0.4-1.5,0.8-2.1,1.5
		c-0.6,0.6-1.1,1.3-1.4,2.2c-0.4,0.8-0.5,1.7-0.5,2.7c0,0.9,0.2,1.8,0.5,2.6c0.3,0.8,0.8,1.5,1.4,2.1c0.6,0.6,1.3,1.1,2.1,1.5
		c0.8,0.4,1.7,0.6,2.6,0.6c0.9,0,1.8-0.2,2.6-0.5c0.8-0.4,1.5-0.8,2.1-1.5c0.6-0.6,1.1-1.3,1.4-2.2c0.4-0.8,0.5-1.7,0.5-2.6
		c0-0.9-0.2-1.8-0.5-2.7C71.3,55.4,70.8,54.6,70.2,54z"/>
	<path d="M38.4,54c-0.6-0.6-1.3-1.1-2.1-1.5c-0.8-0.4-1.7-0.6-2.6-0.6c-0.9,0-1.8,0.2-2.6,0.5c-0.8,0.4-1.5,0.8-2.1,1.5
		c-0.6,0.6-1.1,1.3-1.4,2.2c-0.4,0.8-0.5,1.7-0.5,2.7c0,0.9,0.2,1.8,0.5,2.6c0.3,0.8,0.8,1.5,1.4,2.1c0.6,0.6,1.3,1.1,2.1,1.5
		c0.8,0.4,1.7,0.6,2.6,0.6c0.9,0,1.8-0.2,2.6-0.5c0.8-0.4,1.5-0.8,2.1-1.5c0.6-0.6,1.1-1.3,1.4-2.2c0.4-0.8,0.5-1.7,0.5-2.6
		c0-0.9-0.2-1.8-0.5-2.7C39.5,55.4,39,54.6,38.4,54z"/>
</g>
</svg>
