<svg version="1.1" xmlns="http://www.w3.org/2000/svg" viewBox="99.5 84.7 94.4 82.1">
<style type="text/css">
	.st1{fill:#DB2D54;}
</style>
<g>
	<path class="st1" d="M149.1,84.7h-4.8l-44.8,25.9v8.3l44.8,25.9h4.8l44.8-25.9v-8.3L149.1,84.7z M182,114.7h-35.3V94.4L182,114.7z M146.7,135.1l-35.3-20.4l27-15.6v15.6v4.1v0.5l6.3,3.6h22.9L146.7,135.1z"/>
	<polygon class="st1" points="99.5,129.9 99.5,140.9 144.3,166.8 149.1,166.8 193.9,140.9 193.9,129.9 146.7,157.2"/>
	<polygon class="st1" points="187.3,166.8 193.9,163 193.9,152 168.2,166.8"/>
	<polygon class="st1" points="99.5,163 106.1,166.8 125.2,166.8 99.5,152"/>
</g>
</svg>
