<svg version="1.1" xmlns="http://www.w3.org/2000/svg" viewBox="0 0 240 240" xml:space="preserve">
	<metadata>
		<license>
			Licensed to the Apache Software Foundation (ASF) under one or more
			contributor license agreements. Apache License, Version 2.0
			http://www.apache.org/licenses/LICENSE-2.0
		</license>
	</metadata>
	<g fill="#000000" transform="translate(40, 0)">
		<path d="M49.76,20.98 C47.18,18.39 43.60,16.79 39.60,16.79 C35.62,16.79 32.06,18.39 29.51,20.98 L29.45,20.98 C26.87,23.55 25.28,27.15 25.28,31.12 C25.28,35.11 26.87,38.68 29.45,41.23 L29.51,41.30 C32.06,43.87 35.62,45.44 39.60,45.44 C43.60,45.44 47.18,43.87 49.76,41.30 L49.79,41.23 C52.38,38.68 53.96,35.11 53.96,31.12 C53.96,27.15 52.38,23.55 49.79,20.98 L49.76,20.98 Z"/>
		<path d="M39.60,217.10 C43.60,217.10 47.18,215.48 49.76,212.93 L49.79,212.86 C52.38,210.32 53.96,206.72 53.96,202.78 C53.96,198.78 52.38,195.21 49.79,192.62 L49.76,192.62 C47.18,190.00 43.60,188.42 39.60,188.42 C35.62,188.42 32.06,190.00 29.51,192.62 L29.45,192.62 C26.87,195.21 25.28,198.78 25.28,202.78 C25.28,206.72 26.87,210.32 29.45,212.86 L29.51,212.93 C32.06,215.48 35.62,217.10 39.60,217.10 Z"/>
		<path d="M117.67,173.70 C121.21,172.76 124.43,170.49 126.39,167.04 L126.65,166.54 C128.40,163.27 128.72,159.50 127.78,156.16 C126.84,152.58 124.54,149.41 121.10,147.44 L120.90,147.31 C117.55,145.46 113.74,145.06 110.23,146.02 C106.67,146.91 103.47,149.28 101.52,152.70 C99.54,156.09 99.13,159.99 100.08,163.58 C101.05,167.12 103.34,170.31 106.75,172.30 L106.77,172.30 C110.20,174.27 114.07,174.63 117.67,173.70 Z"/>
		<path d="M54.30,102.27 C50.54,98.51 45.35,96.16 39.60,96.16 C33.87,96.16 28.69,98.51 24.94,102.27 C21.20,106.01 18.89,111.18 18.89,116.92 C18.89,122.67 21.20,127.86 24.94,131.65 C28.69,135.38 33.87,137.70 39.60,137.70 C45.35,137.70 50.54,135.38 54.30,131.65 C58.05,127.86 60.36,122.67 60.36,116.92 C60.36,111.18 58.05,106.01 54.30,102.27 Z"/>
		<path d="M46.04,77.85 C54.37,79.22 61.86,83.21 67.59,88.98 L67.63,88.98 C68.54,89.89 69.42,90.89 70.25,91.89 L84.55,83.61 C82.63,77.80 82.54,71.72 84.09,66.02 C86.13,58.39 91.07,51.56 98.49,47.28 L98.73,47.13 C106.07,42.98 114.40,42.12 121.93,44.16 C129.55,46.20 136.43,51.17 140.71,58.57 L140.71,58.59 C144.97,65.96 145.83,74.41 143.80,82.02 C141.77,89.64 136.80,96.52 129.39,100.78 L127.44,101.93 L127.24,101.93 C120.39,105.19 112.86,105.70 105.94,103.88 C100.25,102.38 95.04,99.20 90.96,94.70 L76.68,102.95 C78.32,107.30 79.23,111.98 79.23,116.92 C79.23,121.85 78.32,126.59 76.68,130.96 L90.96,139.19 C95.04,134.62 100.25,131.52 105.94,130.01 C113.56,127.92 122.01,128.81 129.39,133.11 L129.87,133.33 L129.87,133.36 C137.00,137.68 141.79,144.36 143.80,151.90 C145.83,159.46 144.97,167.91 140.71,175.29 L140.45,175.81 L140.42,175.76 C136.14,182.88 129.39,187.70 121.95,189.73 C114.32,191.75 105.86,190.89 98.49,186.65 L98.49,186.59 C91.07,182.30 86.13,175.46 84.09,167.84 C82.54,162.17 82.63,156.09 84.55,150.28 L70.25,142.03 C69.42,143.03 68.54,143.98 67.63,144.89 L67.59,144.93 C61.86,150.68 54.37,154.67 46.04,156.00 L46.04,172.53 C51.98,173.77 57.30,176.74 61.47,180.91 L61.49,180.95 C67.07,186.51 70.53,194.26 70.53,202.78 C70.53,211.27 67.07,218.97 61.49,224.56 L61.47,224.64 C55.84,230.23 48.12,233.69 39.60,233.69 C31.13,233.69 23.39,230.23 17.78,224.64 L17.76,224.64 L17.76,224.56 C12.17,218.97 8.70,211.27 8.70,202.78 C8.70,194.26 12.17,186.51 17.76,180.95 L17.76,180.91 L17.78,180.91 C21.94,176.74 27.28,173.77 33.19,172.53 L33.19,156.00 C24.86,154.67 17.38,150.68 11.67,144.93 L11.61,144.89 C4.47,137.73 0.01,127.86 0.01,116.92 C0.01,106.01 4.47,96.14 11.61,88.98 L11.67,88.98 C17.38,83.21 24.86,79.22 33.19,77.85 L33.19,61.39 C27.28,60.10 21.94,57.13 17.78,52.99 L17.76,52.99 L17.76,52.94 C12.17,47.33 8.70,39.63 8.70,31.12 C8.70,22.64 12.17,14.88 17.76,9.29 L17.78,9.27 C23.39,3.66 31.13,0.20 39.60,0.20 C48.12,0.20 55.84,3.66 61.47,9.27 L61.47,9.29 L61.49,9.29 C67.07,14.88 70.53,22.64 70.53,31.12 C70.53,39.63 67.07,47.33 61.49,52.94 L61.47,52.99 C57.30,57.13 51.98,60.10 46.04,61.39 L46.04,77.85 Z"/>
		<path d="M126.39,66.87 L126.27,66.69 C124.29,63.36 121.15,61.15 117.67,60.19 C114.07,59.24 110.20,59.64 106.75,61.61 L106.77,61.61 C103.34,63.56 101.04,66.75 100.08,70.33 C99.13,73.88 99.54,77.80 101.52,81.22 L101.59,81.30 C103.56,84.68 106.72,86.94 110.23,87.85 C113.77,88.85 117.71,88.42 121.10,86.45 L121.29,86.36 C124.63,84.37 126.85,81.22 127.78,77.76 C128.73,74.19 128.35,70.28 126.39,66.87 Z"/>
	</g>
</svg>