<?xml version="1.0" encoding="UTF-8"?>
<!-- Generator: visioncortex VTracer 0.6.5 -->
<svg version="1.1" xmlns="http://www.w3.org/2000/svg" width="640" height="640">
<path d="M0 0 C0.61 -0 0.61 -0 3.7 -0.02 C16.17 0 27.57 1.81 39.38 5.81 C40.41 6.16 41.44 6.51 42.51 6.87 C55.71 11.5 67.05 17.99 77.56 27.25 C77.97 27.59 77.97 27.59 80.04 29.33 C99.85 46.38 113.42 70.96 115.56 97.25 C115.92 97.39 115.92 97.39 117.7 98.08 C120.62 99.27 123.45 100.58 126.3 101.94 C145.87 111.19 165.7 119.35 186 126.88 C193.3 129.59 200.54 132.39 207.69 135.5 C208.05 135.65 208.05 135.65 209.86 136.42 C214.77 138.62 219.95 141.3 222.62 146.19 C222.52 149.6 221.47 151.41 219.56 154.25 C196.8 174.88 145.22 173.16 116.4 174.64 C96.6 175.66 96.6 175.66 88.56 181.25 C87.03 184.31 87.36 186.86 87.56 190.25 C91.5 201.92 99.62 211.09 107.56 220.25 C108.2 221 108.84 221.74 109.5 222.51 C111.17 224.44 112.87 226.35 114.56 228.25 C151.79 270.04 151.79 270.04 156.12 292.12 C156.27 292.82 156.41 293.52 156.56 294.25 C157.22 294.58 157.88 294.91 158.56 295.25 C159.34 297.82 159.98 300.32 160.56 302.94 C160.65 303.33 160.65 303.33 161.09 305.3 C161.59 307.61 162.08 309.93 162.56 312.25 C162.79 313.33 163.03 314.4 163.27 315.51 C169.67 351.3 161.04 387.57 140.56 417.25 C138.03 420.71 135.37 424.01 132.56 427.25 C131.88 428.04 131.19 428.84 130.49 429.66 C116.29 445.76 100.71 458.8 82.56 470.25 C81.91 470.66 81.27 471.07 80.6 471.5 C29.3 503.73 -34.68 513.91 -94.36 506.69 C-98.08 506.24 -101.69 506.17 -105.44 506.25 C-105.44 505.59 -105.44 504.93 -105.44 504.25 C-106.08 504.22 -106.73 504.2 -107.39 504.17 C-149.23 501.65 -194.9 482.89 -228.44 458.25 C-228.98 457.85 -229.53 457.45 -230.09 457.05 C-246.25 445.16 -260.99 432.03 -273.44 416.25 C-274.22 415.29 -275 414.32 -275.8 413.33 C-286.41 399.98 -295.31 385.53 -302.55 370.11 C-303.39 368.35 -304.28 366.61 -305.16 364.87 C-317.64 339.84 -324.04 311.88 -327.44 284.25 C-327.53 283.46 -327.63 282.67 -327.73 281.86 C-328.45 275.46 -328.59 269.12 -328.56 262.69 C-328.57 261.71 -328.57 260.73 -328.57 259.73 C-328.55 242.52 -328.55 242.52 -324.44 237.25 C-321.21 235.64 -317.94 235.78 -314.44 236.25 C-311.71 237.32 -309.34 238.81 -306.88 240.38 C-286.26 252.62 -263.1 257.84 -239.44 260.25 C-238.8 260.32 -238.8 260.32 -235.6 260.65 C-213.53 262.48 -191.32 260.96 -169.28 259.45 C-165.79 259.22 -162.3 258.99 -158.81 258.76 C-158.13 258.71 -157.45 258.67 -156.74 258.62 C-150.78 258.23 -144.81 257.85 -138.84 257.47 C-136.79 257.34 -134.74 257.2 -132.69 257.06 C-113.64 255.79 -94.53 256.14 -75.45 256.18 C-70.7 256.19 -65.95 256.2 -61.21 256.2 C-51.95 256.21 -42.69 256.23 -33.44 256.25 C-33.11 255.59 -32.78 254.93 -32.44 254.25 C-30.38 253.12 -30.38 253.12 -28.44 252.25 C-27.92 247.39 -27.89 244.39 -30.81 240.38 C-37.31 232.6 -44.68 225.92 -52.57 219.61 C-56.23 216.6 -59.7 213.42 -63.16 210.2 C-65.91 207.64 -68.69 205.16 -71.56 202.75 C-96.3 181.07 -111.88 149.82 -114.25 117.06 C-115.44 94.72 -110.28 74.67 -99.44 55.25 C-98.89 54.26 -98.35 53.28 -97.79 52.26 C-83.25 27.76 -57.2 10.47 -30.07 3.04 C-19.95 0.84 -10.36 -0.07 0 0 Z " fill="#F7CC29" transform="translate(361.4375,73.75)"/>
<path d="M0 0 C-15.5 1.67 -30.45 2.13 -46 1 C-46 0.67 -46 0.34 -46 0 C-41.97 -0.29 -37.93 -0.58 -33.9 -0.85 C-32.53 -0.95 -31.16 -1.05 -29.8 -1.15 C-4.46 -2.97 -4.46 -2.97 0 0 Z " fill="#F9D237" transform="translate(208,335)"/>
<path d="M0 0 C-0.99 0.33 -1.98 0.66 -3 1 C-3 1.66 -3 2.32 -3 3 C-5.6 3.22 -8.21 3.43 -10.81 3.62 C-11.55 3.69 -12.29 3.75 -13.05 3.82 C-18.66 4.23 -18.66 4.23 -22 2 C-19.46 1.66 -16.92 1.33 -14.38 1 C-13.66 0.9 -12.95 0.81 -12.21 0.71 C-8.11 0.18 -4.15 -0.1 0 0 Z " fill="#F3C421" transform="translate(352,576)"/>
<path d="M0 0 C8.91 0.66 17.82 1.32 27 2 C27 2.33 27 2.66 27 3 C23.92 3.2 20.83 3.38 17.75 3.56 C16.88 3.62 16 3.67 15.11 3.73 C14.26 3.78 13.42 3.83 12.55 3.88 C11.77 3.93 11 3.97 10.2 4.02 C7.97 4 6.13 3.63 4 3 C4 2.34 4 1.68 4 1 C2.68 0.67 1.36 0.34 0 0 Z " fill="#F8D43E" transform="translate(108,333)"/>
<path d="M0 0 C0.3 0.06 0.3 0.06 1.8 0.37 C8.19 1.66 14.59 2.85 21 4 C21 4.33 21 4.66 21 5 C13.5 6.62 7.32 4.98 0 3 C0 2.01 0 1.02 0 0 Z " fill="#F9D135" transform="translate(85,328)"/>
<path d="M0 0 C4.29 0.16 4.29 0.16 26 1 C26 1.33 26 1.66 26 2 C16.99 2.59 8.03 3.14 -1 3 C-0.67 2.01 -0.34 1.02 0 0 Z " fill="#FAD63E" transform="translate(472,245)"/>
<path d="M0 0 C4 -0.02 8 -0.04 12.01 -0.05 C13.36 -0.06 14.72 -0.07 16.08 -0.08 C18.05 -0.09 20.01 -0.09 21.97 -0.1 C23.15 -0.1 24.33 -0.11 25.54 -0.11 C29.09 0 32.5 0.43 36 1 C36 1.33 36 1.66 36 2 C34.51 2.17 34.51 2.17 27 3 C27 2.34 27 1.68 27 1 C18.09 1 9.18 1 0 1 C0 0.67 0 0.34 0 0 Z " fill="#FAD945" transform="translate(347,74)"/>
<path d="M0 0 C2.01 1.67 2.91 2.6 3.48 5.19 C3.5 5.58 3.5 5.58 3.62 7.56 C3.92 11.84 3.92 11.84 5 14 C4.06 16.12 4.06 16.12 3 18 C2.49 15.94 1.99 13.88 1.5 11.81 C1.22 10.66 0.94 9.52 0.66 8.33 C0.09 5.43 -0.13 2.94 0 0 Z " fill="#F8D238" transform="translate(249,200)"/>
<path d="M0 0 C5.28 0.33 10.56 0.66 16 1 C16 1.33 16 1.66 16 2 C13.2 2.16 13.2 2.16 -1 3 C-0.67 2.01 -0.34 1.02 0 0 Z " fill="#F9D23A" transform="translate(503,243)"/>
<path d="M0 0 C0.33 0.99 0.66 1.98 1 3 C-1.31 5.31 -3.62 7.62 -6 10 C-6.99 9.67 -7.98 9.34 -9 9 C-6.03 6.03 -3.06 3.06 0 0 Z " fill="#F7C81C" transform="translate(485,507)"/>
<path d="M0 0 C1.81 0.5 1.81 0.5 11 3 C7 5 7 5 3.81 4.31 C2.88 3.88 1.96 3.45 1 3 C0.67 2.01 0.34 1.02 0 0 Z " fill="#FAD132" transform="translate(70,323)"/>
<path d="M0 0 C0 3.4 -0.52 4.07 -2.5 6.69 C-2.96 7.31 -3.43 7.93 -3.91 8.57 C-4.27 9.04 -4.63 9.52 -5 10 C-5.61 8.17 -5.61 8.17 -6 6 C-4.21 3.35 -2.88 1.44 0 0 Z " fill="#FBCF1F" transform="translate(270,119)"/>
<path d="M0 0 C0.66 0.33 1.32 0.66 2 1 C-0.46 5.8 -0.46 5.8 -3.19 6.81 C-3.79 6.87 -4.38 6.94 -5 7 C-5.33 6.01 -5.66 5.02 -6 4 C-4.02 2.68 -2.04 1.36 0 0 Z " fill="#F9D236" transform="translate(302,89)"/>
<path d="M0 0 C1.26 0.12 2.52 0.25 3.81 0.38 C4.17 0.41 4.17 0.41 5.96 0.59 C8 1 8 1 11 3 C7.7 3 4.4 3 1 3 C0.67 2.01 0.34 1.02 0 0 Z " fill="#F6C41C" transform="translate(232,572)"/>
<path d="M0 0 C1.63 0.45 3.25 0.91 4.88 1.38 C5.78 1.63 6.68 1.89 7.62 2.15 C10 3 10 3 12 5 C7.12 5.35 4.23 4.42 0 2 C0 1.34 0 0.68 0 0 Z " fill="#F9D339" transform="translate(403,81)"/>
<path d="M0 0 C0.33 0.66 0.66 1.32 1 2 C0.36 2.29 -0.28 2.58 -0.94 2.88 C-3 4 -3 4 -4 6 C-6.56 6.62 -6.56 6.62 -9 7 C-8.26 4.61 -7.53 3.29 -5.31 2.07 C-3.56 1.33 -1.78 0.66 0 0 Z " fill="#F4C51D" transform="translate(423,552)"/>
<path d="M0 0 C0.33 0 0.66 0 1 0 C1.33 2.64 1.66 5.28 2 8 C2.99 8.33 3.98 8.66 5 9 C4.01 9.66 3.02 10.32 2 11 C0.44 9.44 0.44 9.44 -1 7 C-0.69 3.25 -0.69 3.25 0 0 Z " fill="#F7D03B" transform="translate(475,163)"/>
<path d="M0 0 C0.49 0.33 0.49 0.33 3 2 C3.19 5.62 3.19 5.62 3 9 C2.67 9.17 2.67 9.17 1 10 C0.67 6.7 0.34 3.4 0 0 Z " fill="#F6D035" transform="translate(36,368)"/>
<path d="M0 0 C0.89 0.13 1.79 0.26 2.71 0.39 C3.61 0.51 4.51 0.63 5.44 0.75 C6.12 0.86 6.81 0.96 7.52 1.07 C7.52 1.4 7.52 1.73 7.52 2.07 C5.37 2.24 5.37 2.24 -5.48 3.07 C-2.48 0.07 -2.48 0.07 0 0 Z " fill="#F9D441" transform="translate(525.48046875,240.92578125)"/>
<path d="M0 0 C3.65 1.25 4.78 1.67 7 5 C6.67 5.66 6.34 6.32 6 7 C5.34 7 4.68 7 4 7 C3.34 5.84 3.34 5.84 0 0 Z " fill="#F9D134" transform="translate(427,93)"/>
<path d="M0 0 C1.32 0.66 2.64 1.32 4 2 C2.71 2.7 1.42 3.38 0.12 4.06 C-0.23 4.25 -0.23 4.25 -2.05 5.22 C-2.7 5.48 -3.34 5.74 -4 6 C-4.66 5.67 -5.32 5.34 -6 5 C-5.2 4.73 -4.39 4.46 -3.56 4.19 C-2.72 3.8 -1.87 3.4 -1 3 C-0.67 2.01 -0.34 1.02 0 0 Z " fill="#F5CE3A" transform="translate(425,551)"/>
<path d="M0 0 C0.66 0.66 1.32 1.32 2 2 C1.97 4.73 1.44 7.3 1 10 C-0.85 6.88 -1.29 4.62 -1 1 C-0.67 0.67 -0.34 0.34 0 0 Z " fill="#F8D03C" transform="translate(39,378)"/>
<path d="M0 0 C0.33 0 0.66 0 1 0 C1.33 3.96 1.66 7.92 2 12 C-1 9 -1 9 -1.07 6.74 C-0.95 5.94 -0.82 5.14 -0.69 4.31 C-0.57 3.5 -0.45 2.7 -0.32 1.86 C-0.22 1.25 -0.11 0.63 0 0 Z " fill="#F8D23A" transform="translate(523,386)"/>
<path d="M0 0 C1.65 0 3.3 0 5 0 C5 0.33 5 0.66 5 1 C3.35 1 1.7 1 0 1 C0 0.67 0 0.34 0 0 Z " fill="#EDC62E" transform="translate(274,582)"/>
<path d="M0 0 C4 1 4 1 4 1 Z " fill="#ECC42C" transform="translate(323,582)"/>
<path d="M0 0 C3 1 3 1 3 1 Z " fill="#F2CB38" transform="translate(556,239)"/>
<path d="M0 0 C2 1 2 1 2 1 Z " fill="#EDC42C" transform="translate(308,583)"/>
<path d="M0 0 C2 1 2 1 2 1 Z " fill="#EFC52E" transform="translate(292,583)"/>
<path d="M0 0 C2 1 2 1 2 1 Z " fill="#EDC42D" transform="translate(371,575)"/>
<path d="M0 0 C2 1 2 1 2 1 Z " fill="#F5D03B" transform="translate(502,247)"/>
<path d="M0 0 C2 1 2 1 2 1 Z " fill="#EFCC39" transform="translate(549,200)"/>
<path d="M0 0 C2 1 2 1 2 1 Z " fill="#F4D03C" transform="translate(385,74)"/>
</svg>
