<svg xmlns="http://www.w3.org/2000/svg" version="1.1" xmlns:xlink="http://www.w3.org/1999/xlink" width="1000" height="1000"><style>
    #light-icon {
      display: inline;
    }
    #dark-icon {
      display: none;
    }

    @media (prefers-color-scheme: dark) {
      #light-icon {
        display: none;
      }
      #dark-icon {
        display: inline;
      }
    }
  </style><g id="light-icon"><svg xmlns="http://www.w3.org/2000/svg" version="1.1" xmlns:xlink="http://www.w3.org/1999/xlink" width="1000" height="1000"><g><g transform="matrix(23.622045756091605,0,0,23.622045756091605,0.000047244091547327116,0)"><svg xmlns="http://www.w3.org/2000/svg" version="1.1" xmlns:xlink="http://www.w3.org/1999/xlink" width="42.333332" height="42.333336"><svg viewBox="0 0 42.333332 42.333336" version="1.1" id="svg1" xmlns="http://www.w3.org/2000/svg" xmlns:svg="http://www.w3.org/2000/svg">
  <defs id="defs1"></defs>
  <g id="g1" transform="matrix(0.8957359,0,0,0.8957359,-135.07954,-8.5785323)">
    <path style="display:inline;fill:#ffc62e;fill-opacity:1;stroke-width:0.140074" d="m 166.66411,34.890475 -7.76328,13.446654 1.93749,3.356896 a 5.0530526,5.0530526 0 0 0 4.37648,2.526095 h 3.88195 l 8.08554,-13.997132 c -0.93425,-1.523889 -1.83784,-3.320445 -2.35129,-5.332513 z" id="path11522"></path>
    <path style="display:inline;fill:#85c124;fill-opacity:1;stroke-width:0.140074" d="m 191.90216,21.443185 -2.3621,4.091714 c 1.47732,1.571876 2.38754,3.681874 2.38754,5.986602 0,3.905809 -1.78915,7.242531 -3.42238,9.696287 -1.63324,2.453756 -3.29905,4.118411 -3.29905,4.118411 -2.05208,2.054672 -2.05931,2.345937 -4.08854,0 0,0 -0.78775,-0.787537 -1.81098,-2.07732 l -6.32858,10.961241 h 10.67837 a 5.0374599,5.0374599 0 0 0 4.3625,-2.518468 l 9.22336,-15.97529 a 5.0342983,5.0342983 0 0 0 0,-5.034391 z" id="path11520"></path>
    <path style="display:inline;fill:#666870;fill-opacity:1;stroke-width:0.140074" d="m 179.77132,12.198214 -11.16593,19.329644 h 5.79145 v -0.0064 c 0,-4.80668 3.95836,-8.765688 8.76506,-8.765688 1.29638,0 2.53095,0.287954 3.64293,0.802834 l 3.1624,-5.477442 -1.94448,-3.362618 a 5.0472513,5.0472513 0 0 0 -4.36948,-2.520373 z" id="path11519"></path>
    <path style="display:inline;fill:#177bba;fill-opacity:1;stroke-width:0.140074" d="m 165.2148,12.198214 a 5.0426934,5.0426934 0 0 0 -4.36695,2.521009 l -9.22463,15.977197 a 5.0263019,5.0263019 0 0 0 0,5.026128 l 5.34269,9.253235 L 175.89,12.198214 Z" id="path11518"></path>
    <path d="m 183.162,25.645362 c -3.24529,0 -5.87612,2.630851 -5.87612,5.876127 v 0.0072 c 4.4e-4,0.567474 0.0556,1.134953 0.15451,1.697054 0.099,0.562099 0.24165,1.118391 0.41806,1.664498 0.2702,0.836478 0.6192,1.648007 1.00873,2.415873 0.61622,1.214741 1.33423,2.320105 2.00504,3.241146 1.22379,1.680245 2.28972,2.747064 2.28978,2.747119 0,0 5.87665,-5.882817 5.87665,-11.772925 0,-0.293786 -0.0214,-0.582809 -0.063,-0.865063 -0.13344,-0.904938 -0.47332,-1.742679 -0.96996,-2.463933 -0.65064,-0.944852 -1.57095,-1.690082 -2.64945,-2.124418 -0.67787,-0.272986 -1.41863,-0.422713 -2.19419,-0.422713 z m 0,2.970361 a 2.9051929,2.9051929 0 0 1 0.67697,0.0801 2.9051929,2.9051929 0 0 1 2.22828,2.825667 2.9051929,2.9051929 0 0 1 0,0.02791 2.9051929,2.9051929 0 0 1 -1.42833,2.473234 2.9051929,2.9051929 0 0 1 -1.47692,0.403593 2.9051929,2.9051929 0 0 1 -2.90524,-2.897497 2.9051929,2.9051929 0 0 1 0,-0.0072 2.9051929,2.9051929 0 0 1 2.90524,-2.904732 z" style="display:inline;fill:#ff4c52;fill-opacity:1;stroke-width:0.140074" id="path1"></path>
  </g>
</svg></svg></g></g></svg></g><g id="dark-icon"><svg xmlns="http://www.w3.org/2000/svg" version="1.1" xmlns:xlink="http://www.w3.org/1999/xlink" width="1000" height="1000"><g><g transform="matrix(23.622045756091605,0,0,23.622045756091605,0.000047244091547327116,0)"><svg xmlns="http://www.w3.org/2000/svg" version="1.1" xmlns:xlink="http://www.w3.org/1999/xlink" width="42.333332" height="42.333336"><svg viewBox="0 0 42.333332 42.333336" version="1.1" id="svg1" xmlns="http://www.w3.org/2000/svg" xmlns:svg="http://www.w3.org/2000/svg">
  <defs id="defs1"></defs>
  <g id="g1" transform="matrix(0.78851053,0,0,0.78851053,-116.37747,-5.0191163)">
    <path d="m 165.2148,8.8362319 a 8.4044765,8.4044765 0 0 0 -7.27889,4.2023181 l -9.21763,15.965756 a 8.4092636,8.4092636 0 0 0 0,8.409721 l 9.21954,15.968298 a 8.399178,8.399178 0 0 0 7.27381,4.199775 h 18.44164 a 8.404458,8.404458 0 0 0 7.27888,-4.202317 l 9.22273,-15.974655 a 8.3915514,8.3915514 0 0 0 0,-8.391923 l -9.22145,-15.972113 a 8.4096648,8.4096648 0 0 0 -7.28335,-4.2048601 z" style="display:inline;fill:#ffffff;fill-opacity:1;stroke-width:0.140074" id="path11525"></path>
    <path style="display:inline;fill:#ffc62e;fill-opacity:1;stroke-width:0.140074" d="m 166.66411,34.890475 -7.76328,13.446654 1.93749,3.356896 a 5.0530526,5.0530526 0 0 0 4.37648,2.526095 h 3.88195 l 8.08554,-13.997132 c -0.93425,-1.523889 -1.83784,-3.320445 -2.35129,-5.332513 z" id="path11522"></path>
    <path style="display:inline;fill:#85c124;fill-opacity:1;stroke-width:0.140074" d="m 191.90216,21.443185 -2.3621,4.091714 c 1.47732,1.571876 2.38754,3.681874 2.38754,5.986602 0,3.905809 -1.78915,7.242531 -3.42238,9.696287 -1.63324,2.453756 -3.29905,4.118411 -3.29905,4.118411 -2.05208,2.054672 -2.05931,2.345937 -4.08854,0 0,0 -0.78775,-0.787537 -1.81098,-2.07732 l -6.32858,10.961241 h 10.67837 a 5.0374599,5.0374599 0 0 0 4.3625,-2.518468 l 9.22336,-15.97529 a 5.0342983,5.0342983 0 0 0 0,-5.034391 z" id="path11520"></path>
    <path style="display:inline;fill:#666870;fill-opacity:1;stroke-width:0.140074" d="m 179.77132,12.198214 -11.16593,19.329644 h 5.79145 v -0.0064 c 0,-4.80668 3.95836,-8.765688 8.76506,-8.765688 1.29638,0 2.53095,0.287954 3.64293,0.802834 l 3.1624,-5.477442 -1.94448,-3.362618 a 5.0472513,5.0472513 0 0 0 -4.36948,-2.520373 z" id="path11519"></path>
    <path style="display:inline;fill:#177bba;fill-opacity:1;stroke-width:0.140074" d="m 165.2148,12.198214 a 5.0426934,5.0426934 0 0 0 -4.36695,2.521009 l -9.22463,15.977197 a 5.0263019,5.0263019 0 0 0 0,5.026128 l 5.34269,9.253235 L 175.89,12.198214 Z" id="path11518"></path>
    <path d="m 183.162,25.645362 c -3.24529,0 -5.87612,2.630851 -5.87612,5.876127 v 0.0072 c 4.4e-4,0.567474 0.0556,1.134953 0.15451,1.697054 0.099,0.562099 0.24165,1.118391 0.41806,1.664498 0.2702,0.836478 0.6192,1.648007 1.00873,2.415873 0.61622,1.214741 1.33423,2.320105 2.00504,3.241146 1.22379,1.680245 2.28972,2.747064 2.28978,2.747119 0,0 5.87665,-5.882817 5.87665,-11.772925 0,-0.293786 -0.0214,-0.582809 -0.063,-0.865063 -0.13344,-0.904938 -0.47332,-1.742679 -0.96996,-2.463933 -0.65064,-0.944852 -1.57095,-1.690082 -2.64945,-2.124418 -0.67787,-0.272986 -1.41863,-0.422713 -2.19419,-0.422713 z m 0,2.970361 a 2.9051929,2.9051929 0 0 1 0.67697,0.0801 2.9051929,2.9051929 0 0 1 2.22828,2.825667 2.9051929,2.9051929 0 0 1 0,0.02791 2.9051929,2.9051929 0 0 1 -1.42833,2.473234 2.9051929,2.9051929 0 0 1 -1.47692,0.403593 2.9051929,2.9051929 0 0 1 -2.90524,-2.897497 2.9051929,2.9051929 0 0 1 0,-0.0072 2.9051929,2.9051929 0 0 1 2.90524,-2.904732 z" style="display:inline;fill:#ff4c52;fill-opacity:1;stroke-width:0.140074" id="path1"></path>
  </g>
</svg></svg></g></g></svg></g></svg>
