<?xml version="1.0" encoding="utf-8"?>
<!-- Generator: Adobe Illustrator 27.5.0, SVG Export Plug-In . SVG Version: 6.00 Build 0)  -->
<svg version="1.1" xmlns="http://www.w3.org/2000/svg" xmlns:xlink="http://www.w3.org/1999/xlink" x="0px" y="0px"
	 width="376.41px" height="308px" viewBox="0 0 376.41 308" style="enable-background:new 0 0 376.41 308;" xml:space="preserve">
<style type="text/css">
	.st0{display:none;fill:#1D202B;}
	.st1{fill:#6ACEFF;}
	.st2{fill:#355CFF;}
	.st3{fill:#4A7DFF;}
	.st4{fill:#2A90FF;}
	.st5{fill:url(#SVGID_1_);}
	.st6{fill:none;stroke:#000000;stroke-width:9;stroke-miterlimit:10;}
	.st7{stroke:#FFFFFF;stroke-width:4;stroke-linejoin:round;stroke-miterlimit:10;}
	.st8{fill:#56B4FF;stroke:#FFFFFF;stroke-width:4;stroke-miterlimit:10;}
	.st9{fill:#6ACEFF;stroke:#FFFFFF;stroke-width:4;stroke-miterlimit:10;}
	.st10{fill:#355CFF;stroke:#FFFFFF;stroke-width:4;stroke-miterlimit:10;}
	.st11{fill:#4A7DFF;stroke:#FFFFFF;stroke-width:4;stroke-miterlimit:10;}
	.st12{fill:#2A90FF;stroke:#FFFFFF;stroke-width:4;stroke-miterlimit:10;}
	.st13{fill:none;stroke:#FFFFFF;stroke-width:4;stroke-miterlimit:10;}
	.st14{fill:#334155;stroke:#FFFFFF;stroke-width:5;stroke-miterlimit:10;}
</style>
<g id="Capa_2">
	<rect x="-10.9" y="-523" class="st0" width="463" height="922"/>
	<g>
		<g>
			<path class="st1" d="M66.71,150.23c9.65-7.45,22.68-9.06,38.8-4.79V76.71H48.6v116.83c0.32-0.05,0.63-0.09,0.96-0.13
				C49.65,184.87,51.4,162.06,66.71,150.23z"/>
			<path class="st1" d="M48.6,69.71h56.91V32.5c0-4.69-3.81-8.5-8.5-8.5H57.1c-4.69,0-8.5,3.81-8.5,8.5V69.71z"/>
		</g>
		<g>
			<path class="st2" d="M112.6,40.09h61.9V8.5c0-4.69-3.81-8.5-8.5-8.5h-44.9c-4.69,0-8.5,3.81-8.5,8.5V40.09z"/>
			<path class="st2" d="M174.5,92.5V47.09h-61.9v100.54c1.06,0.37,2.15,0.77,3.26,1.2C119.67,137.65,133.9,105.56,174.5,92.5z"/>
		</g>
		<g>
			<path class="st3" d="M182.6,40.5h70.39V9c0-4.69-3.81-8.5-8.5-8.5H191.1c-4.69,0-8.5,3.81-8.5,8.5V40.5z"/>
			<path class="st3" d="M211.6,86.99c15.69,0,29.58,3.14,41.38,9.36V47.5H182.6v42.75c8.57-2.03,17.78-3.12,27.46-3.25
				C210.57,86.99,211.09,86.99,211.6,86.99z"/>
		</g>
		<g>
			<path class="st4" d="M314.05,37.63c-0.71-4.63-5.07-7.83-9.69-7.12l-36.44,5.55c-4.63,0.71-7.83,5.05-7.13,9.68l5.64,36.99
				l53.26-8.12L314.05,37.63z"/>
			<path class="st4" d="M295.17,161.83c6.5,0.64,22.57,2.85,39.33,9.98l-13.76-90.28l-53.26,8.12l2.99,19.6
				C289.32,128.17,294.06,153.21,295.17,161.83z"/>
		</g>
		<linearGradient id="SVGID_1_" gradientUnits="userSpaceOnUse" x1="89.4269" y1="142.5126" x2="304.5234" y2="366.2552">
			<stop  offset="0" style="stop-color:#93AAD1"/>
			<stop  offset="0.0122" style="stop-color:#92A9CF"/>
			<stop  offset="0.2748" style="stop-color:#7890B1"/>
			<stop  offset="0.5313" style="stop-color:#657E9B"/>
			<stop  offset="0.777" style="stop-color:#5A738D"/>
			<stop  offset="1" style="stop-color:#566F89"/>
		</linearGradient>
		<path class="st5" d="M337.38,180.84c-21.97-10.91-45.34-12.25-45.57-12.26l-3.11-0.16l-0.2-3.11c-0.02-0.3-2.3-31.03-23.75-51.88
			c-3.12-3.03-6.53-5.74-10.15-8.05c-11.76-7.57-26.22-11.4-43-11.4c-0.49,0-0.97,0-1.46,0.01c-10.75,0.14-20.88,1.53-30.09,4.14
			l-0.12,0.03c-0.3,0.07-0.61,0.17-0.91,0.26c-46.68,13.74-57.42,55.48-57.53,55.9l-0.98,3.98l-3.78-1.58
			c-3.08-1.29-6.01-2.38-8.71-3.24l-0.11-0.04c-15.89-5.11-28.32-4.33-36.92,2.31c-15.75,12.14-14.43,40.27-14.41,40.55l0.18,3.31
			l-3.3,0.36c-2.73,0.29-5.32,0.67-7.71,1.14C-7.3,211.15,0.2,260.82,0.55,262.93l0.04,0.41c1.8,39.53,56.79,44.44,59.52,44.66
			H287.1c70.9,0,86.06-43.02,86.83-45.4C382.17,224.49,369.87,196.98,337.38,180.84z"/>
	</g>
</g>
<g id="Capa_3">
	<g>
		<g>
			<path class="st6" d="M-349-193h-39.91c-6.6,0-12-5.4-12-12v-219.5c0-6.6,5.4-12,12-12H-349c6.6,0,12,5.4,12,12V-205
				C-337-198.4-342.4-193-349-193z"/>
			<line class="st6" x1="-400.85" y1="-383.79" x2="-336.9" y2="-383.79"/>
		</g>
		<g>
			<path class="st6" d="M-280-193h-44.9c-6.6,0-12-5.4-12-12v-242.5c0-6.6,5.4-12,12-12h44.9c6.6,0,12,5.4,12,12V-205
				C-268-198.4-273.4-193-280-193z"/>
			<line class="st6" x1="-336.84" y1="-412.59" x2="-267.9" y2="-412.59"/>
		</g>
		<g>
			<path class="st6" d="M-202.52-193h-53.39c-6.6,0-12-5.4-12-12v-243c0-6.6,5.4-12,12-12h53.39c6.6,0,12,5.4,12,12v243
				C-190.52-198.4-195.92-193-202.52-193z"/>
			<line class="st6" x1="-267.83" y1="-413" x2="-190.4" y2="-413"/>
		</g>
		<g>
			<path class="st6" d="M-106.65-196.99l-36.44,5.56c-6.52,0.99-12.68-3.53-13.67-10.05l-31.9-209.24
				c-0.99-6.52,3.53-12.68,10.05-13.67l36.44-5.56c6.52-0.99,12.68,3.53,13.67,10.05l31.9,209.24
				C-95.61-204.13-100.13-197.98-106.65-196.99z"/>
			<line class="st6" x1="-184.17" y1="-370.03" x2="-123.97" y2="-379.2"/>
		</g>
		<path class="st7" d="M-448.9-193.5c0,0-10-60,56-67c0,0-4-72,65-43c0,0,15-62,92-63s81.89,74.59,81.89,74.59
			s105.56,5.41,85.33,98.41c0,0-14.22,48-90.22,48s-227.11,0-227.11,0S-446.9-149.5-448.9-193.5z"/>
	</g>
	<g>
		<g>
			<path class="st8" d="M-359,234h-39.91c-6.6,0-12-5.4-12-12V2.5c0-6.6,5.4-12,12-12H-359c6.6,0,12,5.4,12,12V222
				C-347,228.6-352.4,234-359,234z"/>
			<line class="st9" x1="-410.85" y1="43.21" x2="-346.9" y2="43.21"/>
		</g>
		<g>
			<path class="st10" d="M-290,234h-44.9c-6.6,0-12-5.4-12-12V-20.5c0-6.6,5.4-12,12-12h44.9c6.6,0,12,5.4,12,12V222
				C-278,228.6-283.4,234-290,234z"/>
			<line class="st10" x1="-346.84" y1="14.41" x2="-277.9" y2="14.41"/>
		</g>
		<g>
			<path class="st11" d="M-210.52,234h-53.39c-6.6,0-12-5.4-12-12V-21c0-6.6,5.4-12,12-12h53.39c6.6,0,12,5.4,12,12v243
				C-198.52,228.6-203.92,234-210.52,234z"/>
			<line class="st11" x1="-275.83" y1="14" x2="-198.4" y2="14"/>
		</g>
		<g>
			<path class="st12" d="M-116.65,230.01l-36.44,5.56c-6.52,0.99-12.68-3.53-13.67-10.05l-31.9-209.24
				c-0.99-6.52,3.53-12.68,10.05-13.67l36.44-5.56c6.52-0.99,12.68,3.53,13.67,10.05l31.9,209.24
				C-105.61,222.87-110.13,229.02-116.65,230.01z"/>
			<line class="st13" x1="-194.17" y1="56.97" x2="-133.97" y2="47.8"/>
		</g>
		<path class="st14" d="M-458.9,233.5c0,0-10-60,56-67c0,0-4-72,65-43c0,0,15-62,92-63s81.89,74.59,81.89,74.59
			s105.56,5.41,85.33,98.41c0,0-14.22,48-90.22,48s-227.11,0-227.11,0S-456.9,277.5-458.9,233.5z"/>
	</g>
</g>
</svg>
