<svg width="300" height="300" viewBox="0 0 300 300" fill="none" xmlns="http://www.w3.org/2000/svg">
<g clip-path="url(#clip0_695_30)">
<path d="M151.651 152.351C151.651 152.351 201.322 154.141 224.146 173.831C246.968 193.522 262.632 231.112 255.918 263.781C242.493 260.647 185.212 250.802 161.942 222.162C138.672 193.522 139.567 173.385 142.252 161.301C144.937 149.22 151.651 152.351 151.651 152.351" fill="#1C9CF3"/>
<path d="M142.946 161.422C141.812 166.527 140.588 174.544 143.055 185.177C145.74 196.748 152.127 209.206 162.621 221.717C186.631 250.341 254.249 261.95 255.07 262.129C257.64 247.25 255.905 231.748 249.879 215.55C243.926 199.55 234.365 185.315 222.959 175.47C200.489 156.088 150.738 154.078 150.239 154.062L149.726 154.043L149.356 153.849C149.351 153.849 148.934 153.689 148.359 153.689C145.977 153.689 144.055 156.434 142.946 161.422V161.422Z" fill="url(#paint0_radial_695_30)"/>
<path d="M138.672 152.35C138.672 152.35 144.937 165.329 130.171 185.019C115.402 204.709 84.5253 236.481 7.55469 229.77C10.2397 211.421 23.6648 192.626 38.4312 179.2C53.2001 165.775 86.3153 151.904 108.242 151.455C130.171 151.009 138.672 152.35 138.672 152.35" fill="#04BBF3"/>
<path d="M108.632 153.196C98.4022 153.404 84.6764 156.702 70.9625 162.246C57.6042 167.645 45.8307 174.483 38.6611 181.001C22.5223 195.674 12.1331 213.023 9.03516 228.591C15.231 229.071 26.8088 229.312 26.8088 229.312C54.3726 229.312 77.3946 224.26 96.2852 213.498C113.033 203.961 123.09 192.03 129.198 183.886C140.914 168.266 139.1 157.342 138.069 153.922C135.491 153.645 128.976 153.101 117.379 153.101C114.598 153.101 111.655 153.132 108.632 153.196V153.196Z" fill="url(#paint1_linear_695_30)"/>
<path d="M295.3 106.705C295.3 106.705 286.35 132.66 242.494 145.19C198.639 157.72 151.652 149.665 151.652 149.665C151.652 149.665 162.839 120.13 195.059 106.259C227.279 92.3848 284.113 104.915 295.3 106.705Z" fill="#02BEF3"/>
<path d="M194.26 109.149C168.035 120.44 155.657 142.293 152.027 149.854C157.436 150.591 169.839 152.007 185.4 152.007C206.06 152.007 224.938 149.606 241.511 144.871C276.894 134.763 289.806 114.626 293.35 107.865C292.77 107.762 252.476 99.8027 229.487 99.8027C213.012 99.8027 204.205 104.865 194.26 109.149V109.149Z" fill="url(#paint2_radial_695_30)"/>
<path d="M137.878 153.843C137.878 153.843 74.0582 150.838 36.5991 123.508C-0.862302 96.1779 0.00167972 87.1681 0.00167972 87.1681C0.00167972 87.1681 42.005 87.0392 62.7381 94.5143C83.4736 101.992 116.047 123.03 137.878 153.843Z" fill="#02BEF3"/>
<path d="M38.8006 123.008C53.2854 133.577 70.7727 141.047 91.322 146.073C91.3268 146.076 91.3268 146.076 91.3316 146.076C113.167 148.696 131.273 152.737 135.626 153.109C126.041 140.071 114.11 128.276 101.303 118.459C88.9091 108.936 75.8277 101.411 64.9587 97.1176C62.9419 96.3133 60.8059 95.5925 58.6053 94.9338C39.4689 89.2129 7.37512 88.8382 2.43945 88.7666C3.65428 91.0149 7.92644 100.483 38.8006 123.008V123.008Z" fill="url(#paint3_radial_695_30)"/>
<path fill-rule="evenodd" clip-rule="evenodd" d="M138.338 160.029C144.011 160.754 147.073 173.442 145.168 188.347C143.264 203.249 137.111 214.76 131.435 214.035C125.762 213.311 122.7 200.621 124.605 185.719C126.509 170.814 132.662 159.303 138.338 160.029V160.029Z" fill="url(#paint4_radial_695_30)"/>
<path d="M146.728 152.041C127.738 155.614 154.583 240.632 183.333 253.544C238.599 278.368 269.237 230.606 269.237 213.307C269.237 196.006 193.14 143.315 146.728 152.041V152.041Z" fill="url(#paint5_radial_695_30)"/>
<path d="M119.895 176.342C112.986 188.898 168.502 231.63 193.329 226.859C218.155 222.088 251.256 196.956 248.681 183.297C246.105 169.635 200.959 131.785 164.834 145.317C141.137 154.193 126.805 163.786 119.895 176.342V176.342Z" fill="url(#paint6_radial_695_30)"/>
<path d="M143.581 181.895C138.385 195.254 174.799 233.29 198.78 225.29C222.761 217.29 252.263 188.017 247.912 174.817C243.559 161.616 193.82 130.04 159.793 148.215C137.473 160.134 148.777 168.537 143.581 181.895V181.895Z" fill="url(#paint7_radial_695_30)"/>
<path d="M139.803 175.792C135.378 187.06 166.25 219.089 186.62 212.318C206.991 205.547 232.07 180.835 228.39 169.709C224.709 158.582 182.515 132.016 153.605 147.376C134.643 157.451 144.23 164.525 139.803 175.792V175.792Z" fill="url(#paint8_radial_695_30)"/>
<path d="M146.547 174.594C142.783 186.034 100.787 233.297 71.8149 239.928C42.8405 246.56 14.3125 216.247 11.6418 202.254C8.97109 188.263 52.6976 148.381 97.5028 144.925C126.892 142.658 152.862 155.415 146.547 174.594" fill="url(#paint9_radial_695_30)"/>
<path d="M145.73 168.251C142.833 181.569 104.276 234.563 75.6642 240.207C47.0502 245.859 16.0257 207.574 12.2571 190.717C8.49093 173.86 49.3581 129.787 94.1324 129.145C123.498 128.723 150.592 145.914 145.73 168.251Z" fill="url(#paint10_radial_695_30)"/>
<path d="M124.963 176.459C120.865 183.862 87.2461 209.474 67.9641 208.717C48.6821 207.963 35.2474 181.086 35.6698 170.659C36.0923 160.232 69.6921 140.186 98.485 146.174C117.371 150.105 131.837 164.046 124.963 176.459Z" fill="url(#paint11_radial_695_30)"/>
<path d="M82.5696 164.01C74.1709 165.05 33.6855 152.926 22.955 136.885C12.2221 120.849 26.0553 94.1753 34.7381 88.3828C43.4184 82.5927 79.3929 97.9725 91.4863 124.782C99.4172 142.367 96.6511 162.265 82.5696 164.01" fill="url(#paint12_radial_695_30)"/>
<path fill-rule="evenodd" clip-rule="evenodd" d="M229.8 94.3975C266.152 89.5883 297.546 99.906 299.864 117.427C302.184 134.945 274.553 153.074 238.201 157.883C201.85 162.693 170.458 152.375 168.138 134.857C165.82 117.336 193.451 99.2091 229.8 94.3975V94.3975Z" fill="url(#paint13_radial_695_30)"/>
<path fill-rule="evenodd" clip-rule="evenodd" d="M237.174 96.7675C269.957 100.149 295.151 116.675 293.402 133.647C291.65 150.618 263.611 161.652 230.828 158.268C198.042 154.886 172.848 138.36 174.6 121.389C176.352 104.417 204.388 93.3832 237.174 96.7675V96.7675Z" fill="url(#paint14_radial_695_30)"/>
<path fill-rule="evenodd" clip-rule="evenodd" d="M213.804 102.266C241.445 98.8534 265.359 108.011 267.171 122.701C268.985 137.389 248.013 152.084 220.373 155.494C192.73 158.905 168.815 149.75 167.004 135.059C165.19 120.372 186.162 105.677 213.804 102.266V102.266Z" fill="url(#paint15_radial_695_30)"/>
<path d="M141.296 153.262C141.348 154.141 143.632 171.986 128.193 178.688C116.252 183.869 101.574 186.425 69.0246 171.654C36.4726 156.885 25.1621 135.427 25.1621 135.427C25.1621 135.427 43.3701 142.114 54.6783 142.952C65.9888 143.787 95.228 147.966 102.677 149.36C110.123 150.754 123.365 149.639 128.331 148.525C133.296 147.408 140.745 144.343 141.296 153.262" fill="#B3C3CE"/>
<path d="M69.0222 170.759C101.574 185.53 116.255 182.974 128.193 177.795C143.63 171.091 141.348 153.246 141.296 152.365C140.742 143.448 133.296 146.515 128.331 147.63C123.365 148.744 110.455 147.957 99.7413 147.205C86.9868 146.31 66.4017 143.625 54.6806 142.055C43.4394 140.551 25.1621 134.529 25.1621 134.529C25.1621 134.529 36.475 155.988 69.0222 170.759V170.759Z" fill="url(#paint16_linear_695_30)"/>
<path d="M131.532 137.014C131.532 137.014 121.169 128.821 112.737 119.906C104.302 110.99 77.0725 85.2062 70.3253 78.218C63.5805 71.2322 45.2651 47.3749 42.8546 37.2529C37.3127 49.5444 33.6992 71.953 40.4464 93.6408C47.1912 115.329 62.8574 130.99 83.5786 139.666C104.302 148.339 122.374 147.859 127.434 147.859C132.496 147.859 139.484 144.484 131.532 137.014Z" fill="#F5F6F2"/>
<path d="M41.342 93.6408C48.0891 115.326 63.753 130.99 84.4766 139.663C105.198 148.341 123.27 148.463 128.332 148.463C131.189 148.463 140.239 148.1 140.688 146.759C141.65 143.869 136.091 141.728 132.633 138.479C123.449 131.219 123.621 130.465 113.632 119.906C105.198 110.99 77.9681 85.2062 71.2233 78.218C64.4761 71.2298 46.1583 47.3749 43.7501 37.2529C38.2083 49.542 34.5924 71.953 41.342 93.6408V93.6408Z" fill="url(#paint17_linear_695_30)"/>
<path d="M246.271 49.4534C237.321 57.5085 221.462 68.2199 206.247 78.065C191.032 87.9101 181.187 104.469 169.551 121.92C157.916 139.374 146.281 147.876 146.281 147.876C146.281 147.876 164.628 150.561 182.082 150.561C208.946 150.561 239.362 128.185 250.548 116.104C261.737 104.02 269.255 84.3372 269.344 64.1936C269.446 40.6585 258.558 36.0498 258.558 36.0498C258.558 36.0498 255.222 41.3984 246.271 49.4534V49.4534Z" fill="url(#paint18_linear_695_30)"/>
<path d="M247.532 47.6375C238.579 55.6925 220.567 68.2203 205.352 78.0653C190.137 87.9104 180.292 104.469 168.657 121.921C159.707 135.348 148.503 142.742 143.811 146.573C142.403 147.723 141.582 150.785 141.582 150.785C157.738 153.148 161.513 150.561 181.187 150.561C208.049 150.561 238.467 128.186 249.654 116.104C260.842 104.021 268.002 84.3304 268.449 64.1939C268.897 44.0551 258.604 36 258.604 36C258.604 36 256.479 39.5824 247.532 47.6375V47.6375Z" fill="url(#paint19_linear_695_30)"/>
<path fill-rule="evenodd" clip-rule="evenodd" d="M101.4 106.52C120.811 119.07 131.62 136.915 125.522 146.345C119.424 155.777 98.715 153.242 79.3065 140.693C59.8955 128.141 49.0862 110.296 55.1842 100.866C61.2822 91.4365 81.9915 93.9688 101.4 106.52V106.52Z" fill="url(#paint20_radial_695_30)"/>
<path fill-rule="evenodd" clip-rule="evenodd" d="M99.531 105.193C117.971 119.131 128.329 136.551 122.644 144.072C116.959 151.592 97.3734 146.382 78.9339 132.446C60.4943 118.51 50.1385 101.088 55.8212 93.5671C61.5063 86.0467 81.0914 91.2568 99.531 105.193Z" fill="url(#paint21_radial_695_30)"/>
<path fill-rule="evenodd" clip-rule="evenodd" d="M182.81 117.392C201.994 106.667 220.897 103.912 224.995 111.242C229.09 118.572 216.844 133.228 197.66 143.954C178.476 154.677 159.576 157.434 155.478 150.104C151.38 142.775 163.628 128.118 182.81 117.392V117.392Z" fill="url(#paint22_radial_695_30)"/>
<path fill-rule="evenodd" clip-rule="evenodd" d="M188.517 108.278C207.493 97.6691 226.561 95.6046 231.071 103.672C235.582 111.739 223.835 126.901 204.858 137.51C185.882 148.119 166.815 150.183 162.306 142.116C157.795 134.049 169.54 118.887 188.517 108.278Z" fill="url(#paint23_radial_695_30)"/>
<path fill-rule="evenodd" clip-rule="evenodd" d="M186.115 115.629C204.017 103.292 223.065 99.8269 228.626 107.896C234.19 115.966 224.17 132.534 206.27 144.873C188.37 157.21 169.322 160.675 163.758 152.606C158.197 144.537 168.214 127.968 186.115 115.629Z" fill="url(#paint24_radial_695_30)"/>
<path fill-rule="evenodd" clip-rule="evenodd" d="M208.03 98.0893C214.901 82.7 225.949 72.6496 232.691 75.6569C239.431 78.6665 239.326 93.6047 232.457 108.992C225.586 124.381 214.536 134.431 207.796 131.424C201.056 128.415 201.161 113.479 208.03 98.0893Z" fill="url(#paint25_radial_695_30)"/>
<path d="M58.5935 74.7379C56.6722 88.8265 59.9921 103.326 66.6199 112.87C73.2501 122.421 92.3078 141.052 111.086 143.701C123.285 145.417 136.376 145.348 136.376 145.348C136.376 145.348 129.077 138.26 122.664 124.913C116.251 111.569 110.998 99.0272 101.334 90.6452C91.6682 82.2679 81.6346 73.2176 76.1715 66.7043C70.7107 60.1934 68.9064 56.1289 68.9064 56.1289C68.9064 56.1289 60.8394 58.2745 58.5935 74.7379V74.7379Z" fill="url(#paint26_linear_695_30)"/>
<path d="M59.222 74.8267C57.5513 88.9464 60.6182 103.414 67.2484 112.961C73.8786 122.508 92.9339 141.143 111.712 143.788C125.464 145.726 126.772 146.477 138.298 146.415C138.298 146.415 129.706 138.346 123.29 125.002C116.875 111.658 111.626 99.1137 101.96 90.734C92.2943 82.3567 80.9384 71.8243 75.4753 65.3134C70.0122 58.8025 68.8785 56.0889 68.8785 56.0889C68.8785 56.0889 60.8903 60.7047 59.222 74.8267V74.8267Z" fill="url(#paint27_linear_695_30)"/>
<path fill-rule="evenodd" clip-rule="evenodd" d="M132.612 155.419C135.141 162.741 125.841 172.61 111.855 177.441C97.8662 182.271 84.4578 180.247 81.9279 172.925C79.4004 165.6 88.7013 155.734 102.687 150.903C116.673 146.072 130.084 148.096 132.612 155.419V155.419Z" fill="url(#paint28_radial_695_30)"/>
<path fill-rule="evenodd" clip-rule="evenodd" d="M126.622 160.338C126.906 167.264 116.65 173.321 103.729 173.854C90.8097 174.386 80.0911 169.195 79.8047 162.269C79.5183 155.34 89.7763 149.285 102.695 148.75C115.615 148.218 126.336 153.412 126.622 160.338V160.338Z" fill="url(#paint29_radial_695_30)"/>
<path fill-rule="evenodd" clip-rule="evenodd" d="M138.139 157.114C140.172 161.921 133.179 169.475 122.534 173.974C111.892 178.473 101.601 178.224 99.5697 173.418C97.5386 168.611 104.532 161.057 115.174 156.558C125.818 152.059 136.107 152.31 138.139 157.114Z" fill="url(#paint30_radial_695_30)"/>
<path d="M75.2316 154.53C80.4012 162.003 88.22 167.414 95.4635 169.056C102.707 170.702 119.731 171.268 129.732 164.423C136.228 159.97 142.369 154.292 142.369 154.292C142.369 154.292 135.87 154.098 127.092 150.568C118.311 147.038 110.423 143.387 102.254 143.602C94.0793 143.816 85.4442 143.876 80.0599 143.16C74.6731 142.446 72.0692 141.306 72.0692 141.306C72.0692 141.306 69.1933 145.797 75.2316 154.53V154.53Z" fill="url(#paint31_linear_695_30)"/>
<path d="M75.5655 154.303C80.8664 161.68 88.5515 167.181 95.7951 168.828C103.041 170.47 120.068 171.043 130.063 164.193C137.385 159.174 138.326 158.966 143.736 153.966C143.736 153.966 136.206 153.869 127.423 150.339C118.643 146.811 110.76 143.157 102.585 143.374C94.4132 143.591 84.5132 143.522 79.1288 142.806C73.7445 142.09 72.0404 141.298 72.0404 141.298C72.0404 141.298 70.2623 146.921 75.5655 154.303V154.303Z" fill="url(#paint32_linear_695_30)"/>
<path d="M235.744 151.964C227.694 155.353 191.891 153.449 178.76 151.964C165.626 150.482 152.055 150.711 149.523 150.482C140.463 149.666 142.11 152.599 141.472 161.709C139.99 186.92 149.523 192.003 156.513 193.063C163.506 194.123 169.862 190.734 169.862 190.734C169.862 190.734 239.133 159.38 245.489 155.988C246.673 149.487 246.386 147.43 244.935 147.43C243.265 147.43 240.05 150.153 235.744 151.964Z" fill="url(#paint33_radial_695_30)"/>
<path fill-rule="evenodd" clip-rule="evenodd" d="M171.065 160.239C182.874 168.619 189.244 179.953 185.285 185.534C181.323 191.116 168.52 188.841 156.714 180.459C144.904 172.08 138.534 160.745 142.494 155.163C146.456 149.583 159.258 151.857 171.065 160.239V160.239Z" fill="url(#paint34_radial_695_30)"/>
<path fill-rule="evenodd" clip-rule="evenodd" d="M168.009 160.239C177.076 166.674 181.22 176.428 177.26 182.008C173.298 187.588 162.723 186.894 153.658 180.459C144.591 174.025 140.448 164.27 144.407 158.69C148.369 153.11 158.945 153.805 168.009 160.239V160.239Z" fill="url(#paint35_radial_695_30)"/>
<path fill-rule="evenodd" clip-rule="evenodd" d="M177.024 160.938C186.089 167.373 190.232 177.127 186.273 182.707C182.311 188.287 171.735 187.595 162.671 181.161C153.606 174.726 149.46 164.972 153.422 159.389C157.382 153.809 167.957 154.504 177.024 160.938Z" fill="url(#paint36_radial_695_30)"/>
<path d="M146.423 163.155C152.717 173.516 168.466 180.003 175.746 181.488C183.025 182.972 192.376 181.256 200.164 176.573C209.259 171.103 208.486 165.826 208.486 165.826C208.486 165.826 205.644 165.79 200.443 164.23C195.24 162.661 187.393 159.055 180.035 155.494C172.676 151.936 163.986 152.017 154.53 151.618C145.077 151.22 139.074 148.726 139.074 148.726C139.074 148.726 142.334 156.43 146.423 163.155V163.155Z" fill="url(#paint37_linear_695_30)"/>
<path d="M146.216 162.812C152.505 173.173 168.257 179.66 175.536 181.142C182.816 182.626 192.083 180.774 199.952 176.23C207.824 171.688 208.516 165.834 208.516 165.834C208.516 165.834 206.64 165.85 201.439 164.287C196.236 162.721 187.186 158.709 179.825 155.151C172.467 151.59 163.777 151.671 154.321 151.275C144.868 150.874 137.963 147.864 137.963 147.864C140.834 154.65 141.607 155.227 146.216 162.812V162.812Z" fill="url(#paint38_linear_695_30)"/>
<path d="M243.164 157.05C243.164 157.05 246.074 154.814 245.849 150.339C245.627 145.864 246.744 139.15 223.028 124.605C215.197 138.704 188.123 176.294 176.263 184.795C164.404 193.299 162.504 193.01 162.504 193.01C162.504 193.01 169.356 192.192 175.368 187.705C181.867 182.855 243.164 157.05 243.164 157.05" fill="#CBD3DD"/>
<path d="M177.158 185.244C169.795 190.523 167.549 191.58 165.902 192.272C166.516 192.089 171.127 190.881 176.263 188.153C183.423 184.349 244.059 157.498 244.059 157.498C244.059 157.498 246.969 155.26 246.744 150.785C246.522 146.31 247.639 139.598 223.923 125.054C216.092 139.149 189.017 176.742 177.158 185.244V185.244Z" fill="url(#paint39_linear_695_30)"/>
<path d="M140.251 158.716C138.776 158.713 125.878 182.151 131.919 209.001C131.919 209.001 140.547 198.647 141.604 172.611C142.041 161.871 141.287 158.716 140.251 158.716V158.716Z" fill="url(#paint40_linear_695_30)"/>
<path d="M106.632 84.0864C109.667 81.1269 119.992 83.4945 122.419 86.75C124.794 89.9314 137.021 102.163 136.441 120.672C138.322 120.751 140.814 121.078 143.675 121.078C146.148 121.078 148.434 120.834 150.313 120.715C149.711 102.182 161.955 89.9338 164.33 86.75C166.757 83.4945 177.082 81.1269 180.118 84.0864C183.156 87.0459 175.261 86.75 171.616 85.8621C159.824 88.4732 152.291 114.595 150.687 120.693C153.437 120.543 155.213 120.736 155.213 122.557C155.213 125.316 151.348 129.768 145.971 130.245C146.191 131.352 147.468 137.531 146.029 144.033C145.444 146.675 140.017 149.665 140.017 149.665C134.253 130.782 139.962 128.944 140.04 128.787C135.32 128.08 132.744 125.09 132.744 122.557C132.744 120.944 133.978 120.608 136.055 120.658C134.429 114.495 126.902 88.4684 115.135 85.8621C111.491 86.75 103.596 87.0459 106.632 84.0864" fill="#00C6F9"/>
<path d="M164.33 87.6453C161.955 90.8315 149.711 103.075 150.313 121.613C148.434 121.73 146.146 121.973 143.675 121.973C140.814 121.973 138.322 121.648 136.441 121.567C137.021 103.058 124.794 90.8267 122.422 87.6453C119.992 84.3874 109.667 82.0222 106.632 84.9817C103.596 87.9412 111.491 87.6453 115.135 86.7574C126.902 89.3637 134.429 115.39 136.055 121.553C133.978 121.505 132.744 121.839 132.744 123.453C132.744 125.985 134.62 129.157 139.339 129.859C139.26 130.016 135.382 132.825 140.017 150.561C140.017 150.561 147.42 149.864 146.289 134.715C146.16 132.966 145.978 131.567 145.756 130.46C151.131 129.98 155.213 126.209 155.213 123.453C155.213 121.634 153.437 121.441 150.685 121.589C152.294 115.491 159.824 89.3685 171.616 86.7574C175.261 87.6453 183.156 87.9412 180.118 84.9817C179.144 84.0318 177.421 83.6309 175.449 83.6309C171.273 83.6309 165.979 85.4328 164.33 87.6453V87.6453Z" fill="url(#paint41_radial_695_30)"/>
<path d="M114.226 55.4891C111.99 60 119.878 60.673 122.563 59.3198C131.239 63.2936 136.783 102.967 137.981 112.361C136.451 112.285 135.542 112.796 135.542 115.254C135.542 119.113 137.625 124.631 141.1 125.708C141.043 125.947 141.012 126.09 141.012 126.09C141.012 126.09 135.093 137.135 140.017 161.3C140.017 161.3 145.523 149.219 145.523 132.424C145.523 129.753 145.294 127.627 145.129 125.937C149.091 125.207 152.098 119.459 152.098 115.254C152.098 112.483 150.793 112.187 148.764 112.416C149.688 101.333 153.463 63.7638 164.189 59.3198C166.874 60.673 174.419 60.1647 172.18 55.6538C169.943 51.143 162.024 54.7397 158.884 58.9642C155.435 63.5991 147.112 84.3323 147.554 112.583C146.172 112.765 145.415 112.999 143.597 112.999C141.489 112.999 139.652 112.502 138.265 112.381C138.692 84.1652 129.489 65.5872 127.933 60.673C126.463 56.019 121.888 53.2695 118.322 53.2695C116.52 53.2695 114.978 53.9736 114.226 55.4891V55.4891Z" fill="url(#paint42_linear_695_30)"/>
<path d="M114.226 56.368C111.99 60.8406 119.878 61.5089 122.563 60.1652C131.239 64.108 136.783 103.464 137.981 112.784C136.451 112.71 135.542 113.216 135.542 115.656C135.542 119.484 137.625 124.957 141.1 126.023C141.043 126.26 141.012 126.403 141.012 126.403C141.012 126.403 130.761 161.807 137.504 184.991C137.504 184.991 146.353 155.594 145.523 132.687C145.427 130.04 145.294 127.928 145.129 126.25C149.091 125.529 152.098 119.828 152.098 115.656C152.098 112.904 150.793 112.613 148.764 112.837C149.688 101.844 153.463 64.5758 164.189 60.1652C166.874 61.5089 174.419 61.0053 172.18 56.5302C169.943 52.0552 162.024 55.6233 158.884 59.8143C155.435 64.4111 147.112 84.9795 147.554 113.006C146.172 113.185 145.415 113.419 143.597 113.419C141.489 113.419 139.652 112.925 138.265 112.806C138.692 84.8125 129.489 66.3873 127.933 61.5089C126.463 56.893 121.888 54.165 118.322 54.165C116.522 54.1674 114.978 54.8643 114.226 56.368V56.368Z" fill="url(#paint43_linear_695_30)"/>
<path d="M153.063 137.166C153.063 137.166 161.997 130.101 169.271 122.414C176.544 114.724 200.024 92.4918 205.843 86.463C211.661 80.439 227.454 59.8658 229.533 51.1377C234.313 61.737 237.428 81.062 231.609 99.7616C225.793 118.464 212.284 131.972 194.415 139.452C176.544 146.932 160.959 146.517 156.598 146.517C152.233 146.517 146.206 143.607 153.063 137.166Z" fill="#F5F6F2"/>
<path d="M205.074 86.463C199.253 92.4918 175.775 114.724 168.503 122.414C159.889 131.519 160.037 132.168 152.118 138.431C149.135 141.23 144.469 144.414 145.087 145.763C145.705 147.109 153.362 146.517 155.827 146.517C160.19 146.517 175.775 146.932 193.646 139.452C211.516 131.972 225.022 118.464 230.841 99.764C236.662 81.062 233.542 61.737 228.762 51.1377C226.685 59.8682 210.893 80.439 205.074 86.463V86.463Z" fill="url(#paint44_linear_695_30)"/>
</g>
<defs>
<radialGradient id="paint0_radial_695_30" cx="0" cy="0" r="1" gradientUnits="userSpaceOnUse" gradientTransform="translate(144.227 150.367) rotate(180) scale(157.852 157.852)">
<stop stop-color="#3D4EAD"/>
<stop offset="1" stop-color="#00C0F3"/>
</radialGradient>
<linearGradient id="paint1_linear_695_30" x1="138.832" y1="191.408" x2="8.19552" y2="191.408" gradientUnits="userSpaceOnUse">
<stop stop-color="#3F51B4"/>
<stop offset="1" stop-color="#00C0F3"/>
</linearGradient>
<radialGradient id="paint2_radial_695_30" cx="0" cy="0" r="1" gradientUnits="userSpaceOnUse" gradientTransform="translate(144.227 150.367) rotate(180) scale(157.849 157.849)">
<stop stop-color="#3D4EAD"/>
<stop offset="1" stop-color="#00C0F3"/>
</radialGradient>
<radialGradient id="paint3_radial_695_30" cx="0" cy="0" r="1" gradientUnits="userSpaceOnUse" gradientTransform="translate(116.075 328.497) rotate(-116.066) scale(285.896 145.245)">
<stop stop-color="#0072E9"/>
<stop offset="1" stop-color="#00FDFE"/>
</radialGradient>
<radialGradient id="paint4_radial_695_30" cx="0" cy="0" r="1" gradientUnits="userSpaceOnUse" gradientTransform="translate(134.887 187.032) rotate(7.48971) scale(9.64141 27.2229)">
<stop stop-color="#153E68" stop-opacity="0.34"/>
<stop offset="1" stop-color="#153E68" stop-opacity="0.01"/>
</radialGradient>
<radialGradient id="paint5_radial_695_30" cx="0" cy="0" r="1" gradientUnits="userSpaceOnUse" gradientTransform="translate(177.534 184.835) rotate(133.278) scale(36.0572 85.3587)">
<stop stop-color="#00336F"/>
<stop offset="1" stop-color="#00336F" stop-opacity="0"/>
</radialGradient>
<radialGradient id="paint6_radial_695_30" cx="0" cy="0" r="1" gradientUnits="userSpaceOnUse" gradientTransform="translate(173.276 171.423) rotate(119.753) scale(31.3552 67.9881)">
<stop stop-color="#00336F" stop-opacity="0.5"/>
<stop offset="1" stop-color="#00336F" stop-opacity="0"/>
</radialGradient>
<radialGradient id="paint7_radial_695_30" cx="0" cy="0" r="1" gradientUnits="userSpaceOnUse" gradientTransform="translate(171.601 172.98) rotate(112.184) scale(31.3553 67.9879)">
<stop stop-color="#00336F" stop-opacity="0.5"/>
<stop offset="1" stop-color="#00336F" stop-opacity="0"/>
</radialGradient>
<radialGradient id="paint8_radial_695_30" cx="0" cy="0" r="1" gradientUnits="userSpaceOnUse" gradientTransform="translate(163.603 168.244) rotate(112.377) scale(26.4871 57.6121)">
<stop stop-color="#00336F"/>
<stop offset="1" stop-color="#00336F" stop-opacity="0"/>
</radialGradient>
<radialGradient id="paint9_radial_695_30" cx="0" cy="0" r="1" gradientUnits="userSpaceOnUse" gradientTransform="translate(101.529 170.871) rotate(-134.26) scale(33.4757 86.2329)">
<stop stop-color="#002D68"/>
<stop offset="1" stop-color="#002D68" stop-opacity="0"/>
</radialGradient>
<radialGradient id="paint10_radial_695_30" cx="0" cy="0" r="1" gradientUnits="userSpaceOnUse" gradientTransform="translate(100.187 160.332) rotate(-129.873) scale(39.531 86.9174)">
<stop stop-color="#002D68"/>
<stop offset="1" stop-color="#002D68" stop-opacity="0"/>
</radialGradient>
<radialGradient id="paint11_radial_695_30" cx="0" cy="0" r="1" gradientUnits="userSpaceOnUse" gradientTransform="translate(97.117 165.336) rotate(-117.475) scale(24.1276 56.9429)">
<stop stop-color="#002D68"/>
<stop offset="1" stop-color="#002D68" stop-opacity="0"/>
</radialGradient>
<radialGradient id="paint12_radial_695_30" cx="0" cy="0" r="1" gradientUnits="userSpaceOnUse" gradientTransform="translate(75.185 134.946) rotate(-63.5041) scale(24.1276 56.943)">
<stop stop-color="#002D68"/>
<stop offset="1" stop-color="#002D68" stop-opacity="0"/>
</radialGradient>
<radialGradient id="paint13_radial_695_30" cx="0" cy="0" r="1" gradientUnits="userSpaceOnUse" gradientTransform="translate(168.116 134.688) rotate(-7.43763) scale(133.734 38.3866)">
<stop stop-color="#00326D"/>
<stop offset="1" stop-color="#003B79" stop-opacity="0"/>
</radialGradient>
<radialGradient id="paint14_radial_695_30" cx="0" cy="0" r="1" gradientUnits="userSpaceOnUse" gradientTransform="translate(174.616 121.226) rotate(5.99865) scale(120.205 37.0615)">
<stop stop-color="#00326D"/>
<stop offset="1" stop-color="#003B79" stop-opacity="0"/>
</radialGradient>
<radialGradient id="paint15_radial_695_30" cx="0" cy="0" r="1" gradientUnits="userSpaceOnUse" gradientTransform="translate(166.986 134.919) rotate(-6.92408) scale(101.58 32.1494)">
<stop stop-color="#00326D"/>
<stop offset="1" stop-color="#003B79" stop-opacity="0"/>
</radialGradient>
<linearGradient id="paint16_linear_695_30" x1="141.444" y1="158.193" x2="25.1628" y2="158.193" gradientUnits="userSpaceOnUse">
<stop stop-color="#F5F7FA"/>
<stop offset="0.53" stop-color="#F1F4F2"/>
<stop offset="1" stop-color="#BAD7E9"/>
</linearGradient>
<linearGradient id="paint17_linear_695_30" x1="140.798" y1="92.5641" x2="37.6748" y2="92.5641" gradientUnits="userSpaceOnUse">
<stop stop-color="#FAFAFA"/>
<stop offset="0.26" stop-color="#F1F6F8"/>
<stop offset="0.73" stop-color="#DCE5EB"/>
<stop offset="1" stop-color="#BBCFDA"/>
</linearGradient>
<linearGradient id="paint18_linear_695_30" x1="207.813" y1="150.561" x2="207.813" y2="36.0503" gradientUnits="userSpaceOnUse">
<stop stop-color="#FDFDFF"/>
<stop offset="0.26" stop-color="#F1F2F2"/>
<stop offset="0.73" stop-color="#BFD2E0"/>
<stop offset="1" stop-color="#AFC0CC"/>
</linearGradient>
<linearGradient id="paint19_linear_695_30" x1="205.918" y1="150.691" x2="205.918" y2="36.0007" gradientUnits="userSpaceOnUse">
<stop stop-color="#F1F6F6"/>
<stop offset="0.41" stop-color="#FDFDFD"/>
<stop offset="0.55" stop-color="#F5F8FA"/>
<stop offset="0.89" stop-color="#D6E1E7"/>
<stop offset="0.98" stop-color="#C3D3DD"/>
<stop offset="1" stop-color="#C3D3DD"/>
</linearGradient>
<radialGradient id="paint20_radial_695_30" cx="0" cy="0" r="1" gradientUnits="userSpaceOnUse" gradientTransform="translate(90.3532 123.606) rotate(32.8863) scale(41.8801 20.3469)">
<stop stop-color="#153E68"/>
<stop offset="1" stop-color="#153E68" stop-opacity="0"/>
</radialGradient>
<radialGradient id="paint21_radial_695_30" cx="0" cy="0" r="1" gradientUnits="userSpaceOnUse" gradientTransform="translate(89.2327 118.82) rotate(37.082) scale(41.88 17.0805)">
<stop stop-color="#153E68"/>
<stop offset="1" stop-color="#153E68" stop-opacity="0"/>
</radialGradient>
<radialGradient id="paint22_radial_695_30" cx="0" cy="0" r="1" gradientUnits="userSpaceOnUse" gradientTransform="translate(190.235 130.673) rotate(-29.2077) scale(39.8213 15.2146)">
<stop stop-color="#153E68"/>
<stop offset="1" stop-color="#153E68" stop-opacity="0"/>
</radialGradient>
<radialGradient id="paint23_radial_695_30" cx="0" cy="0" r="1" gradientUnits="userSpaceOnUse" gradientTransform="translate(196.688 122.894) rotate(-29.2076) scale(39.3914 16.7453)">
<stop stop-color="#153E68"/>
<stop offset="1" stop-color="#153E68" stop-opacity="0"/>
</radialGradient>
<radialGradient id="paint24_radial_695_30" cx="0" cy="0" r="1" gradientUnits="userSpaceOnUse" gradientTransform="translate(196.193 130.251) rotate(-34.5762) scale(39.3912 17.7578)">
<stop stop-color="#153E68"/>
<stop offset="1" stop-color="#1A426B" stop-opacity="0"/>
</radialGradient>
<radialGradient id="paint25_radial_695_30" cx="0" cy="0" r="1" gradientUnits="userSpaceOnUse" gradientTransform="translate(220.243 103.541) rotate(-65.9438) scale(30.5348 13.3745)">
<stop stop-color="#153E68"/>
<stop offset="1" stop-color="#1B436C" stop-opacity="0"/>
</radialGradient>
<linearGradient id="paint26_linear_695_30" x1="93.0997" y1="141.165" x2="104.376" y2="61.1254" gradientUnits="userSpaceOnUse">
<stop stop-color="#FDFDFF"/>
<stop offset="0.26" stop-color="#F1F2F2"/>
<stop offset="0.73" stop-color="#BFD2E0"/>
<stop offset="1" stop-color="#AFC0CC"/>
</linearGradient>
<linearGradient id="paint27_linear_695_30" x1="138.298" y1="101.255" x2="58.7733" y2="101.254" gradientUnits="userSpaceOnUse">
<stop stop-color="#FAFAFA"/>
<stop offset="0.26" stop-color="#F1F6F8"/>
<stop offset="0.73" stop-color="#DCE5EB"/>
<stop offset="1" stop-color="#BBCFDA"/>
</linearGradient>
<radialGradient id="paint28_radial_695_30" cx="0" cy="0" r="1" gradientUnits="userSpaceOnUse" gradientTransform="translate(107.271 164.171) rotate(70.9455) scale(14.0377 26.8106)">
<stop stop-color="#153E68"/>
<stop offset="1" stop-color="#153E68" stop-opacity="0"/>
</radialGradient>
<radialGradient id="paint29_radial_695_30" cx="0" cy="0" r="1" gradientUnits="userSpaceOnUse" gradientTransform="translate(103.213 161.303) rotate(87.6395) scale(12.5619 23.4281)">
<stop stop-color="#153E68"/>
<stop offset="1" stop-color="#153E68" stop-opacity="0"/>
</radialGradient>
<radialGradient id="paint30_radial_695_30" cx="0" cy="0" r="1" gradientUnits="userSpaceOnUse" gradientTransform="translate(118.855 165.266) rotate(67.0876) scale(9.45366 20.9365)">
<stop stop-color="#153E68"/>
<stop offset="1" stop-color="#153E68" stop-opacity="0"/>
</radialGradient>
<linearGradient id="paint31_linear_695_30" x1="120.155" y1="170.982" x2="90.9556" y2="128.366" gradientUnits="userSpaceOnUse">
<stop stop-color="#FDFDFF"/>
<stop offset="0.26" stop-color="#F1F2F2"/>
<stop offset="0.73" stop-color="#BFD2E0"/>
<stop offset="1" stop-color="#AFC0CC"/>
</linearGradient>
<linearGradient id="paint32_linear_695_30" x1="124.261" y1="132.665" x2="86.7517" y2="166.96" gradientUnits="userSpaceOnUse">
<stop stop-color="#FAFAFA"/>
<stop offset="0.26" stop-color="#F1F6F8"/>
<stop offset="0.73" stop-color="#DCE5EB"/>
<stop offset="1" stop-color="#BBCFDA"/>
</linearGradient>
<radialGradient id="paint33_radial_695_30" cx="0" cy="0" r="1" gradientUnits="userSpaceOnUse" gradientTransform="translate(193.773 170.348) rotate(180) scale(40.476 40.476)">
<stop stop-color="#F9F9FA"/>
<stop offset="1" stop-color="#F5F7F7"/>
</radialGradient>
<radialGradient id="paint34_radial_695_30" cx="0" cy="0" r="1" gradientUnits="userSpaceOnUse" gradientTransform="translate(163.889 170.349) rotate(35.3663) scale(26.2358 12.3987)">
<stop stop-color="#153E68"/>
<stop offset="1" stop-color="#153E68" stop-opacity="0"/>
</radialGradient>
<radialGradient id="paint35_radial_695_30" cx="0" cy="0" r="1" gradientUnits="userSpaceOnUse" gradientTransform="translate(160.834 170.349) rotate(35.3663) scale(20.1423 12.3987)">
<stop stop-color="#153E68"/>
<stop offset="1" stop-color="#153E68" stop-opacity="0"/>
</radialGradient>
<radialGradient id="paint36_radial_695_30" cx="0" cy="0" r="1" gradientUnits="userSpaceOnUse" gradientTransform="translate(169.847 171.049) rotate(35.3663) scale(20.1423 12.3987)">
<stop stop-color="#153E68"/>
<stop offset="1" stop-color="#153E68" stop-opacity="0"/>
</radialGradient>
<linearGradient id="paint37_linear_695_30" x1="152.451" y1="173.078" x2="196.602" y2="146.258" gradientUnits="userSpaceOnUse">
<stop stop-color="#FDFDFF"/>
<stop offset="0.26" stop-color="#F1F2F2"/>
<stop offset="0.73" stop-color="#BFD2E0"/>
<stop offset="1" stop-color="#AFC0CC"/>
</linearGradient>
<linearGradient id="paint38_linear_695_30" x1="164.479" y1="136.469" x2="184.549" y2="183.163" gradientUnits="userSpaceOnUse">
<stop stop-color="#FAFAFA"/>
<stop offset="0.26" stop-color="#F1F6F8"/>
<stop offset="0.73" stop-color="#DCE5EB"/>
<stop offset="1" stop-color="#BBCFDA"/>
</linearGradient>
<linearGradient id="paint39_linear_695_30" x1="191.425" y1="140.056" x2="206.864" y2="174.29" gradientUnits="userSpaceOnUse">
<stop stop-color="#AEBCD0"/>
<stop offset="0.22" stop-color="#859BB9"/>
<stop offset="0.53" stop-color="#A1B1C9"/>
<stop offset="1" stop-color="#97A9C3"/>
</linearGradient>
<linearGradient id="paint40_linear_695_30" x1="135.91" y1="208.999" x2="135.91" y2="158.713" gradientUnits="userSpaceOnUse">
<stop stop-color="#C0CBDA"/>
<stop offset="0.02" stop-color="#C0CBDA"/>
<stop offset="0.11" stop-color="#D4DBE5"/>
<stop offset="0.45" stop-color="#F5F6F9"/>
<stop offset="0.59" stop-color="#FDFDFD"/>
<stop offset="1" stop-color="#FCFDFD"/>
</linearGradient>
<radialGradient id="paint41_radial_695_30" cx="0" cy="0" r="1" gradientUnits="userSpaceOnUse" gradientTransform="translate(143.375 117.097) rotate(180) scale(43.4816 29.8219)">
<stop stop-color="#3F51B5"/>
<stop offset="1" stop-color="#04BBF3"/>
</radialGradient>
<linearGradient id="paint42_linear_695_30" x1="143.211" y1="161.301" x2="143.211" y2="53.271" gradientUnits="userSpaceOnUse">
<stop stop-color="#AFC0CC"/>
<stop offset="0.24" stop-color="#AFC0CC"/>
<stop offset="0.74" stop-color="#F1F2F2"/>
<stop offset="1" stop-color="#FDFDFF"/>
</linearGradient>
<linearGradient id="paint43_linear_695_30" x1="143.211" y1="165.209" x2="143.211" y2="54.1665" gradientUnits="userSpaceOnUse">
<stop stop-color="#FAFAFA"/>
<stop offset="0.26" stop-color="#F1F6F8"/>
<stop offset="0.73" stop-color="#DCE5EB"/>
<stop offset="1" stop-color="#BBCFDA"/>
</linearGradient>
<linearGradient id="paint44_linear_695_30" x1="189.54" y1="146.531" x2="189.54" y2="51.1387" gradientUnits="userSpaceOnUse">
<stop stop-color="#F1F6F6"/>
<stop offset="0.41" stop-color="#FDFDFD"/>
<stop offset="0.55" stop-color="#F5F8FA"/>
<stop offset="0.89" stop-color="#D6E1E7"/>
<stop offset="0.98" stop-color="#C3D3DD"/>
<stop offset="1" stop-color="#C3D3DD"/>
</linearGradient>
<clipPath id="clip0_695_30">
<rect width="300" height="300" fill="white"/>
</clipPath>
</defs>
</svg>
