<svg width="73" height="73" viewBox="0 0 73 73" fill="none" xmlns="http://www.w3.org/2000/svg">
  <path d="M0.157104 70.2493H17.5238L20.0048 52.8826H2.63807L0.157104 70.2493Z" fill="#0082ED"/>
  <path d="M6.49744 26.6948H24.1398L26.6207 9.32861H9.254L6.49744 26.6948Z" fill="#0082ED"/>
  <path d="M22.7615 35.5166H5.39475L2.63812 52.8833H20.0049L22.7615 35.5166Z" fill="#0082ED"/>
  <path d="M36.5445 0.506836H19.1778L16.6968 18.1492H34.0636L36.5445 0.506836Z" fill="#0082ED"/>
  <path d="M54.187 0.506836H36.5446L34.0636 18.1492H51.4303L54.187 0.506836Z" fill="#0082ED"/>
  <path d="M32.6853 26.6948H15.3186L12.8376 44.0616H30.2044L32.6853 26.6948Z" fill="#0082ED"/>
  <path d="M20.0048 52.8827H28.826L30.2043 44.0615H21.3831L20.0048 52.8827Z" fill="#0082ED"/>
  <path d="M82.3046 13.7388H114.281V20.6303H90.8501V34.4134H112.076V41.305H90.8501V60.6014H82.0289V13.7388H82.3046Z" fill="#0B2633"/>
</svg>
