<svg width="488" height="488" viewBox="0 0 488 488" fill="none" xmlns="http://www.w3.org/2000/svg">
<path d="M394.468 97.5239L296.258 41.013C264.125 22.4774 224.751 22.4774 192.618 41.013L93.9554 97.5239C62.2748 116.06 42.3613 150.418 42.3613 187.037V300.511C42.3613 337.582 62.2748 371.489 93.9554 390.024L192.165 446.987C224.298 465.523 263.673 465.523 295.806 446.987L394.015 390.024C426.149 371.489 445.61 337.582 445.61 300.511V187.037C446.515 150.418 426.601 116.06 394.468 97.5239ZM244.212 344.816C188.544 344.816 143.287 299.607 143.287 244C143.287 188.393 188.544 143.185 244.212 143.185C299.879 143.185 345.589 188.393 345.589 244C345.589 299.607 300.332 344.816 244.212 344.816Z" fill="#8B5CF6"/>
</svg>
