<svg xmlns="http://www.w3.org/2000/svg" xmlns:xlink="http://www.w3.org/1999/xlink" width="64" zoomAndPan="magnify" viewBox="0 0 48 48" height="64" preserveAspectRatio="xMidYMid meet" version="1.0"><defs><clipPath id="c940d4ed9f"><path d="M 1.8125 1.324219 L 46.265625 1.324219 L 46.265625 45.777344 L 1.8125 45.777344 Z M 1.8125 1.324219 " clip-rule="nonzero"/></clipPath></defs><g clip-path="url(#c940d4ed9f)"><path fill="#45595a" d="M 46.183594 27.769531 C 41.792969 27.769531 39.589844 33.078125 42.695312 36.183594 L 36.671875 42.210938 C 33.566406 39.105469 28.253906 41.304688 28.253906 45.695312 L 19.738281 45.695312 C 19.738281 41.304688 14.429688 39.105469 11.324219 42.210938 L 5.296875 36.183594 C 8.402344 33.078125 6.203125 27.769531 1.8125 27.769531 L 1.8125 19.25 C 6.203125 19.25 8.402344 13.9375 5.296875 10.832031 L 11.324219 4.808594 C 14.429688 7.914062 19.738281 5.714844 19.738281 1.324219 L 28.257812 1.324219 C 28.257812 5.714844 33.566406 7.914062 36.671875 4.808594 L 42.699219 10.832031 C 39.59375 13.9375 41.792969 19.25 46.183594 19.25 Z M 46.183594 27.769531 " fill-opacity="1" fill-rule="nonzero"/></g><path fill="#45b29d" d="M 24.113281 8.882812 C 28.03125 8.34375 30.222656 10.003906 30.691406 13.871094 C 29.816406 18.226562 27.246094 21.058594 22.980469 22.375 C 21.9375 22.691406 20.878906 22.769531 19.804688 22.601562 C 19.480469 22.496094 19.214844 22.308594 19.011719 22.035156 C 18.859375 21.355469 18.859375 20.675781 19.011719 19.996094 C 22.242188 20.347656 24.8125 19.136719 26.722656 16.367188 C 27.410156 15.320312 27.636719 14.1875 27.402344 12.964844 C 26.960938 12.007812 26.203125 11.554688 25.132812 11.601562 C 22.984375 11.960938 21.246094 13.019531 19.917969 14.777344 C 16.8125 19.34375 15.828125 24.335938 16.96875 29.746094 C 18.230469 34.0625 20.992188 35.464844 25.246094 33.945312 C 26.40625 33.351562 27.464844 32.632812 28.421875 31.789062 C 29.714844 32.332031 30.054688 33.238281 29.445312 34.511719 C 25.910156 37.605469 22.015625 38.171875 17.761719 36.210938 C 15.273438 34.21875 13.875 31.609375 13.566406 28.386719 C 12.886719 22.570312 14.320312 17.351562 17.875 12.738281 C 19.601562 10.835938 21.683594 9.550781 24.113281 8.882812 Z M 24.113281 8.882812 " fill-opacity="1" fill-rule="evenodd"/></svg>