<?xml version="1.0" encoding="UTF-8" standalone="no"?>
<svg
   xmlns:dc="http://purl.org/dc/elements/1.1/"
   xmlns:cc="http://creativecommons.org/ns#"
   xmlns:rdf="http://www.w3.org/1999/02/22-rdf-syntax-ns#"
   xmlns:svg="http://www.w3.org/2000/svg"
   xmlns="http://www.w3.org/2000/svg"
   xmlns:sodipodi="http://sodipodi.sourceforge.net/DTD/sodipodi-0.dtd"
   xmlns:inkscape="http://www.inkscape.org/namespaces/inkscape"
   version="1.1"
   id="svg2"
   xml:space="preserve"
   width="666.66669"
   height="666.66669"
   viewBox="0 0 666.66669 666.66669"
   sodipodi:docname="metube.ai"><metadata
     id="metadata8"><rdf:RDF><cc:Work
         rdf:about=""><dc:format>image/svg+xml</dc:format><dc:type
           rdf:resource="http://purl.org/dc/dcmitype/StillImage" /></cc:Work></rdf:RDF></metadata><defs
     id="defs6"><clipPath
       clipPathUnits="userSpaceOnUse"
       id="clipPath18"><path
         d="M 0,500 H 500 V 0 H 0 Z"
         id="path16" /></clipPath></defs><sodipodi:namedview
     pagecolor="#ffffff"
     bordercolor="#666666"
     borderopacity="1"
     objecttolerance="10"
     gridtolerance="10"
     guidetolerance="10"
     inkscape:pageopacity="0"
     inkscape:pageshadow="2"
     inkscape:window-width="640"
     inkscape:window-height="480"
     id="namedview4" /><g
     id="g10"
     inkscape:groupmode="layer"
     inkscape:label="metube"
     transform="matrix(1.3333333,0,0,-1.3333333,0,666.66667)"><g
       id="g12"><g
         id="g14"
         clip-path="url(#clipPath18)"><g
           id="g20"
           transform="translate(499.6328,305.0469)"><path
             d="m 0,0 c -0.204,5.921 -0.511,11.838 -0.964,17.75 -1.921,25.06 -4.714,53.763 -21.272,73.809 -14.17,17.155 -36.12,21.034 -56.957,23.392 -26.386,2.986 -52.896,4.788 -79.427,5.801 -53.737,2.053 -107.526,0.863 -161.268,-0.332 -27.61,-0.613 -55.238,-1.228 -82.768,-3.42 -33.805,-2.691 -68.576,-7.645 -84.323,-41.427 -14.135,-30.323 -12.38,-68.821 -12.559,-101.444 -0.16,-29.252 -0.257,-58.516 0.915,-87.744 1.522,-37.936 3.774,-87.352 44.723,-103.989 21.861,-8.882 48.256,-10.866 71.604,-12.384 24.748,-1.61 49.559,-1.416 74.344,-1.784 51.979,-0.771 103.947,1.011 155.91,2.043 36.092,0.715 73.138,1.122 107.676,12.907 29.812,10.173 37.591,42.482 41.623,70.508 4.006,27.846 2.985,56.099 2.939,84.141 C 0.163,-41.458 0.713,-20.708 0,0"
             style="fill:#ff4c41;fill-opacity:1;fill-rule:nonzero;stroke:none"
             id="path22" /></g><g
           id="g24"
           transform="translate(250.0176,200.9424)"><path
             d="M 0,0 C 25.64,43.654 50.72,86.354 76.041,129.466 H -76.076 C -50.659,86.212 -25.56,43.499 0,0"
             style="fill:#ffffff;fill-opacity:1;fill-rule:nonzero;stroke:none"
             id="path26" /></g><path
           d="M 326.059,169.592 H 173.942 v 31.351 h 152.117 z"
           style="fill:#ffffff;fill-opacity:1;fill-rule:nonzero;stroke:none"
           id="path28" /></g></g></g></svg>
