<svg width="32" height="32" viewBox="0 0 32 32" fill="none" xmlns="http://www.w3.org/2000/svg">
<rect width="32" height="32" rx="16" fill="#484D7C"/>
<path d="M16.0064 27.3607C14.9053 27.3607 13.8224 26.9136 13.0461 26.1443C12.2698 25.3751 11.8275 24.3021 11.8275 23.2199C11.8275 22.1376 12.2698 21.0643 13.0461 20.2951C13.8224 19.5258 14.9053 19.0877 16.0064 19.0877C17.0986 19.0877 18.1722 19.5261 18.9485 20.2951C19.7248 21.064 20.176 22.1376 20.176 23.2199C20.176 24.3021 19.7248 25.3751 18.9485 26.1443C18.1722 26.9136 17.0986 27.3607 16.0064 27.3607ZM9.06592 19.8928C8.65984 19.8928 8.25376 19.7408 7.93792 19.4279L5.40192 16.8701C4.7792 16.2435 4.85121 15.296 5.37505 14.6339V14.6339C5.39001 14.619 5.41032 14.6076 5.42524 14.5926L12.3152 7.6669L14.8605 5.10915C15.4742 4.48291 16.4938 4.48291 17.1165 5.10915L19.6528 7.6669L26.575 14.616C27.1978 15.2423 27.1978 16.2435 26.575 16.8701L24.0301 19.4279C23.7322 19.7319 23.3261 19.8749 22.9293 19.8842C22.9203 19.8842 22.911 19.8928 22.9021 19.8928C22.4957 19.8928 22.081 19.7408 21.7741 19.4279V19.4279C18.5848 16.2185 13.3922 16.2183 10.2032 19.4279V19.4279C9.88705 19.7408 9.48096 19.8928 9.06592 19.8928Z" fill="white"/>
</svg>
