<svg width="186px" height="32px" viewBox="0 0 186 32" version="1.1"><g stroke="none" stroke-width="1" fill="none" fill-rule="evenodd"><g transform="translate(-36.000000, -24.000000)"><g transform="translate(36.000000, 24.000000)"><g><rect x="0" y="0" width="32" height="32" rx="4"></rect><g transform="translate(2.000000, 2.000000)" fill="#222222"><rect x="11.3333333" y="18.6666667" width="12.6666667" height="9.33333333" rx="1.5"></rect><rect x="11.3333333" y="0" width="16.6666667" height="16.6666667" rx="1.5"></rect><rect x="0" y="11.3333333" width="9.33333333" height="16.6666667" rx="1.5"></rect><rect x="0" y="0" width="9.33333333" height="9.33333333" rx="1.5"></rect></g></g><g transform="translate(40.000000, 3.200000)" fill="#222222" fill-rule="nonzero"><path d="M9.23666295,0 C12.1001853,0 14.2868664,0.88150945 15.7830143,2.64679163 C17.2574333,4.37043988 17.991762,6.83383636 17.991762,10.0301144 C17.991762,13.4294653 17.2122886,16.004226 15.6459866,17.7475745 C14.1134195,19.437656 11.8750854,20.2805195 8.94237391,20.2805195 C5.99017478,20.2805195 3.74144291,19.3903161 2.20874769,17.6061915 C0.734381859,15.8826054 0,13.4283623 0,10.2504051 C0,6.99703255 0.811683463,4.47206473 2.43964676,2.68413742 C4.0695132,0.894119951 6.33905428,0 9.23666295,0 Z M9.12937581,3.98961039 C5.53542643,3.98961039 4.99771167,8.09997394 4.99771167,10.1402597 C4.99771167,12.1429301 5.32109081,16.2909091 9.00923049,16.2909091 C12.6973702,16.2909091 12.9940503,12.1940744 12.9940503,10.1402597 C12.9940503,8.08644513 12.7233252,3.98961039 9.12937581,3.98961039 Z"></path><path d="M24.3221968,5.65179355 L24.3221968,7.31428571 C25.0533834,6.17561596 26.3892391,5.64582943 28.1537757,5.65179355 C31.9889629,5.66524675 34.6508009,8.10699623 34.6508009,12.9662338 C34.6508009,17.4519594 32.3809734,20.2805195 28.1537757,20.2805195 C26.5975909,20.2805195 25.320398,19.7346078 24.3221968,18.6427844 L24.3221968,25.6 L19.9908467,25.6 L19.9908467,5.65179355 L24.3221968,5.65179355 Z M27.9871854,8.97662338 C25.6794565,8.97662338 24.9885584,11.3140647 24.9885584,12.9662338 C24.9885584,14.6184029 25.6557829,16.9558442 27.9871854,16.9558442 C30.3185878,16.9558442 30.9858124,14.6185736 30.9858124,12.9662338 C30.9858124,11.3138939 30.2949143,8.97662338 27.9871854,8.97662338 Z"></path><path d="M43.640763,5.65194805 C48.5477311,5.65174377 49.6439359,9.58569765 49.6439359,11.6377393 C49.6439359,13.5345863 48.6443936,14.3000018 47.3116705,14.3000018 L40.9776176,14.3000018 L40.9776176,14.3000018 L40.9776176,14.6039523 C41.0070984,15.4349999 41.5100663,15.845737 41.8524905,16.1744652 L41.9001214,16.2177571 L41.9496216,16.2579822 C42.3995262,16.6031563 42.9525114,16.9558442 44.5254438,16.9558442 C46.0983762,16.9558442 47.0794633,16.6733602 48.1147885,16.2579822 L49.1163095,19.2636053 C47.7324458,19.9415481 45.9509784,20.2805195 43.7719073,20.2805195 C38.222441,20.2805195 36.6498856,15.4227857 36.6498856,12.9662338 C36.6498856,10.6016508 37.3319254,9.02171865 38.4229549,7.77942299 C39.5712127,6.47928814 41.368649,5.65194805 43.640763,5.65194805 Z M43.640763,8.64415584 C41.9697021,8.64415584 40.9776176,9.8237516 40.9776176,11.6377393 C41.2673772,11.6378716 41.5476696,11.637996 41.818495,11.6381127 L43.6721767,11.6388421 C43.7839215,11.638881 43.8932997,11.6389179 44.000311,11.6389529 L46.3144902,11.6394255 C46.3144902,9.8237516 45.311824,8.64415584 43.640763,8.64415584 Z"></path><path d="M59.6307616,5.65194805 C57.6601908,5.65194805 56.3834638,6.30542873 55.9743707,7.31428571 C55.9785922,6.91593163 55.9755002,6.36181908 55.9650948,5.65194805 L51.6430206,5.65194805 L51.6430206,20.2805195 L55.9650948,20.2805195 L55.9650948,11.9688312 C55.9650948,10.639837 56.2104781,9.30909091 57.9643979,9.30909091 C59.7183178,9.30909091 59.9640343,10.6409188 59.9640343,11.9688312 L59.97254,20.2805195 L64.3038902,20.2805195 C64.2990167,14.0744589 64.2965799,10.9714286 64.2965799,10.9714286 C64.3049654,10.3582791 64.6382382,5.65194805 59.6307616,5.65194805 Z"></path><path d="M70.6343249,0 L70.6343249,7.65617288 C71.5319111,6.32116997 72.8646342,5.6534407 74.6324943,5.65298509 C78.6564142,5.65194805 81.2961098,8.21859703 81.2961098,12.9662338 C81.2961098,17.7204821 78.3100987,20.2805195 74.6324943,20.2805195 C73.0692119,20.2805195 71.3823715,19.7646682 70.6343249,18.6181818 C70.6343249,18.8253606 70.6343249,19.3794731 70.6343249,20.2805195 L66.3029748,20.2805195 L66.3029748,0 L70.6343249,0 Z M74.6324943,16.9558442 C76.3805956,16.9558442 77.6311213,15.1696347 77.6311213,12.9662338 C77.6311213,10.7628328 76.3805956,8.97662338 74.6324943,8.97662338 C72.884393,8.97662338 71.4672769,10.7628328 71.4672769,12.9662338 C71.4672769,15.1696347 72.884393,16.9558442 74.6324943,16.9558442 Z"></path><polygon points="87.6265446 1.89527775e-17 83.2951945 0 83.2951945 20.2805195 87.6265446 20.2805195"></polygon><path d="M96.789016,5.65194805 C99.1922584,5.65194805 101.089893,6.2288208 102.236204,7.3914357 C103.383025,8.55456754 103.952403,10.5430616 103.952403,12.9662338 C103.952403,15.571021 103.356877,17.2957587 102.156846,18.5137501 C100.992827,19.6946227 99.2451499,20.2805195 96.789016,20.2805195 C94.3325516,20.2805195 92.4654953,19.69907 91.3276601,18.5264384 C90.1899862,17.3539729 89.6256293,15.461534 89.6256293,12.9662338 C89.6256293,10.3964812 90.2398559,8.56129229 91.4769457,7.36136628 C92.65826,6.2188453 94.3517439,5.65194805 96.789016,5.65194805 Z M96.789016,9.30909091 C95.8417979,9.30909091 95.2303794,9.57641429 94.8621226,10.1016933 C94.4847677,10.6399497 94.2901602,11.5960822 94.2901602,12.9662338 C94.2901602,14.3719272 94.4847796,15.3369311 94.8606157,15.8560024 C95.228371,16.3639132 95.8236618,16.6233766 96.789016,16.6233766 C97.7180183,16.6233766 98.4096367,16.3614003 98.7522066,15.8477296 C99.1049864,15.3187496 99.2878719,14.4285101 99.2878719,12.9662338 C99.2878719,11.5962333 99.1056411,10.5481212 98.7544356,10.0469834 C98.4126109,9.55923107 97.7366053,9.30909091 96.789016,9.30909091 Z"></path><path d="M113.25073,5.65194805 C110.815701,5.65194805 108.995609,6.25610918 107.79806,7.4723841 C106.564365,8.72648776 105.951487,10.3427281 105.951487,12.9662338 C105.951487,17.6049509 108.203651,20.2805195 112.651685,20.2805195 C114.305844,20.2805195 115.758417,20.054 117.279634,19.451776 C117.13621,18.9319166 116.828089,17.8060225 116.355271,16.0740939 C115.24235,16.4402824 114.329727,16.6233766 113.617402,16.6233766 C112.426203,16.6233766 111.629286,16.3410744 111.170598,15.8103332 C110.707864,15.2749091 110.284395,14.2913135 110.284395,12.9662338 C110.284395,11.6053355 110.720471,10.7042246 111.208571,10.1506564 C111.693514,9.60066896 112.391013,9.30909091 113.617402,9.30909091 C114.33958,9.30909091 115.252203,9.50925225 116.355271,9.90957493 C116.805106,8.21442229 117.113227,7.0671327 117.279634,6.46770617 C115.862338,5.78718137 114.497004,5.65194805 113.25073,5.65194805 Z"></path><polygon points="123.943249 1.03924949e-13 119.278719 6.31840015e-14 119.278719 20.2805195 123.943249 20.2805195 123.949913 13.9636364 127.608238 20.2805195 132.272769 20.2805195 127.941419 12.9662338 131.939588 5.65194805 127.608238 5.65194805 123.943249 11.9688312"></polygon><path d="M141.06052,5.65194805 C137.049625,5.65218682 135.001213,7.1415181 135.001213,10.1402597 C135.001213,11.2350292 135.299493,12.1390181 135.898106,12.808559 C136.397964,13.3765263 137.22848,13.8805064 138.388972,14.3255336 L138.644787,14.4170405 C138.816249,14.4765716 139.02674,14.5469129 139.276857,14.6282954 C140.577323,15.0946938 141.213835,15.5765353 141.213835,16.0201014 C141.213835,16.3949278 141.090556,16.6290527 140.841061,16.7529772 C140.559141,16.8930067 140.136476,16.9558442 139.30697,16.9558442 C138.089983,16.9558442 136.71168,16.6649718 135.172063,16.0832272 L134.271854,19.4519492 C136.031048,20.0043294 137.70942,20.2805195 139.30697,20.2805195 C141.361968,20.2805195 142.877663,19.9655404 143.869,19.327248 C145.023212,18.5847906 145.6,17.3534024 145.6,15.625974 C145.6,14.5090842 145.254248,13.586391 144.563011,12.898625 C144.008974,12.3509417 143.1092,11.8583497 141.861848,11.4146753 L141.299864,11.2230951 C140.688769,11.0266666 140.257086,10.8412587 140.006424,10.6703711 C139.640147,10.4260817 139.472576,10.1433795 139.472576,9.82441558 C139.472576,9.50638263 139.592463,9.29932755 139.855193,9.16499116 C140.110986,9.03420199 140.568764,8.96484913 141.220501,8.96484913 C142.116562,8.96484913 143.245876,9.14178461 144.608441,9.49565558 L145.470863,6.34921045 C143.894124,5.88436885 142.42401,5.65194805 141.06052,5.65194805 Z"></path></g></g></g></g></svg>
