<?xml version="1.0" encoding="UTF-8" standalone="no"?>
<svg
   xmlns:dc="http://purl.org/dc/elements/1.1/"
   xmlns:cc="http://creativecommons.org/ns#"
   xmlns:rdf="http://www.w3.org/1999/02/22-rdf-syntax-ns#"
   xmlns:svg="http://www.w3.org/2000/svg"
   xmlns="http://www.w3.org/2000/svg"
   xmlns:xlink="http://www.w3.org/1999/xlink"
   xmlns:sodipodi="http://sodipodi.sourceforge.net/DTD/sodipodi-0.dtd"
   xmlns:inkscape="http://www.inkscape.org/namespaces/inkscape"
   width="198.8"
   height="50"
   version="1.1"
   viewBox="0 0 52.61 13.23"
   id="svg34"
   sodipodi:docname="logo-full-ua.svg"
   inkscape:version="0.92.5 (2060ec1f9f, 2020-04-08)">
  <metadata
     id="metadata40">
    <rdf:RDF>
      <cc:Work
         rdf:about="">
        <dc:format>image/svg+xml</dc:format>
        <dc:type
           rdf:resource="http://purl.org/dc/dcmitype/StillImage" />
      </cc:Work>
    </rdf:RDF>
  </metadata>
  <defs
     id="defs38">
    <linearGradient
       inkscape:collect="always"
       id="linearGradient896-3">
      <stop
         style="stop-color:#f9d100;stop-opacity:1;"
         offset="0"
         id="stop892" />
      <stop
         id="stop900"
         offset="0.5"
         style="stop-color:#fad200;stop-opacity:1" />
      <stop
         style="stop-color:#0059b7;stop-opacity:1;"
         offset="0.50099999"
         id="stop902" />
      <stop
         style="stop-color:#0059b7;stop-opacity:1"
         offset="1"
         id="stop894" />
    </linearGradient>
    <linearGradient
       inkscape:collect="always"
       xlink:href="#linearGradient896-3"
       id="linearGradient919"
       x1="7.6438656"
       y1="13.097747"
       x2="7.6438656"
       y2="0.47352728"
       gradientUnits="userSpaceOnUse" />
  </defs>
  <sodipodi:namedview
     pagecolor="#ffffff"
     bordercolor="#666666"
     borderopacity="1"
     objecttolerance="10"
     gridtolerance="10"
     guidetolerance="10"
     inkscape:pageopacity="0"
     inkscape:pageshadow="2"
     inkscape:window-width="1920"
     inkscape:window-height="1136"
     id="namedview36"
     showgrid="false"
     inkscape:zoom="4"
     inkscape:cx="56.391651"
     inkscape:cy="-14.370688"
     inkscape:window-x="0"
     inkscape:window-y="27"
     inkscape:window-maximized="1"
     inkscape:current-layer="svg34" />
  <path
     d="M 7.6438655,0.47352728 C 6.8276759,0.47168154 6.0237416,0.48432501 5.2912042,0.5106555 4.2197871,0.53820225 3.3275584,0.57926705 2.8670533,0.62940269 2.0501209,0.71849557 1.5208186,1.061869 1.1847241,1.5884789 0.82569722,2.0163958 0.62636164,2.5846926 0.59915841,3.2875199 0.57159309,3.9992603 0.56197448,4.9067154 0.56037756,5.8230834 0.55945488,5.943966 0.55945488,6.0654985 0.55968551,6.1875881 c 0.001384,1.9590036 0.0392915,3.8493029 0.0392915,3.8493029 0,1.419581 0.97485959,2.410224 2.16604519,2.562488 0.9414359,0.120697 3.058274,0.163684 5.1361176,0.154956 0.00138,5e-6 0.00275,0 0.00404,0 0.8585264,0.0033 1.7083255,-0.0085 2.4770712,-0.03624 1.071418,-0.02755 1.963646,-0.06861 2.424151,-0.118747 0.816933,-0.08909 1.346235,-0.432466 1.68233,-0.959076 0.359026,-0.427917 0.558362,-0.996214 0.585565,-1.699041 0.02757,-0.7117403 0.03718,-1.6191954 0.03878,-2.5355635 C 15.114,7.284788 15.114,7.1632555 15.11377,7.0411659 15.112377,5.0821623 15.074478,3.191863 15.074478,3.191863 c 0,-1.4195813 -0.974859,-2.41022437 -2.166045,-2.56248816 C 11.966997,0.50867793 9.8501591,0.46569126 7.7723154,0.47441858 c -0.00138,-6.93e-6 -0.00272,4.61e-6 -0.00404,0 -0.041687,0 -0.083337,-6.9206e-4 -0.1249677,-9.2269e-4 z"
     id="path2"
     style="fill:none;fill-opacity:1;stroke:url(#linearGradient919);stroke-width:0.79391347;stroke-miterlimit:4;stroke-dasharray:0.79391347, 0.79391347000000001;stroke-dashoffset:0;stroke-opacity:1"
     inkscape:connector-curvature="0" />
  <g
     fill="#333"
     stroke-width=".07012px"
     id="g28">
    <path
       d="m21.5 8.438v-1.816h-1.703v1.816h-0.876v-4.237h0.876v1.717h1.703v-1.717h0.8731v4.237z"
       id="path4" />
    <path
       d="m25.55 7.923q-0.1513 0.2154-0.4598 0.3929-0.3085 0.1775-0.7683 0.1775-0.7334 0-1.147-0.4424-0.4133-0.4453-0.4162-1.074v-0.1222q0-0.713 0.3958-1.17 0.3987-0.4569 1.074-0.4569 0.6781 0 1.033 0.4249 0.355 0.4249 0.355 1.123v0.358h-2.005q0.04365 0.3056 0.2416 0.4948 0.1979 0.1863 0.5209 0.1863 0.4802 0 0.7596-0.3521zm-1.327-2.017q-0.2677 0-0.4133 0.1804-0.1455 0.1804-0.1892 0.4715h1.17v-0.06402q-0.005821-0.2532-0.1426-0.4191-0.1339-0.1688-0.4249-0.1688z"
       id="path6" />
    <path
       d="m27.71 8.438q-0.05239-0.1106-0.0844-0.2823-0.3056 0.3405-0.7945 0.3405-0.4511 0-0.7596-0.2648-0.3085-0.2677-0.3085-0.6781 0-0.4948 0.3667-0.7654 0.3667-0.2736 1.086-0.2736h0.3754v-0.1833q0-0.2183-0.1135-0.3463-0.1106-0.131-0.3521-0.131-0.4511 0-0.4511 0.3783h-0.8411q0-0.4104 0.3638-0.7043 0.3638-0.2969 0.9749-0.2969 0.5442 0 0.9022 0.2765 0.3609 0.2765 0.3609 0.8294v1.403q0.0058 0.4191 0.1251 0.649v0.04948zm-0.6956-0.585q0.2124 0 0.3609-0.09313 0.1513-0.09604 0.2154-0.2095v-0.5471h-0.3434q-0.3347 0-0.4889 0.1426-0.1542 0.1397-0.1542 0.3463 0 0.1572 0.1077 0.259 0.1106 0.1019 0.3027 0.1019z"
       id="path8" />
    <path
       d="m29.76 3.966v4.47h-0.844v-4.47z"
       id="path10" />
    <path
       d="m31.82 8.415q-0.2357 0.07858-0.5064 0.07858-0.4133 0-0.6577-0.2154-0.2445-0.2154-0.2445-0.7159v-1.662h-0.4627v-0.6141h0.4627v-0.777h0.8411v0.777h0.5355v0.6141h-0.5355v1.574q0 0.1979 0.08149 0.2619 0.08149 0.06402 0.2415 0.06402 0.1281 0 0.2445-0.02328z"
       id="path12" />
    <path
       d="m33.4 5.911q-0.3667 0-0.5326 0.2823v2.244h-0.8411v-4.47h0.8411v1.662q0.3289-0.3987 0.8411-0.3987 0.4627 0 0.7479 0.2736 0.2881 0.2736 0.291 0.9342v1.999h-0.844v-1.991q0-0.3056-0.131-0.4191-0.131-0.1164-0.3725-0.1164z"
       id="path14" />
    <path
       d="m36.48 7.817q0.2299 0 0.3783-0.1251 0.1484-0.1281 0.1513-0.3434h0.7916q-0.0058 0.5006-0.3842 0.8236-0.3754 0.323-0.9225 0.323-0.7305 0-1.094-0.4598-0.3609-0.4627-0.3609-1.132v-0.08149q0-0.6665 0.3609-1.129 0.3609-0.4627 1.091-0.4627 0.5792 0 0.94 0.3318 0.3638 0.3318 0.3696 0.8993h-0.7916q-0.002907-0.2299-0.1397-0.39-0.1368-0.163-0.3929-0.163-0.3667 0-0.4802 0.2765-0.1135 0.2736-0.1135 0.7188 0 0.3638 0.1106 0.6402 0.1135 0.2736 0.486 0.2736z"
       id="path16" />
    <path
       d="m39.43 5.911q-0.3667 0-0.5326 0.2823v2.244h-0.8411v-4.47h0.8411v1.662q0.3289-0.3987 0.8411-0.3987 0.4627 0 0.7479 0.2736 0.2881 0.2736 0.291 0.9342v1.999h-0.844v-1.991q0-0.3056-0.131-0.4191-0.131-0.1164-0.3725-0.1164z"
       id="path18" />
    <path
       d="m43.88 7.923q-0.1513 0.2154-0.4598 0.3929-0.3085 0.1775-0.7683 0.1775-0.7334 0-1.147-0.4424-0.4133-0.4453-0.4162-1.074v-0.1222q0-0.713 0.3958-1.17 0.3987-0.4569 1.074-0.4569 0.6781 0 1.033 0.4249 0.355 0.4249 0.355 1.123v0.358h-2.005q0.04365 0.3056 0.2416 0.4948 0.1979 0.1863 0.5209 0.1863 0.4802 0 0.7596-0.3521zm-1.327-2.017q-0.2677 0-0.4133 0.1804-0.1455 0.1804-0.1892 0.4715h1.17v-0.06402q-0.005813-0.2532-0.1426-0.4191-0.1339-0.1688-0.4249-0.1688z"
       id="path20" />
    <path
       d="m45.52 7.817q0.2299 0 0.3783-0.1251 0.1484-0.1281 0.1513-0.3434h0.7916q-0.0058 0.5006-0.3842 0.8236-0.3754 0.323-0.9225 0.323-0.7305 0-1.094-0.4598-0.3609-0.4627-0.3609-1.132v-0.08149q0-0.6665 0.3609-1.129 0.3609-0.4627 1.091-0.4627 0.5792 0 0.94 0.3318 0.3638 0.3318 0.3696 0.8993h-0.7916q-0.002907-0.2299-0.1397-0.39-0.1368-0.163-0.3929-0.163-0.3667 0-0.4802 0.2765-0.1135 0.2736-0.1135 0.7188 0 0.3638 0.1106 0.6402 0.1135 0.2736 0.486 0.2736z"
       id="path22" />
    <path
       d="m49.06 8.438-0.809-1.263-0.2998 0.2998v0.9633h-0.8411v-4.473h0.8411v2.477l0.163-0.2095 0.8032-0.9429h1.01l-1.135 1.31 1.237 1.839z"
       id="path24" />
    <path
       d="m51.79 7.563q0-0.1339-0.1251-0.2241-0.1222-0.09313-0.5297-0.1804-0.486-0.1048-0.7974-0.326-0.3114-0.2212-0.3114-0.6257 0-0.3929 0.3318-0.6839 0.3347-0.2939 0.9225-0.2939 0.6141 0 0.9662 0.2881 0.3521 0.2881 0.3521 0.7276h-0.8411q0-0.1804-0.1164-0.2998-0.1164-0.1193-0.3638-0.1193-0.2095 0-0.3289 0.09895-0.1164 0.09604-0.1164 0.2416 0 0.1339 0.1251 0.2212 0.1251 0.08731 0.4627 0.1542 0.5122 0.1019 0.8498 0.3114 0.3376 0.2095 0.3376 0.6781 0 0.4162-0.358 0.6897-0.358 0.2736-0.9662 0.2736-0.6606 0-1.01-0.3376-0.3492-0.3405-0.3492-0.7246h0.8003q0.01165 0.2474 0.1804 0.355 0.1717 0.1077 0.3958 0.1077 0.4889 0 0.4889-0.3318z"
       id="path26" />
  </g>
  <path
     d="m8.025 1.506-1.369-0.01287-1.006 7.033-0.1454-0.9775-2.72-5.47e-5 -0.1195 0.874 2.075 0.0037 0.1729 1.263 1.504 0.00288 0.9272-6.646 0.1583 1.129 0.8898-7.454e-4z"
     id="path30"
     style="fill:#0058b5;fill-opacity:1;stroke:none;stroke-opacity:1;stroke-width:0.26463782;stroke-miterlimit:4;stroke-dasharray:none"
     stroke-width=".2485"
     fill="#fff" />
  <path
     d="m8.63 5.889-0.8884 0.00174 0.7848 5.641 1.183-0.0015 0.4371-3.105 2.038 0.00149 0.1255-0.8743-2.932 0.00174-0.2626 1.856z"
     id="path32"
     style="fill:#f7cf00;fill-opacity:1;stroke:none;stroke-opacity:1;stroke-width:0.26463782;stroke-miterlimit:4;stroke-dasharray:none"
     stroke-width=".2485"
     fill="#22bc66" />
</svg>
