<svg width="1030" height="1030" viewBox="0 0 1030 1030" fill="none" xmlns="http://www.w3.org/2000/svg">
<rect x="3" y="3" width="1024" height="1024" rx="225" fill="url(#paint0_linear_239_9589)"/>
<rect x="3" y="3" width="1024" height="1024" rx="225" stroke="url(#paint1_linear_239_9589)" stroke-opacity="0.4" stroke-width="6" stroke-linejoin="bevel"/>
<g filter="url(#filter0_d_239_9589)">
<path fill-rule="evenodd" clip-rule="evenodd" d="M657.89 367.455L760.118 308.797C767.782 304.399 777.56 307.047 781.958 314.712L822.422 385.232C826.82 392.897 824.172 402.675 816.507 407.073L714.28 465.73C603.946 529.039 466 451.575 462.625 324.414L459.376 201.997C459.142 193.164 466.113 185.813 474.946 185.579L556.222 183.422C565.056 183.187 572.407 190.158 572.641 198.991L575.89 321.407C576.99 362.842 621.938 388.083 657.89 367.455ZM316.544 465.963L214.632 406.759C206.991 402.321 204.395 392.528 208.834 384.888L249.674 314.585C254.113 306.944 263.905 304.348 271.546 308.787L373.459 367.99C483.452 431.887 485.34 590.083 376.902 656.587L272.511 720.609C264.978 725.229 255.127 722.867 250.507 715.334L208.001 646.026C203.381 638.493 205.742 628.641 213.275 624.022L317.666 560C353 538.33 352.385 486.783 316.544 465.963ZM556.237 845.957C565.073 845.981 572.256 838.837 572.279 830L572.594 712.14C572.705 670.69 617.039 644.384 653.472 664.149L761.112 722.544C768.879 726.757 778.592 723.877 782.806 716.109L821.575 644.644C825.789 636.876 822.908 627.164 815.141 622.95L707.501 564.556C595.688 503.898 459.63 584.63 459.29 711.837L458.975 829.697C458.952 838.534 466.096 845.716 474.932 845.74L556.237 845.957Z" fill="url(#paint2_linear_239_9589)"/>
<path d="M657.89 367.455L658.885 369.189L658.885 369.189L657.89 367.455ZM714.28 465.73L715.275 467.465L715.275 467.465L714.28 465.73ZM462.625 324.414L460.626 324.467L460.626 324.467L462.625 324.414ZM575.89 321.407L577.889 321.354L577.889 321.354L575.89 321.407ZM316.544 465.963L317.549 464.233L317.549 464.233L316.544 465.963ZM373.459 367.99L374.463 366.26L374.463 366.26L373.459 367.99ZM376.902 656.587L375.856 654.882L375.856 654.882L376.902 656.587ZM317.666 560L316.621 558.295L316.621 558.295L317.666 560ZM572.594 712.14L574.594 712.145L574.594 712.145L572.594 712.14ZM653.472 664.149L654.426 662.391L654.426 662.391L653.472 664.149ZM707.501 564.556L708.455 562.798L708.455 562.798L707.501 564.556ZM459.29 711.837L461.29 711.842L461.29 711.842L459.29 711.837ZM821.575 644.644L823.333 645.597L821.575 644.644ZM815.141 622.95L814.188 624.708L815.141 622.95ZM208.001 646.026L209.706 644.98L208.001 646.026ZM213.275 624.022L212.23 622.317L213.275 624.022ZM249.674 314.585L247.945 313.58L249.674 314.585ZM271.546 308.787L272.551 307.057L271.546 308.787ZM761.112 722.544L762.066 720.786L761.112 722.544ZM782.806 716.109L781.048 715.156L782.806 716.109ZM214.632 406.759L213.627 408.489L214.632 406.759ZM208.834 384.888L207.104 383.883L208.834 384.888ZM572.279 830L570.279 829.995L572.279 830ZM556.237 845.957L556.231 847.957L556.237 845.957ZM572.641 198.991L574.64 198.938L572.641 198.991ZM822.422 385.232L824.157 384.237L822.422 385.232ZM816.507 407.073L815.512 405.338L816.507 407.073ZM459.376 201.997L461.376 201.944L459.376 201.997ZM474.946 185.579L474.893 183.579L474.946 185.579ZM458.975 829.697L460.975 829.703L458.975 829.697ZM474.932 845.74L474.927 847.74L474.932 845.74ZM781.958 314.712L780.224 315.707L781.958 314.712ZM759.122 307.062L656.894 365.72L658.885 369.189L761.113 310.532L759.122 307.062ZM824.157 384.237L783.693 313.717L780.224 315.707L820.687 386.228L824.157 384.237ZM715.275 467.465L817.503 408.808L815.512 405.338L713.284 463.996L715.275 467.465ZM460.626 324.467C464.041 453.142 603.628 531.527 715.275 467.465L713.284 463.996C604.263 526.551 467.959 450.009 464.625 324.36L460.626 324.467ZM457.377 202.051L460.626 324.467L464.625 324.36L461.376 201.944L457.377 202.051ZM556.169 181.422L474.893 183.579L474.999 187.578L556.275 185.421L556.169 181.422ZM577.889 321.354L574.64 198.938L570.642 199.044L573.891 321.461L577.889 321.354ZM656.894 365.72C622.256 385.595 578.949 361.276 577.889 321.354L573.891 321.461C575.031 364.409 621.621 390.571 658.885 369.189L656.894 365.72ZM213.627 408.489L315.54 467.692L317.549 464.233L215.636 405.03L213.627 408.489ZM247.945 313.58L207.104 383.883L210.563 385.892L251.403 315.589L247.945 313.58ZM374.463 366.26L272.551 307.057L270.541 310.516L372.454 369.719L374.463 366.26ZM377.947 658.292C487.676 590.997 485.766 430.918 374.463 366.26L372.454 369.719C481.139 432.856 483.004 589.17 375.856 654.882L377.947 658.292ZM273.557 722.314L377.947 658.292L375.856 654.882L271.465 718.904L273.557 722.314ZM206.296 647.071L248.802 716.38L252.212 714.289L209.706 644.98L206.296 647.071ZM316.621 558.295L212.23 622.317L214.321 625.727L318.712 561.705L316.621 558.295ZM315.54 467.692C350.071 487.752 350.664 537.417 316.621 558.295L318.712 561.705C355.336 539.244 354.698 485.814 317.549 464.233L315.54 467.692ZM570.594 712.134L570.279 829.995L574.279 830.005L574.594 712.145L570.594 712.134ZM654.426 662.391C616.662 641.904 570.709 669.171 570.594 712.134L574.594 712.145C574.701 672.209 617.416 646.864 652.519 665.907L654.426 662.391ZM762.066 720.786L654.426 662.391L652.519 665.907L760.158 724.302L762.066 720.786ZM819.817 643.69L781.048 715.156L784.563 717.063L823.333 645.597L819.817 643.69ZM706.548 566.314L814.188 624.708L816.095 621.192L708.455 562.798L706.548 566.314ZM461.29 711.842C461.626 586.15 596.065 506.378 706.548 566.314L708.455 562.798C595.312 501.418 457.634 583.111 457.29 711.831L461.29 711.842ZM460.975 829.703L461.29 711.842L457.29 711.831L456.975 829.692L460.975 829.703ZM556.242 843.957L474.938 843.74L474.927 847.74L556.231 847.957L556.242 843.957ZM823.333 645.597C828.074 636.859 824.833 625.933 816.095 621.192L814.188 624.708C820.984 628.395 823.504 636.894 819.817 643.69L823.333 645.597ZM209.706 644.98C205.663 638.389 207.73 629.769 214.321 625.727L212.23 622.317C203.755 627.514 201.099 638.597 206.296 647.071L209.706 644.98ZM251.403 315.589C255.287 308.903 263.856 306.632 270.541 310.516L272.551 307.057C263.955 302.064 252.938 304.984 247.945 313.58L251.403 315.589ZM760.158 724.302C768.897 729.042 779.823 725.801 784.563 717.063L781.048 715.156C777.361 721.952 768.862 724.473 762.066 720.786L760.158 724.302ZM215.636 405.03C208.95 401.146 206.679 392.578 210.563 385.892L207.104 383.883C202.111 392.479 205.031 403.495 213.627 408.489L215.636 405.03ZM570.279 829.995C570.259 837.727 563.974 843.978 556.242 843.957L556.231 847.957C566.172 847.984 574.253 839.946 574.279 830.005L570.279 829.995ZM556.275 185.421C564.005 185.216 570.437 191.315 570.642 199.044L574.64 198.938C574.377 189.001 566.107 181.158 556.169 181.422L556.275 185.421ZM271.465 718.904C264.874 722.946 256.254 720.88 252.212 714.289L248.802 716.38C253.999 724.854 265.082 727.511 273.557 722.314L271.465 718.904ZM820.687 386.228C824.536 392.934 822.218 401.49 815.512 405.338L817.503 408.808C826.125 403.86 829.104 392.859 824.157 384.237L820.687 386.228ZM461.376 201.944C461.17 194.215 467.27 187.783 474.999 187.578L474.893 183.579C464.956 183.843 457.113 192.113 457.377 202.051L461.376 201.944ZM456.975 829.692C456.949 839.633 464.986 847.713 474.927 847.74L474.938 843.74C467.206 843.719 460.954 837.435 460.975 829.703L456.975 829.692ZM761.113 310.532C767.819 306.684 776.375 309.001 780.224 315.707L783.693 313.717C778.745 305.094 767.745 302.115 759.122 307.062L761.113 310.532Z" fill="#323232"/>
</g>
<defs>
<filter id="filter0_d_239_9589" x="171.638" y="153.416" width="686.91" height="730.542" filterUnits="userSpaceOnUse" color-interpolation-filters="sRGB">
<feFlood flood-opacity="0" result="BackgroundImageFix"/>
<feColorMatrix in="SourceAlpha" type="matrix" values="0 0 0 0 0 0 0 0 0 0 0 0 0 0 0 0 0 0 127 0" result="hardAlpha"/>
<feOffset dy="4"/>
<feGaussianBlur stdDeviation="16"/>
<feComposite in2="hardAlpha" operator="out"/>
<feColorMatrix type="matrix" values="0 0 0 0 0 0 0 0 0 0 0 0 0 0 0 0 0 0 0.25 0"/>
<feBlend mode="normal" in2="BackgroundImageFix" result="effect1_dropShadow_239_9589"/>
<feBlend mode="normal" in="SourceGraphic" in2="effect1_dropShadow_239_9589" result="shape"/>
</filter>
<linearGradient id="paint0_linear_239_9589" x1="85" y1="26.5" x2="1027" y2="1027" gradientUnits="userSpaceOnUse">
<stop stop-color="#313131"/>
<stop offset="1" stop-color="#191919"/>
</linearGradient>
<linearGradient id="paint1_linear_239_9589" x1="2.99995" y1="-82.5" x2="1593" y2="1538.5" gradientUnits="userSpaceOnUse">
<stop stop-color="#595959"/>
<stop offset="1" stop-color="#5F5F5F"/>
</linearGradient>
<linearGradient id="paint2_linear_239_9589" x1="123.627" y1="64.1138" x2="939.893" y2="975.744" gradientUnits="userSpaceOnUse">
<stop stop-color="white"/>
<stop offset="1" stop-color="#B3B3B3"/>
</linearGradient>
</defs>
</svg>
