<svg width="1126" height="1141" viewBox="0 0 1126 1141" fill="none" xmlns="http://www.w3.org/2000/svg">
  <ellipse cx="626" cy="565.56" rx="500" ry="494.56" fill="url(#paint0_linear)"/>
  <path d="M722.463 7C792.197 393.37 35 446.83 35 1141" stroke="white" stroke-width="70"/>
  <mask id="mask0" mask-type="alpha" maskUnits="userSpaceOnUse" x="363" y="525" width="666" height="592">
    <path d="M692.609 1092.12C693.658 1104.61 681.241 1115.65 664.835 1116.75C648.47 1117.85 634.287 1108.63 633.238 1096.12C632.188 1083.62 644.605 1072.6 660.991 1071.48C677.376 1070.37 691.538 1079.62 692.609 1092.12Z" fill="#787878"/>
    <path d="M884.749 1010C901.189 1010 914.517 999.829 914.517 987.287C914.517 974.746 901.189 964.579 884.749 964.579C868.308 964.579 854.98 974.746 854.98 987.287C854.98 999.829 868.308 1010 884.749 1010Z" fill="#787878"/>
    <path d="M529.967 972.885C521.634 983.014 504.147 984.225 490.878 975.577C477.599 966.965 473.568 951.749 481.901 941.638C490.213 931.491 507.711 930.279 520.969 938.928C534.248 947.54 538.259 962.765 529.967 972.885Z" fill="#787878"/>
    <path d="M684.733 1087.65C684.379 1094.69 669.885 1100.26 661.967 1099.96C654.039 1099.66 640.106 1093.81 640.449 1086.75L660.835 828.752C661.219 821.712 667.931 816.255 675.859 816.56C683.746 816.856 689.876 822.832 689.533 829.871L684.733 1087.65Z" fill="#A7A6A7"/>
    <path d="M898.152 971.22C903.815 975.447 894.754 989.452 890.016 994.502C885.247 999.544 874.472 1002.7 868.778 998.48L671.152 837.289C665.448 833.071 664.731 825.523 669.469 820.501C674.217 815.459 682.665 814.784 688.307 819.002L898.09 971.22" fill="#A7A6A7"/>
    <path d="M522.496 965.522C518.132 968.751 501.435 959.843 497.809 955.921C494.172 952.017 493.029 944.303 497.404 941.056L660.17 824.728C664.554 821.481 671.08 822.036 674.706 825.958C678.332 829.88 677.709 835.652 673.303 838.899L522.496 965.522Z" fill="#A7A6A7"/>
    <path d="M682.166 834.311C700.105 834.311 714.647 822.574 714.647 808.096C714.647 793.618 700.105 781.882 682.166 781.882C664.228 781.882 649.686 793.618 649.686 808.096C649.686 822.574 664.228 834.311 682.166 834.311Z" fill="#959595"/>
    <path d="M989.692 834.496C1002.15 840.601 1006.67 854.513 999.833 865.631L978.844 899.468C972.007 910.54 956.349 914.601 943.891 908.496L397.499 686.403C385.031 680.298 380.48 666.358 387.358 655.286L455.904 544.49C462.772 533.399 478.42 529.357 490.858 535.471L989.702 834.523" fill="#D1D2D3"/>
    <path d="M995.438 871.736C988.601 882.808 972.942 886.869 960.484 880.764L414.093 658.672C403.204 653.307 398.372 642.012 401.905 631.837L387.348 655.388C380.47 666.46 385.021 680.418 397.489 686.505L943.87 908.597C956.328 914.712 971.986 910.66 978.823 899.579L999.812 865.733C1000.66 864.336 1001.34 862.875 1001.84 861.395L995.458 871.727" fill="#BEC0C0"/>
    <path d="M977.639 851.987L953.325 891.328C949.044 898.256 942.104 902.946 934.539 904.796L943.818 908.579C956.255 914.693 971.935 910.642 978.771 899.56L999.76 865.714C1006.6 854.605 1002.08 840.684 989.629 834.579L979.571 828.529C982.813 835.643 982.429 844.328 977.67 851.987" fill="#A7A6A7"/>
    <path d="M699.799 735.724C712.195 715.698 720.902 695.422 725.983 676.404L705.524 664.129C702.085 683.647 693.752 705.273 680.535 726.622C666.539 749.257 649.26 768.016 631.482 781.179L653.915 790.272C670.571 775.851 686.468 757.305 699.799 735.724Z" fill="#A7A6A7"/>
  </mask>
  <g mask="url(#mask0)">
    <rect x="97.0726" y="-264" width="1001.52" height="1541" fill="white"/>
  </g>
  <defs>
    <linearGradient id="paint0_linear" x1="240" y1="183.265" x2="874.684" y2="902.33" gradientUnits="userSpaceOnUse">
      <stop stop-color="#F207B0"/>
      <stop offset="1" stop-color="#E44C4C" stop-opacity="0.93"/>
    </linearGradient>
  </defs>
</svg>
