<svg xmlns="http://www.w3.org/2000/svg" width="512" height="512" fill="none" viewBox="0 0 512 512"><g clip-path="url(#a)"><path fill="#b4b4b4" d="M268.086 9.072c11.922-1.49 40.14 20.337 57.167 39.132.212.233.522.35.836.322 11.461-1.044 17.979-1.296 28.251-.046a.995.995 0 0 0 1.04-.6c2.061-4.975 1.765-6.846 14.206-18.808 13-12.5 30-19.5 39-16.5s11.5 19.5 10.5 41c-.991 21.3-2.838 28.902-6.885 42.125-.073.24-.054.502.05.729 6.252 13.543 2.343 29.202 3.335 35.646 1 6.5 26.248 17.769 28 33s-29 34.5-32 36c-2.83 1.415-11.255 2.894-19.096 2.997a1.027 1.027 0 0 0-.965 1.337c7.586 23.602 7.014 50.898 4.561 63.166-2.486 12.43-10.406 36.737-20.332 49.78a1 1 0 0 0-.2.505c-6.387 58.076-5.61 77.834 1.918 94.465.074.164.195.306.343.409 15.435 10.692 22.518 16.917 27.271 28.841l6.706 19.639a1.013 1.013 0 0 1-.547 1.24C346.753 492.44 311.06 500.233 245.281 491.1a1 1 0 0 0-.385.02c-57.855 14.507-112.343 14.932-141.81-3.548-29.5-18.5-37-39-36-55 .993-15.894 9.365-35.897 28.615-51.196.241-.191.384-.483.385-.791.09-56.48 27.1-112.114 62-147.513 34.885-35.383 40.831-35.456 71.199-65.205.188-.184.303-.448.307-.711.462-28.678 4.4-42.676 16.344-64.312.096-.175.14-.378.122-.577-3.997-45.285 10.055-91.698 22.028-93.195"/><path fill="#fff" d="m243.959 320.557 8.738-35.482c.289-1.172 2.066-.937 2.027.269-.465 14.352-1.055 39.624.362 44.228 2 6.5 30 96.5 35 103s10.978 14.01 14.5 23.5c1.575 3.361 2.925 4.73 5.854 6.417.096.055.203.094.311.115 7.206 1.36 11.289 1.322 17.708.176a.993.993 0 0 0 .765-1.293l-2.195-6.585c-.379-1.136 1.197-1.857 1.808-.827l4.503 7.584a1 1 0 0 0 .723.478c3.437.444 5.634.277 9.111-1.169a.98.98 0 0 0 .512-1.304l-2.791-6.342c-.451-1.026.869-1.904 1.641-1.092l3.481 3.664c.662.697 1.794.153 1.606-.79-1.873-9.401-7.502-15.567-24.706-25.834a.93.93 0 0 1-.436-.53c-1.305-4.168-14.37-46.64-13.895-74.668.467-27.583 15.747-38.898 21.048-64.865.224-1.097 1.828-1.124 1.998-.017 2.251 14.609.302 27.624-8 49.201-.34.885.613 1.705 1.42 1.208 29.445-18.143 52.601-52.324 55.034-63.027 2.491-10.959 5.817-43.978-5.376-76.145a1 1 0 0 0-.452-.54c-9.237-5.192-17.657-7.545-34.37-10.051-1.095-.164-1.14-1.61-.046-1.776 18.214-2.75 37.572 1.924 66.031 6.821 1.193.206 1.626-1.439.488-1.854l-27.233-9.929c-1.15-.419-.683-2.142.522-1.923l21.436 3.897c11.528 2.067 16.583.841 22.171-5.524.429-.488.261-1.247-.318-1.541-6.213-3.158-8.346-5.97-8.846-12.337a1 1 0 0 1 .005-.195c.631-5.135 2.738-7.311 8.802-8.821.906-.225 1.118-1.491.333-1.996-12.968-8.341-23.147-23.811-23.147-27.586 0-4 2.5-7 4-20.5 1.483-13.346-34.663-51.126-73.652-50.536a.99.99 0 0 0-.914 1.313c3.429 10.183 3.868 14.173 2.186 19.82-.235.79-1.275.928-1.741.248-16.814-24.57-42.643-50.422-54.379-53.845-11.824-3.448-27.468 52.642-9.813 86.5.354.678-.132 1.5-.897 1.5h-6.267c-.328 0-.638.165-.824.436-13.089 19.077-14.422 34.05-12.731 63.034.02.328-.129.656-.388.858-54.884 42.89-83.648 62.293-110.08 109.672-26.368 47.264-24.349 61.707-24.498 105.836a1.02 1.02 0 0 1-.602.926c-6.721 2.957-8.641 4.451-16.9 11.738-8.5 7.5-16 36-1 54s38 29.5 64 31 23 1 33 .5 63-16 72.5-18 14-2.5 27.5-2.5-29-44-54.5-55.5c-21.959-9.902-77.541-19.099-107.661-15.685-1.225.138-2.11-2.438-.97-2.908 26.176-10.794 60.345-11.284 107.632 5.732a1.02 1.02 0 0 0 1.311-.653c10.927-35.503 15.004-55.013-12.842-78.008-15.209-11.497-36.363-7.929-65.023 6.205-1.061.523-2.001-.864-1.085-1.614 32.378-26.483 57.356-28.492 86.899-5.544.576.448 1.438.168 1.612-.54M402.586 25.072c5.84 2.434 2.995 31.93-2.079 54.653a.993.993 0 0 1-1.703.45l-3.982-4.345a1 1 0 0 1-.26-.609c-.381-5.673-.257-9.458.669-14.528.189-1.036-1.154-1.689-1.825-.877L387.2 67.33a1 1 0 0 1-1.38.157L372.328 57.14a.99.99 0 0 1-.226-1.342c9.707-14.478 24.589-33.183 30.484-30.727"/><path fill="#b4b4b4" d="M271.086 68.072c.479 9.106 2.898 20.253 10.485 30.213.453.596 1.373.471 1.717-.193 1.858-3.59 4.183-5.556 8.838-8.02a1.03 1.03 0 0 0 .405-1.427c-2.28-3.905-3.168-6.763-3.396-11.563-.034-.715.687-1.215 1.352-.95l6.766 2.707c.761.305 1.54-.38 1.313-1.167-4.986-17.259-18.66-41.028-23.48-39.1-5 2-4.5 20-4 29.5m72.094 59.914c-1.241-.273-5.025-1.172-7.094-2.414-2.5-1.5 9.5-4.5 9.5-4.5 6.078-1.74 9.329-2.089 14.813-2.003a1 1 0 0 1 .359.074c7.246 2.998 11.75 9.722 13.092 19.356.116.831-.81 1.396-1.531.965-1.432-.854-3.351-1.892-4.233-1.892h-13.821a1 1 0 0 1-.354-.067c-5.36-2.093-7.164-4.633-10.095-9.083a1.02 1.02 0 0 0-.636-.436"/><path fill="#fff" d="M353.586 130.572a4 4 0 1 0 0-8 4 4 0 0 0 0 8m-24.5 226.5c1.686-3.793 22.207-19.67 28.607-24.56.704-.538 1.706.041 1.607.922-3.452 30.747 2.823 64.789 4.286 70.638 1.5 6 1.012 13.897 5 17 3.987 3.104 18.908 12.894 20.5 16 1.564 3.052 5.035 9.326 2.634 12.816a.9.9 0 0 1-.339.287c-3.669 1.813-5.906 1.949-9.142 1.907a1 1 0 0 1-.905-.612l-3.83-9.148c-.476-1.137-2.187-.574-1.894.623l2.241 9.168a.993.993 0 0 1-.722 1.202c-4.616 1.147-8.144 1.62-16.76 1.289a1.01 1.01 0 0 1-.943-.797c-.758-3.541-1.637-6.097-5.84-11.235-4.5-5.5-11-11.5-14-17.5s-12.5-63.5-10.5-68"/></g><defs><clipPath id="a"><path fill="#fff" d="M67 9h377v493H67z"/></clipPath></defs></svg>