<svg width="200" height="201" viewBox="0 0 200 201" fill="none" xmlns="http://www.w3.org/2000/svg">
<path fill-rule="evenodd" clip-rule="evenodd" d="M56.25 57.4248H68.125C73.0561 57.4248 77.0536 61.4223 77.0536 66.3534V100.996H100.268V113.496H73.4821C68.551 113.496 64.5536 109.499 64.5536 104.568V69.9248H56.25V57.4248ZM147.054 66.3534V75.6391H134.554V69.9248H124.732V113.496H112.232V69.9248H102.411V75.6391H89.9107V66.3534C89.9107 61.4223 93.9082 57.4248 98.8393 57.4248H138.125C143.056 57.4248 147.054 61.4223 147.054 66.3534Z" fill="#1D1E20"/>
<path d="M50.4548 147.022L38.8301 138.719C42.2451 133.938 45.7682 130.238 49.4749 127.644C53.5947 124.76 57.9727 123.228 62.4996 123.228C66.703 123.228 70.3438 124.247 73.5964 126.199C74.9087 126.986 76.1142 127.894 77.3329 128.969C78.1732 129.711 78.7735 130.293 80.0504 131.57C81.9859 133.505 82.7901 134.215 83.7527 134.792C84.7969 135.419 85.8994 135.728 87.4996 135.728C89.1015 135.728 90.2086 135.418 91.2582 134.789C92.2253 134.21 93.0363 133.496 94.9712 131.565L94.989 131.547C96.2597 130.279 96.866 129.692 97.7064 128.952C98.9235 127.881 100.127 126.975 101.436 126.19C104.682 124.245 108.312 123.228 112.5 123.228C116.687 123.228 120.317 124.245 123.563 126.19C124.872 126.975 126.076 127.881 127.293 128.952C128.133 129.692 128.739 130.279 130.01 131.547L130.028 131.565C131.963 133.496 132.774 134.21 133.741 134.789C134.791 135.418 135.898 135.728 137.5 135.728C138.925 135.728 140.5 135.176 142.332 133.894C144.578 132.322 147.007 129.771 149.544 126.219L161.169 134.522C157.754 139.303 154.231 143.002 150.524 145.597C146.404 148.481 142.026 150.013 137.5 150.013C133.298 150.013 129.656 148.995 126.401 147.045C125.088 146.259 123.88 145.351 122.66 144.277C121.817 143.535 121.209 142.947 119.936 141.676L119.918 141.658C117.988 139.731 117.18 139.02 116.218 138.443C115.178 137.82 114.084 137.513 112.5 137.513C110.915 137.513 109.821 137.82 108.781 138.443C107.82 139.02 107.011 139.731 105.081 141.658L105.063 141.676C103.79 142.947 103.182 143.535 102.339 144.277C101.119 145.351 99.9115 146.259 98.598 147.045C95.3429 148.995 91.7015 150.013 87.4996 150.013C83.2962 150.013 79.6554 148.994 76.4028 147.042C75.0905 146.255 73.885 145.347 72.6663 144.271C71.826 143.53 71.2257 142.948 69.9488 141.671C68.0133 139.736 67.2091 139.026 66.2465 138.448C65.2023 137.822 64.0998 137.513 62.4996 137.513C61.0741 137.513 59.4997 138.064 57.6672 139.347C55.4215 140.919 52.9922 143.47 50.4548 147.022Z" fill="#5EB5FF"/>
</svg>
