<?xml version="1.0" encoding="UTF-8" standalone="no"?>
<!-- Created with Inkscape (http://www.inkscape.org/) -->

<svg
   version="1.1"
   id="svg1"
   width="2000"
   height="1200"
   viewBox="0 0 2000 1200"
   xml:space="preserve"
   xmlns="http://www.w3.org/2000/svg"
   xmlns:svg="http://www.w3.org/2000/svg"><defs
     id="defs1"><clipPath
       clipPathUnits="userSpaceOnUse"
       id="clipPath23"><g
         id="use23"
         style="stroke-width:1.52068"><path
           style="display:inline;opacity:1;fill:#87d6be;fill-opacity:1;stroke:none;stroke-width:144.464;stroke-linecap:round;stroke-linejoin:round;stroke-miterlimit:0;stroke-opacity:1"
           id="path73"
           d="M 2479.5983,735.4187 A 1207.5515,346.58099 0 0 1 1272.0468,1081.9997 1207.5515,346.58099 0 0 1 64.495239,735.4187 1207.5515,346.58099 0 0 1 1272.0468,388.83771 1207.5515,346.58099 0 0 1 2479.5983,735.4187 Z" /></g></clipPath></defs><path
     id="path1"
     style="display:inline;opacity:1;fill:#87d6be;fill-opacity:1;stroke:none;stroke-width:94.9998;stroke-linecap:round;stroke-linejoin:round;stroke-miterlimit:0;stroke-opacity:1"
     d="m 1646.9766,568.29883 c -0.4021,9.28858 -1.3002,18.39774 -2.6954,27.26953 -4.6656,29.66707 -15.0317,57.29226 -34.1464,79.10742 -19.1148,21.81515 -48.4485,36.15534 -80.1465,36.08594 h -184.1426 c 12.617,42.748 15.9028,85.66477 9.8535,124.13086 -4.2633,27.10897 -13.2879,52.51386 -29.3965,73.33789 68.8327,-8.90446 131.0365,-20.6396 186.836,-34.23242 9.6441,-2.41785 19.0831,-4.9023 28.3086,-7.45117 15.5469,-4.1773 30.8395,-8.4187 45.1152,-12.92383 10.084,-3.23573 19.8439,-6.55349 29.2676,-9.94922 13.0842,-4.63661 25.6485,-9.38035 37.414,-14.29102 8.6066,-3.59282 16.8522,-7.25578 24.7266,-10.98437 10.7781,-5.10303 20.6966,-10.3456 30.0586,-15.68164 9.0307,-4.94306 17.4257,-9.97966 25.168,-15.09961 1.7009,-1.17781 3.5135,-2.34066 5.1465,-3.52735 10.8179,-7.89868 20.0901,-15.96463 27.7734,-24.16015 1.2964,-1.37505 2.5344,-2.7549 3.7422,-4.13867 7.5539,-8.52306 13.3826,-17.16446 17.457,-25.88086 0.1479,-0.32607 0.2945,-0.65211 0.4375,-0.97852 4.1825,-9.44684 6.298,-18.95962 6.334,-28.48242 -0.024,-9.28617 -2.0261,-18.56323 -5.9941,-27.7793 -0.1212,-0.28309 -0.2776,-0.56475 -0.4024,-0.84765 -3.9066,-8.73927 -9.5756,-17.40616 -16.9785,-25.95704 -1.1175,-1.29964 -2.5435,-2.57371 -3.7402,-3.86718 -6.7524,-7.29785 -14.7643,-14.49488 -24.0059,-21.56446 -1.638,-1.25293 -3.0506,-2.52867 -4.7656,-3.77343 -9.9076,-7.0605 -21.0414,-13.97411 -33.3594,-20.71485 -17.1484,-9.52786 -36.0153,-18.83451 -57.8652,-27.64648 z M 313.74414,585.77734 c -2.72099,1.49732 -5.38392,3.00327 -7.98828,4.51758 -11.95017,6.20546 -23.60183,12.4558 -33.44531,18.92383 -12.18098,8.00471 -22.74854,16.20378 -31.65039,24.55664 -0.0184,0.0172 -0.0422,0.0336 -0.0605,0.0508 -17.85239,16.7615 -28.90854,34.05812 -32.94922,51.54688 -1.15886,5.01851 -1.7386,10.04665 -1.73828,15.07617 -1e-5,1.01729 0.0232,2.03358 0.0703,3.04883 0.47184,10.05362 3.26114,20.08725 8.34961,30.03515 0.0102,0.0201 0.0171,0.0405 0.0273,0.0606 5.07495,9.87744 12.40584,19.64849 21.94531,29.25 0.0956,0.0964 0.15979,0.19661 0.25586,0.29297 9.58024,9.60606 21.35108,19.0209 35.23633,28.18359 0.0901,0.0595 0.16166,0.12025 0.25195,0.17969 13.97497,9.2054 30.05428,18.13566 48.13281,26.73242 1.95321,0.92869 4.48123,1.74928 6.48047,2.66992 16.28357,7.611 34.11185,14.9407 53.39258,21.95118 7.09747,2.54598 15.53413,4.78023 23.01758,7.24023 15.06111,5.15717 30.91062,10.12037 47.50195,14.875 50.21668,13.81638 107.13891,25.86543 169.9375,35.67187 l 0.36719,0.0664 c -12.80324,-19.30266 -20.37048,-41.86587 -24.13672,-65.81445 -6.065,-38.56565 -2.7466,-81.60514 9.95117,-124.46289 H 429.3457 c -31.69806,0.0694 -61.03174,-14.27079 -80.14648,-36.08594 -19.11474,-21.81516 -29.48093,-49.44035 -34.14649,-79.10742 -0.61408,-3.90477 -1.08133,-7.55087 -1.30859,-9.45899 z" /><path
     id="path2"
     style="baseline-shift:baseline;display:inline;overflow:visible;opacity:1;vector-effect:none;fill:#79c0ab;fill-opacity:1;stroke:none;stroke-width:1;stroke-linecap:round;stroke-linejoin:round;stroke-miterlimit:0;stroke-opacity:1;enable-background:accumulate;stop-color:#000000;stop-opacity:1"
     d="m 1598.6133,685.90039 c -18.4516,15.37405 -42.7507,24.91798 -68.625,24.86133 h -184.1426 c 12.617,42.748 15.9028,85.66477 9.8535,124.13086 -2.6536,16.87326 -7.152,33.08629 -14.0547,47.94531 l 254.4746,-194.84375 c 0.8622,-0.66034 1.6945,-1.35896 2.4942,-2.09375 z m -1236.57424,0.74609 c 0.7484,0.69584 1.52578,1.35984 2.33008,1.99024 l 124.85742,97.72266 120.75977,94.51757 c -6.43677,-14.31499 -10.70437,-29.83462 -13.24414,-45.98437 -6.065,-38.56565 -2.7466,-81.60514 9.95117,-124.46289 H 429.3457 c -25.26313,0.0553 -49.02356,-9.04329 -67.30664,-23.78321 z" /><path
     style="baseline-shift:baseline;display:inline;overflow:visible;opacity:1;vector-effect:none;fill:#fdd0a4;fill-opacity:1;stroke:none;stroke-width:1;stroke-linejoin:round;stroke-opacity:1;enable-background:accumulate;stop-color:#000000;stop-opacity:1"
     d="m 694.53154,245.55178 c -125.79647,0 -246.4673,61.14684 -308.99869,174.44864 -62.53139,113.30181 -44.14841,254.23947 43.73404,254.04718 H 694.53154 959.79615 C 1047.6786,674.23989 1066.0616,533.30223 1003.5302,420.00042 940.99887,306.69862 820.32801,245.55178 694.53154,245.55178 Z"
     id="path3" /><path
     style="baseline-shift:baseline;display:inline;overflow:visible;opacity:1;vector-effect:none;fill:#dab991;fill-opacity:1;stroke:none;stroke-width:1;stroke-linejoin:round;stroke-opacity:1;enable-background:accumulate;stop-color:#000000;stop-opacity:1"
     d="m 1264.8027,245.88334 c -125.7965,0 -246.4673,61.14683 -308.99869,174.44864 -62.53139,113.3018 -44.14841,254.23946 43.73404,254.04718 h 265.26465 265.2646 c 87.8825,0.19228 106.2655,-140.74538 43.7341,-254.04718 C 1511.27,307.03017 1390.5992,245.88334 1264.8027,245.88334 Z"
     id="path4" /><path
     style="baseline-shift:baseline;display:inline;overflow:visible;opacity:1;vector-effect:none;fill:#fdfccf;fill-opacity:1;stroke:none;stroke-width:1;stroke-linejoin:round;stroke-opacity:1;enable-background:accumulate;stop-color:#000000;stop-opacity:1"
     d="m 976.22056,485.20746 c -125.79647,0 -246.4673,61.14684 -308.99869,174.44864 -62.53139,113.30181 -44.14841,254.23947 43.73404,254.04718 h 265.26465 265.26464 c 87.8825,0.19229 106.2655,-140.74537 43.734,-254.04718 C 1222.6879,546.3543 1102.017,485.20746 976.22056,485.20746 Z"
     id="path5" /><path
     d="m 694.52929,209.16798 c -4.32301,7e-5 -8.51715,0.31785 -12.65235,0.77539 -133.06468,4.02349 -260.91613,70.56506 -328.19921,192.47656 -23.94621,43.38858 -37.54667,89.74295 -40.79883,133.66992 -95.32789,48.37554 -146.35347,105.67812 -146.35352,164.35742 -1.9e-4,77.01482 87.8123,150.87626 244.11914,205.33401 156.30684,54.45772 368.30412,85.05074 589.35548,85.05074 221.0513,0 433.0486,-30.59302 589.3555,-85.05074 156.3068,-54.45776 244.1193,-128.3192 244.1191,-205.33401 -2e-4,-67.18843 -66.8739,-132.29785 -189.2246,-184.23242 -5.4283,-37.76175 -18.2942,-76.67813 -38.5957,-113.46289 -67.2871,-121.91871 -195.1477,-188.47006 -328.2208,-192.48633 -4.0405,-0.44612 -8.1396,-0.75559 -12.3593,-0.76562 -0.091,-2.2e-4 -0.1808,0 -0.2715,0 -0.09,0 -0.1796,-2.2e-4 -0.2695,0 -3.8,0.009 -7.5117,0.23836 -11.1661,0.60351 -115.687,3.16481 -227.4809,53.66962 -299.18549,146.76172 8.08791,-10.50074 16.58939,-20.56235 25.64654,-29.98047 C 908.37984,252.40094 808.2573,212.29106 705.17577,209.67384 c -3.48404,-0.32383 -7.02864,-0.50586 -10.64453,-0.50586 z m -36.38087,84.86133 v 82.81249 c -2e-4,7.68298 2.43172,15.16883 6.94727,21.38477 2.24448,3.08946 4.96133,5.80631 8.05078,8.05078 6.21595,4.51555 13.7018,6.94747 21.38477,6.94727 20.09352,-3.6e-4 36.38245,-16.28929 36.38281,-36.38282 v -82.81249 c 0.50905,0.27314 1.01697,0.55118 1.52148,0.83203 14.39063,8.01007 27.90229,19.76611 29.93165,22.1914 12.89044,15.40541 30.07617,44.25372 30.07617,59.78906 3.6e-4,20.09428 16.29048,36.38353 36.38475,36.38282 20.09355,-3.6e-4 36.38248,-16.28929 36.38281,-36.38282 0,-21.44623 -5.50308,-40.32062 -13.0918,-56.4414 30.86066,16.46666 58.79644,38.07178 82.33596,64.52929 4.70323,-7.48303 9.92808,-14.45177 15.09374,-21.47656 -9.17112,12.47194 -17.92209,25.38784 -25.59959,39.29883 -9.55548,17.3137 -17.46406,35.1 -23.72463,53.01562 -17.66522,3.26447 -35.06938,7.6711 -52.07424,13.19727 -0.98805,-1.70873 -2.15924,-3.35914 -3.48825,-4.91797 -12.44525,-14.59746 -29.2714,-24.04331 -47.34375,-24.3457 -18.07228,-0.30238 -35.81646,9.47463 -46.20703,24.76367 -8.51417,12.52804 -11.2745,22.8254 6.13867,33.57227 5.05018,3.11681 10.4698,4.33563 15.61133,4.39648 -56.17176,32.48516 -104.22857,79.36806 -137.49414,139.64258 0.81601,-1.47849 1.6409,-2.94974 2.47461,-4.41211 h -208.57618 -0.0781 c -12.24317,0.027 -18.1629,-3.17815 -25.25781,-11.27539 -7.09491,-8.09723 -13.89508,-22.75099 -16.99414,-42.45703 -6.19812,-39.41208 2.99805,-96.60873 30.45117,-146.35156 28.37185,-51.40751 70.22849,-90.85867 119.55664,-117.17969 -7.58852,16.1206 -13.0918,34.99555 -13.0918,56.4414 3.6e-4,20.09429 16.29048,36.38353 36.38477,36.38282 20.09352,-3.6e-4 36.38245,-16.28929 36.38281,-36.38282 0,-15.53534 17.18573,-44.38365 30.07617,-59.78906 2.02936,-2.42529 15.54101,-14.18133 29.93164,-22.1914 0.50452,-0.28085 1.01244,-0.55889 1.52148,-0.83203 z m 570.27148,0.33203 v 82.81054 c 0,7.68364 2.4313,15.17024 6.9472,21.38672 2.2441,3.08862 4.9603,5.80479 8.0489,8.04883 6.2162,4.51663 13.7028,6.94927 21.3867,6.94922 20.0943,-3.6e-4 36.3835,-16.29048 36.3828,-36.38477 v -82.81054 c 0.5091,0.27315 1.017,0.54924 1.5215,0.83007 14.3906,8.01008 27.9023,19.76807 29.9316,22.19336 12.8905,15.40541 30.0762,44.25177 30.0762,59.78711 0,20.09506 16.2897,36.3855 36.3848,36.38477 20.0943,-3.6e-4 36.3835,-16.29048 36.3828,-36.38477 0,-21.44632 -5.505,-40.32057 -13.0938,-56.44141 49.3287,26.32152 91.1865,65.77381 119.5586,117.18165 27.4531,49.74283 36.6493,106.93948 30.4512,146.35156 -3.0991,19.70604 -9.8992,34.35979 -16.9941,42.45703 -7.0949,8.09726 -13.0147,11.30216 -25.2579,11.27539 h -0.08 -215.2793 c -35.9412,-63.1981 -88.322,-111.18925 -149.1934,-142.94531 2.7104,0.0282 4.5543,1.2576 7.42,2.65234 7.7378,3.76605 20.9421,6.34036 32.2851,-0.66015 17.4132,-10.74687 14.6528,-21.04618 6.1387,-33.57422 -10.3906,-15.28904 -28.1348,-25.06411 -46.2071,-24.76172 -18.0723,0.30239 -34.8985,9.74824 -47.3437,24.3457 -2.3835,2.79565 -4.2586,5.87981 -5.4824,9.08203 -39.5113,-13.70009 -81.3324,-21.29738 -123.67972,-22.5625 -3.98763,-0.43584 -8.0332,-0.73679 -12.19529,-0.74804 2.01949,10e-4 4.03702,0.0163 6.05467,0.0469 25.08504,-49.98918 67.06654,-97.00544 124.68744,-128.26173 -7.6182,16.14736 -13.1484,35.06253 -13.1484,56.5625 0,20.09506 16.2897,36.3855 36.3848,36.38477 20.0943,-3.6e-4 36.3835,-16.29048 36.3828,-36.38477 0,-15.53534 17.1857,-44.3817 30.0761,-59.7871 2.0294,-2.42529 15.5411,-14.18329 29.9317,-22.19336 0.5046,-0.28084 1.0125,-0.55693 1.5215,-0.83008 z m -686.5078,143.3496 c -18.0723,0.30239 -34.90043,9.7502 -47.3457,24.34766 -8.64754,10.14297 -10.60039,24.08653 0.94922,33.67187 10.2567,8.51234 20.67217,8.93224 38.47851,0.69141 8.8115,-4.07798 10.69895,-2.14656 15.69922,0.28711 7.73787,3.76605 20.94218,6.34036 32.28516,-0.66016 17.41316,-10.74686 14.65283,-21.04617 6.13867,-33.57421 -10.39057,-15.28904 -28.1328,-25.06606 -46.20508,-24.76368 z m 887.3457,0.9961 c -18.0723,-0.30239 -35.8146,9.47268 -46.2051,24.76172 -8.5142,12.52804 -11.2764,22.82735 6.1367,33.57422 11.343,7.00051 24.5493,4.4262 32.2871,0.66015 5.0003,-2.43367 6.8877,-4.36509 15.6992,-0.28711 17.8064,8.24082 28.2199,7.82093 38.4766,-0.6914 11.5496,-9.58535 9.5968,-23.52891 0.9492,-33.67188 -12.4452,-14.59746 -29.2714,-24.04331 -47.3437,-24.3457 z m -489.41993,94.97852 v 82.81054 c -5.9e-4,7.68364 2.43135,15.17024 6.9473,21.38672 2.244,3.08861 4.96016,5.80478 8.04878,8.04883 6.21625,4.51663 13.70285,6.94927 21.38673,6.94922 20.09427,-3.6e-4 36.38352,-16.29048 36.38282,-36.38477 v -82.81054 c 0.509,0.27314 1.017,0.54925 1.5215,0.83007 14.3906,8.01008 27.9023,19.76807 29.9316,22.19336 12.8905,15.40541 30.0762,44.25177 30.0762,59.78711 0,20.09506 16.2897,36.3855 36.3848,36.38477 20.0934,-10e-4 36.3815,-16.29125 36.3808,-36.38477 0,-21.44644 -5.503,-40.32051 -13.0918,-56.44141 49.3287,26.32165 91.1865,65.77385 119.5586,117.18165 27.4531,49.74284 36.6473,106.93944 30.4492,146.35156 -3.099,19.70603 -9.8973,34.35978 -16.9922,42.45703 -7.0949,8.09725 -13.0146,11.30218 -25.2578,11.27541 h -0.08 -265.26362 -265.26561 -0.0801 c -12.24316,0.027 -18.16093,-3.17816 -25.25586,-11.27541 -7.09493,-8.09725 -13.89506,-22.751 -16.99414,-42.45703 -6.1981,-39.41212 2.99807,-96.60872 30.45117,-146.35156 28.37171,-51.40709 70.22861,-90.85802 119.55664,-117.17969 -7.58859,16.12066 -13.09179,34.99347 -13.09179,56.43945 -6.6e-4,20.09504 16.28968,36.38548 36.38474,36.38477 20.09428,-3.6e-4 36.38354,-16.29048 36.38281,-36.38477 0,-15.53534 17.18577,-44.3817 30.07621,-59.78711 2.02936,-2.42529 15.54097,-14.18328 29.9316,-22.19336 0.50485,-0.281 1.01212,-0.55676 1.5215,-0.83007 z m 707.13863,34.61328 c 95.692,38.59219 147.1124,84.78304 147.1114,132.15039 -5e-4,89.63578 -183.0629,170.94845 -467.7852,207.78123 16.1089,-20.82415 25.1331,-46.22863 29.3965,-73.33788 6.0493,-38.46609 2.7635,-81.38285 -9.8535,-124.13085 h 184.1426 c 31.698,0.0694 61.0317,-14.27079 80.1465,-36.08594 19.1147,-21.81516 29.4808,-49.44035 34.1464,-79.10742 1.3952,-8.87191 2.2932,-17.98081 2.6953,-27.26953 z M 313.74413,585.77539 c 0.2272,1.90773 0.69436,5.55521 1.3086,9.46094 4.66556,29.66707 15.03174,57.29227 34.14648,79.10743 19.11474,21.81515 48.44843,36.15531 80.14649,36.08594 h 177.34765 c -12.69777,42.85775 -16.01617,85.89723 -9.95117,124.46288 3.85879,24.53707 11.70744,47.62084 25.08984,67.23244 -0.33862,-0.49623 -0.76426,-0.93682 -1.0957,-1.43752 C 365.07544,860.79801 205.91103,783.96833 205.9121,700.44923 c -0.001,-40.28802 37.20632,-79.85678 107.83203,-114.67384 z m 785.81837,90.9297 c -18.0723,-0.30244 -35.8145,9.47274 -46.2051,24.76172 -8.5142,12.5281 -11.2745,22.82736 6.1387,33.57421 11.3429,7.0005 24.5473,4.42618 32.2851,0.66016 5.0003,-2.43372 6.8877,-4.3651 15.6992,-0.28711 17.8064,8.2408 28.2219,7.82092 38.4785,-0.6914 11.5496,-9.58534 9.5969,-23.5289 0.9493,-33.67188 -12.4453,-14.59745 -29.2734,-24.04334 -47.3457,-24.3457 z m -275.96095,0.6621 c -18.07233,0.30243 -34.90045,9.75022 -47.3457,24.34766 -8.64753,10.14299 -10.60037,24.08459 0.94922,33.66992 10.25675,8.51233 20.67217,8.93417 38.47852,0.69336 8.81151,-4.07798 10.69896,-2.14654 15.69923,0.28711 7.73787,3.76602 20.94218,6.33846 32.28516,-0.66211 17.41316,-10.74686 14.65281,-21.04423 6.13865,-33.57226 -10.39057,-15.28905 -28.1328,-25.06604 -46.20508,-24.76368 z"
     style="display:inline;opacity:1;fill:#091a28;fill-opacity:1;stroke:none;stroke-width:94.9998;stroke-linecap:round;stroke-linejoin:round;stroke-miterlimit:0;stroke-opacity:1"
     id="path6" /></svg>
