<svg xmlns="http://www.w3.org/2000/svg" viewBox="0 0 88.16 45"><defs><style>.cls-1{fill:black}</style></defs><g id="Layer_2" data-name="Layer 2"><g id="Layout"><path class="cls-1" d="M40.24.88A3 3 0 0 0 38.06 0H13v3a2.78 2.78 0 0 0 .88 2.06A3 3 0 0 0 16 6h8v30h3a3 3 0 0 0 2.19-.88 2.87 2.87 0 0 0 .9-2.08V6h11.05V3.18a3.34 3.34 0 0 0-.9-2.3z"/><path class="cls-1" d="M56.18 11a3 3 0 0 0-2.19.87 2.91 2.91 0 0 0-.9 2.09V26c-1.06 2.94-4.29 4.37-7.75 4.37-2.87 0-4.26-1.33-4.26-4.05V14a2.87 2.87 0 0 0-.9-2.09A3 3 0 0 0 38 11h-2.93v15.83c0 6.08 3.13 9.17 9.62 9.17 3.19 0 6.68-1.1 8.36-3.28a6.73 6.73 0 0 1-1.43 4.36c-1.23 1.61-3.61 2.23-6.09 2.23a20.38 20.38 0 0 1-7.2-1.4 5.1 5.1 0 0 0-1.14-.16 1.9 1.9 0 0 0-2.12 2.1v2.45l.18.1A19.4 19.4 0 0 0 45.53 45C54 45 59.1 40.44 59.1 31.43V11zm27.64 14a4.05 4.05 0 0 0-1.61-2.11 9.83 9.83 0 0 0 1.15-2.56L87.15 11h-3.44c-1.88 0-3.09.76-3.59 2.25l-2.58 6c-.2.49-.79.75-1.77.75h-5.64V3a2.72 2.72 0 0 0-.86-2 3 3 0 0 0-2.17-1h-3v36h3a3 3 0 0 0 2.2-.9 2.75 2.75 0 0 0 .89-2.1v-7h6.61c.94 0 1.19.43 1.3.76l3.09 7.12c.47 1.41 1.66 2.13 3.54 2.13h3.43z"/><path d="M16 17.25A8 8 0 0 0 8.13 10H0v8.33A8 8 0 0 0 7.72 26H16v-8.73z" style="fill:#00d9ba"/></g></g></svg>
