<svg xmlns="http://www.w3.org/2000/svg" width="256" height="256" viewBox="0 0 256 256">
  <rect width="256" height="256" rx="48" fill="#FAF7F0"/>
  <g transform="translate(128,128) scale(7.5)" stroke="#1C1917" stroke-width="2" stroke-linecap="round" stroke-linejoin="round" fill="none">
    <path d="M17.8 19.2 16 11l3.5-3.5C21 6 21.5 4 21 3c-1-.5-3 0-4.5 1.5L13 8 4.8 6.2c-.5-.1-.9.1-1.1.5l-.3.5c-.2.5-.1 1 .3 1.3L9 12l-2 3H4l-1 1 3 2 2 3 1-1v-3l3-2 3.5 5.3c.3.4.8.5 1.3.3l.5-.2c.4-.3.6-.7.5-1.2z" transform="translate(-12,-12)"/>
  </g>
</svg>
