<svg xmlns="http://www.w3.org/2000/svg" xmlns:xlink="http://www.w3.org/1999/xlink" version="1.1" x="0px" y="0px" viewBox="0 0 362.8 94.9" enable-background="new 0 0 362.8 94.9" xml:space="preserve">
<g id="logo">
	<g>
		<path fill="#4E5E9E" d="M154.3,70.9v-20c0-4.9-2.6-9.4-7.7-9.4c-5,0-8,4.5-8,9.4v20h-9.3V33.4h8.6l0.7,4.6c2-3.8,6.3-5.2,9.9-5.2    c4.5,0,9,1.8,11.1,7c3.3-5.3,7.7-6.8,12.5-6.8c10.6,0,15.9,6.5,15.9,17.8v20.2h-9.3V50.7c0-4.9-2-9.1-7.1-9.1    c-5,0-8.1,4.3-8.1,9.3v20H154.3z"/>
		<path fill="#4E5E9E" d="M224,33.5h8.9v37.4h-8.7l-0.5-5.5c-2.1,4.4-8,6.5-12.1,6.6c-11.1,0.1-19.3-6.8-19.3-19.9    c0-12.9,8.6-19.7,19.5-19.6c5,0,9.8,2.4,11.9,6.1L224,33.5z M201.6,52.1c0,7.1,4.9,11.4,11.1,11.4c14.6,0,14.6-22.7,0-22.7    C206.5,40.8,201.6,45,201.6,52.1z"/>
		<path fill="#4E5E9E" d="M248.1,33.5v19.6c0,5.7,3.1,10,9,10c5.7,0,9.6-4.8,9.6-10.5V33.5h9.2V71h-8.3l-0.6-5.1    c-3.9,3.8-7.4,5.6-12.7,5.6c-9,0-15.5-6.8-15.5-18.4V33.5H248.1z"/>
		<path fill="#4E5E9E" d="M297.1,22.9v10.6h10.3v8H297v16.2c0,3.6,2,5.3,4.9,5.3c1.4,0,3.1-0.5,4.5-1.1l2.6,7.9    c-2.7,1.1-4.9,1.5-7.7,1.6c-8.1,0.3-13.4-4.3-13.4-13.7V41.5h-7v-8h7v-9.6L297.1,22.9z"/>
		<path fill="#4E5E9E" d="M324.4,22.9c0,7.2-10.9,7.2-10.9,0C313.5,15.7,324.4,15.7,324.4,22.9z M314.3,33.3v37.6h9.3V33.3H314.3z"/>
		<path fill="#4E5E9E" d="M362.8,66.1c-4.3,4.2-8.9,5.9-14.4,5.9c-10.9,0-19.9-6.5-19.9-19.8s9-19.8,19.9-19.8    c5.3,0,9.4,1.5,13.5,5.5l-5.8,6.1c-2.2-2-4.9-3-7.5-3c-6.2,0-10.8,4.6-10.8,11.1c0,7.1,4.9,10.9,10.6,10.9c3,0,5.9-0.8,8.2-3.1    L362.8,66.1z"/>
	</g>
</g>
<g id="brandmark">
	<g>
		<path fill="#4E5E9E" d="M47.4,94.8c-26.1,0-47.4-21.3-47.4-47.4S21.3,0.1,47.4,0.1c6.3,0,12.4,1.2,18.2,3.6    c1.6,0.7,2.4,2.6,1.7,4.2c-0.7,1.6-2.6,2.4-4.2,1.7c-5-2.1-10.3-3.1-15.8-3.1c-22.6,0-41,18.4-41,41s18.4,41,41,41    c22.6,0,41-18.4,41-41c0-4.8-0.8-9.6-2.5-14.1c-0.6-1.7,0.2-3.5,1.9-4.1c1.7-0.6,3.5,0.2,4.1,1.9c1.9,5.2,2.9,10.7,2.9,16.3    C94.8,73.6,73.5,94.8,47.4,94.8z"/>
	</g>
	<g>
		<polygon fill="#FDB933" points="68.1,42.6 60.8,50.3 64.9,67.4 74.1,67.4   "/>
	</g>
	<polygon fill="#FDB933" points="65.1,20 67.7,22.5 47.4,44 30.1,26.1 20.1,67.4 29.4,67.4 34.9,44.5 47.4,58.2 74.2,29 76.7,31.5    79.3,17.1  "/>
</g>
</svg>