<svg width="2500" height="2500" viewBox="0 0 2500 2500" fill="none" xmlns="http://www.w3.org/2000/svg">
<path d="M952.844 549.625H914.719V747.125H952.844V549.625ZM1116.81 549.625H1078.69V747.125H1116.81V549.625ZM1340.84 172.719L1301.78 104.969L649.688 481.875L688.75 549.625L1340.84 172.719Z" fill="#13BEF9"/>
<path d="M1337.03 172.719L1376.13 104.969L2028.22 481.875L1989.13 549.625L1337.03 172.719Z" fill="#13BEF9"/>
<path d="M2143.59 550.563V472.344H357V550.563H2143.59Z" fill="#13BEF9"/>
<path fill-rule="evenodd" clip-rule="evenodd" d="M1436.19 1655.53V496.187H1514.38V1711.84C1493.41 1687.97 1466.69 1670.81 1436.19 1655.53ZM1302.72 1635.5V0H1380.91V1645.03C1358.97 1634.53 1305.59 1635.5 1302.72 1635.5ZM561.969 1798.66C466.625 1728.06 403.719 1615.47 403.719 1487.59C403.719 1419.84 421.813 1353.06 455.188 1294.84H1122.53C1156.84 1353.06 1174.03 1419.84 1174.03 1487.59C1174.03 1546.75 1166.41 1602.09 1142.56 1651.72C1092.03 1603.06 1017.66 1582.06 942.344 1582.06C808.875 1582.06 694.469 1665.06 664.937 1789.13C654.437 1788.16 647.781 1787.22 637.281 1787.22C611.531 1788.16 586.75 1792 561.969 1798.66V1798.66Z" fill="#13BEF9"/>
<path d="M889.906 834.938H687.812V1038.16H889.906V834.938ZM662.062 834.938H459.969V1038.16H662.062V834.938ZM662.062 1061.06H459.969V1264.31H662.062V1061.06ZM889.906 1061.06H687.812V1264.31H889.906V1061.06ZM1116.81 1061.06H914.719V1264.31H1116.81V1061.06ZM1116.81 726.156H914.719V929.375H1116.81V726.156Z" fill="#13BEF9"/>
<path fill-rule="evenodd" clip-rule="evenodd" d="M698.281 1829.19C725.938 1711.84 831.75 1624.03 957.594 1624.03C1038.66 1624.03 1111.09 1660.31 1160.69 1717.56C1203.56 1687.97 1255.06 1670.81 1311.31 1670.81C1458.13 1670.81 1577.28 1790.06 1577.28 1937.03C1577.28 1967.56 1572.53 1996.19 1563 2023.84C1595.41 2067.75 1615.44 2123.09 1615.44 2182.25C1615.44 2329.19 1496.25 2448.47 1349.44 2448.47C1284.59 2448.47 1225.5 2425.56 1179.75 2387.41C1131.12 2455.16 1052 2500 962.375 2500C859.406 2500 769.781 2440.84 725 2354.97C706.875 2358.78 688.75 2360.69 669.687 2360.69C522.875 2360.69 402.75 2241.41 402.75 2094.47C402.75 1947.53 521.937 1828.25 669.687 1828.25C679.219 1827.28 688.75 1827.28 698.281 1829.19V1829.19Z" fill="#13BEF9"/>
</svg>
