<svg width="283" height="55" viewBox="0 0 283 55" fill="none" xmlns="http://www.w3.org/2000/svg">
<path d="M73.368 16.6H78.776V39H73.368V16.6ZM76.76 21.048V16.6H81.144C83.0427 16.6 84.632 16.8987 85.912 17.496C87.2133 18.072 88.1947 18.904 88.856 19.992C89.5173 21.08 89.848 22.392 89.848 23.928C89.848 25.4213 89.5173 26.7227 88.856 27.832C88.1947 28.92 87.2133 29.7627 85.912 30.36C84.632 30.936 83.0427 31.224 81.144 31.224H76.76V26.776H81.144C82.232 26.776 83.0853 26.5307 83.704 26.04C84.3227 25.5493 84.632 24.8453 84.632 23.928C84.632 22.9893 84.3227 22.2747 83.704 21.784C83.0853 21.2933 82.232 21.048 81.144 21.048H76.76ZM97.7535 27.8C97.7535 29.1227 98.0095 30.296 98.5215 31.32C99.0548 32.3227 99.7908 33.112 100.73 33.688C101.69 34.264 102.81 34.552 104.09 34.552C105.348 34.552 106.447 34.264 107.385 33.688C108.346 33.112 109.082 32.3227 109.594 31.32C110.127 30.296 110.394 29.1227 110.394 27.8C110.394 26.4773 110.138 25.3147 109.626 24.312C109.114 23.288 108.388 22.488 107.45 21.912C106.511 21.336 105.391 21.048 104.09 21.048C102.81 21.048 101.69 21.336 100.73 21.912C99.7908 22.488 99.0548 23.288 98.5215 24.312C98.0095 25.3147 97.7535 26.4773 97.7535 27.8ZM92.0255 27.8C92.0255 26.072 92.3242 24.4933 92.9215 23.064C93.5402 21.6347 94.3935 20.3973 95.4815 19.352C96.5695 18.3067 97.8495 17.5067 99.3215 16.952C100.794 16.376 102.383 16.088 104.09 16.088C105.818 16.088 107.407 16.376 108.858 16.952C110.33 17.5067 111.61 18.3067 112.698 19.352C113.786 20.3973 114.628 21.6347 115.226 23.064C115.823 24.4933 116.122 26.072 116.122 27.8C116.122 29.528 115.823 31.1173 115.226 32.568C114.65 34.0187 113.818 35.2773 112.73 36.344C111.663 37.4107 110.394 38.2427 108.922 38.84C107.45 39.416 105.839 39.704 104.09 39.704C102.319 39.704 100.698 39.416 99.2255 38.84C97.7535 38.2427 96.4735 37.4107 95.3855 36.344C94.3188 35.2773 93.4868 34.0187 92.8895 32.568C92.3135 31.1173 92.0255 29.528 92.0255 27.8ZM122.051 31.128C122.499 31.9387 123 32.6427 123.555 33.24C124.131 33.8373 124.749 34.296 125.411 34.616C126.093 34.936 126.808 35.096 127.555 35.096C128.344 35.096 128.995 34.904 129.507 34.52C130.019 34.1147 130.275 33.5707 130.275 32.888C130.275 32.312 130.125 31.8533 129.827 31.512C129.528 31.1493 129.048 30.808 128.387 30.488C127.725 30.168 126.851 29.8053 125.763 29.4C125.229 29.208 124.611 28.9413 123.907 28.6C123.224 28.2587 122.573 27.8213 121.955 27.288C121.336 26.7333 120.824 26.072 120.419 25.304C120.013 24.5147 119.811 23.5653 119.811 22.456C119.811 21.1333 120.152 19.992 120.835 19.032C121.539 18.072 122.477 17.3467 123.651 16.856C124.845 16.344 126.168 16.088 127.619 16.088C129.112 16.088 130.403 16.3333 131.491 16.824C132.6 17.3147 133.517 17.9333 134.243 18.68C134.968 19.4267 135.523 20.184 135.907 20.952L131.779 23.256C131.459 22.7227 131.085 22.264 130.659 21.88C130.253 21.4747 129.795 21.1653 129.283 20.952C128.792 20.7173 128.259 20.6 127.683 20.6C126.915 20.6 126.328 20.7707 125.923 21.112C125.517 21.432 125.315 21.8373 125.315 22.328C125.315 22.84 125.507 23.288 125.891 23.672C126.296 24.056 126.861 24.408 127.587 24.728C128.333 25.048 129.229 25.3893 130.275 25.752C131.064 26.0507 131.8 26.4027 132.483 26.808C133.165 27.192 133.763 27.6613 134.275 28.216C134.808 28.7707 135.224 29.4107 135.523 30.136C135.821 30.8613 135.971 31.6933 135.971 32.632C135.971 33.7627 135.736 34.776 135.267 35.672C134.819 36.5467 134.2 37.2827 133.411 37.88C132.643 38.4773 131.757 38.9253 130.755 39.224C129.773 39.544 128.76 39.704 127.715 39.704C126.264 39.704 124.909 39.448 123.651 38.936C122.413 38.4027 121.336 37.688 120.419 36.792C119.501 35.896 118.787 34.9147 118.275 33.848L122.051 31.128ZM137.347 21.432V16.6H155.075V21.432H148.899V39H143.491V21.432H137.347ZM167.035 30.904V26.744H178.363C178.469 28.536 178.288 30.2107 177.819 31.768C177.349 33.3253 176.624 34.7013 175.643 35.896C174.661 37.0907 173.435 38.0293 171.963 38.712C170.491 39.3733 168.805 39.704 166.907 39.704C165.115 39.704 163.472 39.4267 161.979 38.872C160.485 38.296 159.195 37.4853 158.107 36.44C157.019 35.3733 156.165 34.1147 155.547 32.664C154.949 31.192 154.651 29.5707 154.651 27.8C154.651 26.0293 154.96 24.4293 155.579 23C156.197 21.5493 157.072 20.312 158.203 19.288C159.333 18.264 160.656 17.4747 162.171 16.92C163.685 16.3653 165.328 16.088 167.099 16.088C168.677 16.088 170.096 16.312 171.355 16.76C172.613 17.208 173.723 17.8373 174.683 18.648C175.664 19.4373 176.507 20.3547 177.211 21.4L172.411 23.896C171.899 23 171.205 22.264 170.331 21.688C169.477 21.0907 168.4 20.792 167.099 20.792C165.861 20.792 164.72 21.0693 163.675 21.624C162.651 22.1787 161.829 22.9787 161.211 24.024C160.613 25.048 160.315 26.3067 160.315 27.8C160.315 29.272 160.603 30.552 161.179 31.64C161.776 32.7067 162.576 33.5387 163.579 34.136C164.603 34.712 165.776 35 167.099 35C167.909 35 168.645 34.904 169.307 34.712C169.968 34.4987 170.533 34.2107 171.003 33.848C171.472 33.464 171.867 33.0267 172.187 32.536C172.528 32.024 172.795 31.48 172.987 30.904H167.035ZM187.593 28.856H193.193L200.201 39H193.865L187.593 28.856ZM181.993 16.6H187.401V39H181.993V16.6ZM185.385 21.176V16.6H190.153C192.073 16.6 193.673 16.9093 194.953 17.528C196.233 18.1467 197.204 19.0107 197.865 20.12C198.526 21.208 198.857 22.4773 198.857 23.928C198.857 25.3573 198.526 26.6267 197.865 27.736C197.204 28.824 196.233 29.6773 194.953 30.296C193.673 30.9147 192.073 31.224 190.153 31.224H185.385V27.032H189.769C190.494 27.032 191.113 26.9253 191.625 26.712C192.158 26.4773 192.564 26.1467 192.841 25.72C193.118 25.272 193.257 24.7387 193.257 24.12C193.257 23.5013 193.118 22.9787 192.841 22.552C192.564 22.104 192.158 21.7627 191.625 21.528C191.113 21.2933 190.494 21.176 189.769 21.176H185.385ZM206.296 39V34.552H217.592V39H206.296ZM206.296 21.048V16.6H217.592V21.048H206.296ZM206.296 29.4V25.048H216.952V29.4H206.296ZM202.712 16.6H207.896V39H202.712V16.6ZM224.457 31.128C224.905 31.9387 225.406 32.6427 225.961 33.24C226.537 33.8373 227.156 34.296 227.817 34.616C228.5 34.936 229.214 35.096 229.961 35.096C230.75 35.096 231.401 34.904 231.913 34.52C232.425 34.1147 232.681 33.5707 232.681 32.888C232.681 32.312 232.532 31.8533 232.233 31.512C231.934 31.1493 231.454 30.808 230.793 30.488C230.132 30.168 229.257 29.8053 228.169 29.4C227.636 29.208 227.017 28.9413 226.313 28.6C225.63 28.2587 224.98 27.8213 224.361 27.288C223.742 26.7333 223.23 26.072 222.825 25.304C222.42 24.5147 222.217 23.5653 222.217 22.456C222.217 21.1333 222.558 19.992 223.241 19.032C223.945 18.072 224.884 17.3467 226.057 16.856C227.252 16.344 228.574 16.088 230.025 16.088C231.518 16.088 232.809 16.3333 233.897 16.824C235.006 17.3147 235.924 17.9333 236.649 18.68C237.374 19.4267 237.929 20.184 238.313 20.952L234.185 23.256C233.865 22.7227 233.492 22.264 233.065 21.88C232.66 21.4747 232.201 21.1653 231.689 20.952C231.198 20.7173 230.665 20.6 230.089 20.6C229.321 20.6 228.734 20.7707 228.329 21.112C227.924 21.432 227.721 21.8373 227.721 22.328C227.721 22.84 227.913 23.288 228.297 23.672C228.702 24.056 229.268 24.408 229.993 24.728C230.74 25.048 231.636 25.3893 232.681 25.752C233.47 26.0507 234.206 26.4027 234.889 26.808C235.572 27.192 236.169 27.6613 236.681 28.216C237.214 28.7707 237.63 29.4107 237.929 30.136C238.228 30.8613 238.377 31.6933 238.377 32.632C238.377 33.7627 238.142 34.776 237.673 35.672C237.225 36.5467 236.606 37.2827 235.817 37.88C235.049 38.4773 234.164 38.9253 233.161 39.224C232.18 39.544 231.166 39.704 230.121 39.704C228.67 39.704 227.316 39.448 226.057 38.936C224.82 38.4027 223.742 37.688 222.825 36.792C221.908 35.896 221.193 34.9147 220.681 33.848L224.457 31.128ZM241.833 16.6H247.241V31.256C247.241 32.3867 247.54 33.304 248.137 34.008C248.734 34.712 249.63 35.064 250.825 35.064C252.041 35.064 252.948 34.712 253.545 34.008C254.142 33.304 254.441 32.3867 254.441 31.256V16.6H259.849V31.64C259.849 33.048 259.614 34.2747 259.145 35.32C258.697 36.3653 258.057 37.2293 257.225 37.912C256.414 38.5733 255.454 39.0747 254.345 39.416C253.257 39.7573 252.084 39.928 250.825 39.928C249.566 39.928 248.393 39.7573 247.305 39.416C246.217 39.0747 245.257 38.5733 244.425 37.912C243.614 37.2293 242.974 36.3653 242.505 35.32C242.057 34.2747 241.833 33.048 241.833 31.64V16.6ZM266.895 31.128C267.343 31.9387 267.844 32.6427 268.399 33.24C268.975 33.8373 269.593 34.296 270.255 34.616C270.937 34.936 271.652 35.096 272.399 35.096C273.188 35.096 273.839 34.904 274.351 34.52C274.863 34.1147 275.119 33.5707 275.119 32.888C275.119 32.312 274.969 31.8533 274.671 31.512C274.372 31.1493 273.892 30.808 273.231 30.488C272.569 30.168 271.695 29.8053 270.607 29.4C270.073 29.208 269.455 28.9413 268.751 28.6C268.068 28.2587 267.417 27.8213 266.799 27.288C266.18 26.7333 265.668 26.072 265.263 25.304C264.857 24.5147 264.655 23.5653 264.655 22.456C264.655 21.1333 264.996 19.992 265.679 19.032C266.383 18.072 267.321 17.3467 268.495 16.856C269.689 16.344 271.012 16.088 272.463 16.088C273.956 16.088 275.247 16.3333 276.335 16.824C277.444 17.3147 278.361 17.9333 279.087 18.68C279.812 19.4267 280.367 20.184 280.751 20.952L276.623 23.256C276.303 22.7227 275.929 22.264 275.503 21.88C275.097 21.4747 274.639 21.1653 274.127 20.952C273.636 20.7173 273.103 20.6 272.527 20.6C271.759 20.6 271.172 20.7707 270.767 21.112C270.361 21.432 270.159 21.8373 270.159 22.328C270.159 22.84 270.351 23.288 270.735 23.672C271.14 24.056 271.705 24.408 272.431 24.728C273.177 25.048 274.073 25.3893 275.119 25.752C275.908 26.0507 276.644 26.4027 277.327 26.808C278.009 27.192 278.607 27.6613 279.119 28.216C279.652 28.7707 280.068 29.4107 280.367 30.136C280.665 30.8613 280.815 31.6933 280.815 32.632C280.815 33.7627 280.58 34.776 280.111 35.672C279.663 36.5467 279.044 37.2827 278.255 37.88C277.487 38.4773 276.601 38.9253 275.599 39.224C274.617 39.544 273.604 39.704 272.559 39.704C271.108 39.704 269.753 39.448 268.495 38.936C267.257 38.4027 266.18 37.688 265.263 36.792C264.345 35.896 263.631 34.9147 263.118 33.848L266.895 31.128Z" fill="#155DFC"/>
<g clip-path="url(#clip0_286_151)">
<path d="M21.5497 49.4951C21.5497 52.0732 24.5594 52.0751 25.3515 50.703C25.8477 49.8436 26.2109 48.9842 26.2109 46.4061C26.2109 43.828 24.9667 41.6597 23.77 39.3239C23.462 38.7227 23.131 38.0767 22.7789 37.3499C22.175 36.1034 21.4357 34.9537 20.3622 34.0372C20.1976 33.8966 20.1495 33.5196 20.1791 33.2672C20.2963 32.271 20.4237 31.2759 20.5512 30.2808C20.7619 28.6359 20.9725 26.9911 21.1367 25.3415C21.2519 24.1859 21.2498 22.9933 21.1043 21.8422C20.7897 19.3507 19.3914 17.5219 17.2455 16.29C16.6211 15.9315 16.4369 15.5312 16.5149 14.8608C16.7321 12.9969 17.469 11.3139 18.4053 9.73849C19.2653 8.29165 20.2398 6.91182 21.2126 5.53451C21.3372 5.35811 21.4618 5.18176 21.5861 5.00531C21.7451 4.77941 22.1388 4.60815 22.4284 4.60084C25.9586 4.51243 29.4895 4.45361 33.0205 4.4101C33.2631 4.40696 33.5837 4.52009 33.7399 4.69413C35.9426 7.14739 37.9106 9.75903 39.092 12.8813C39.1728 13.095 39.2399 13.3147 39.3015 13.535C39.745 15.1113 39.7377 15.1165 38.4743 16.0058L38.4171 16.046C36.038 17.7217 35.1681 20.1179 35.2739 22.9234C35.3951 26.1487 36.1205 29.2751 36.9475 32.3786C37.1156 33.0093 37.2246 33.4757 36.6182 34.0574C35.4041 35.2214 34.899 36.8187 34.6575 38.4435C34.4061 40.1363 34.2027 41.8359 33.9992 43.5357C33.8863 44.4791 33.8807 45.2754 33.6522 46.3648C32.7774 50.5361 30.5078 54.9999 27.0703 54.9999H21.5497C19.3359 54.9999 17.6172 52.9326 17.6172 49.4951H21.5497Z" fill="#155DFC"/>
<path d="M19.87 2.81889C18.6221 4.76953 17.344 6.61852 16.2256 8.55976C15.2165 10.3109 14.5444 12.2129 14.2189 14.2317C13.7929 16.875 14.4779 19.2152 16.361 21.045C17.9113 22.5515 18.3113 24.2546 18.1122 26.2829C17.6785 30.7049 16.8083 35.0368 15.5569 39.2958C15.5447 39.3369 15.5068 39.3703 15.4247 39.4873C14.6745 39.253 13.8858 39.0348 13.1169 38.7619C2.37622 34.9497 -5.46669 27.9095 -10.3917 17.63C-10.8174 16.7417 -11.2058 15.8339 -11.5699 14.9188C-11.6392 14.7448 -11.5908 14.4071 -11.4634 14.2884C-7.36825 10.4725 -3.28284 6.64498 0.861385 2.88294C3.71494 0.29288 7.12472 -0.522319 10.8478 0.317944C13.7233 0.966763 16.5486 1.83835 19.3945 2.617C19.587 2.66956 19.7656 2.77364 19.87 2.81889Z" fill="#155DFC"/>
<path d="M41.662 38.3822C41.0734 36.4142 40.4249 34.5474 39.9658 32.6354C39.3622 30.1202 38.8732 27.5754 38.4029 25.0306C38.137 23.5923 38.4141 22.2654 39.4841 21.1453C42.2242 18.2771 42.2785 14.952 40.9627 11.4743C39.8523 8.53964 38.0674 6.01154 35.966 3.69925C35.7199 3.42844 35.4791 3.15242 35.1992 2.8381C35.3579 2.75108 35.4798 2.65884 35.6173 2.61255C38.727 1.56448 41.8729 0.66539 45.1348 0.210102C48.4607 -0.254235 51.2958 0.781299 53.7303 2.99752C55.8668 4.94224 57.9239 6.97502 60.0754 8.90268C61.7987 10.4464 63.5993 11.9052 65.3944 13.3664C65.7184 13.6299 65.8009 13.8426 65.7049 14.2245C64.0487 20.8223 60.72 26.4208 55.6262 30.9323C51.6112 34.4879 46.9866 36.9439 41.662 38.3826V38.3822Z" fill="#155DFC"/>
</g>
<defs>
<clipPath id="clip0_286_151">
<rect width="55" height="55" rx="6" fill="white"/>
</clipPath>
</defs>
</svg>
